<?xml version="1.0" encoding="utf-8" standalone="no"?>
<!DOCTYPE svg PUBLIC "-//W3C//DTD SVG 1.1//EN"
  "http://www.w3.org/Graphics/SVG/1.1/DTD/svg11.dtd">
<svg xmlns:xlink="http://www.w3.org/1999/xlink" width="542.387109pt" height="396.837051pt" viewBox="0 0 542.387109 396.837051" xmlns="http://www.w3.org/2000/svg" version="1.1">
 <metadata>
  <rdf:RDF xmlns:dc="http://purl.org/dc/elements/1.1/" xmlns:cc="http://creativecommons.org/ns#" xmlns:rdf="http://www.w3.org/1999/02/22-rdf-syntax-ns#">
   <cc:Work>
    <dc:type rdf:resource="http://purl.org/dc/dcmitype/StillImage"/>
    <dc:date>2023-03-21T16:29:37.971418</dc:date>
    <dc:format>image/svg+xml</dc:format>
    <dc:creator>
     <cc:Agent>
      <dc:title>Matplotlib v3.5.1, https://matplotlib.org/</dc:title>
     </cc:Agent>
    </dc:creator>
   </cc:Work>
  </rdf:RDF>
 </metadata>
 <defs>
  <style type="text/css">*{stroke-linejoin: round; stroke-linecap: butt}</style>
 </defs>
 <g id="figure_1">
  <g id="patch_1">
   <path d="M 0 396.837051 
L 542.387109 396.837051 
L 542.387109 0 
L 0 0 
z
" style="fill: #ffffff"/>
  </g>
  <g id="axes_1">
   <g id="patch_2">
    <path d="M 92.387109 329.76 
L 538.787109 329.76 
L 538.787109 3.6 
L 92.387109 3.6 
z
" style="fill: #ffffff"/>
   </g>
   <g id="line2d_1">
    <path d="M 92.387109 300.109091 
L 538.787109 300.109091 
" clip-path="url(#pe094195fda)" style="fill: none; stroke-dasharray: 2.25,3.7125; stroke-dashoffset: 0; stroke: #000000; stroke-width: 2.25"/>
   </g>
   <g id="matplotlib.axis_1">
    <g id="xtick_1">
     <g id="line2d_2">
      <defs>
       <path id="m7d9a332158" d="M 0 0 
L 0 5 
" style="stroke: #000000; stroke-width: 1.875"/>
      </defs>
      <g>
       <use xlink:href="#m7d9a332158" x="112.678018" y="329.76" style="stroke: #000000; stroke-width: 1.875"/>
      </g>
     </g>
     <g id="text_1">
      <!-- 0 -->
      <g transform="translate(106.943302 353.022988)scale(0.20625 -0.20625)">
       <defs>
        <path id="ArialMT-30" d="M 266 2259 
Q 266 3072 433 3567 
Q 600 4063 929 4331 
Q 1259 4600 1759 4600 
Q 2128 4600 2406 4451 
Q 2684 4303 2865 4023 
Q 3047 3744 3150 3342 
Q 3253 2941 3253 2259 
Q 3253 1453 3087 958 
Q 2922 463 2592 192 
Q 2263 -78 1759 -78 
Q 1097 -78 719 397 
Q 266 969 266 2259 
z
M 844 2259 
Q 844 1131 1108 757 
Q 1372 384 1759 384 
Q 2147 384 2411 759 
Q 2675 1134 2675 2259 
Q 2675 3391 2411 3762 
Q 2147 4134 1753 4134 
Q 1366 4134 1134 3806 
Q 844 3388 844 2259 
z
" transform="scale(0.015625)"/>
       </defs>
       <use xlink:href="#ArialMT-30"/>
      </g>
     </g>
    </g>
    <g id="xtick_2">
     <g id="line2d_3">
      <g>
       <use xlink:href="#m7d9a332158" x="193.841655" y="329.76" style="stroke: #000000; stroke-width: 1.875"/>
      </g>
     </g>
     <g id="text_2">
      <!-- 10 -->
      <g transform="translate(182.372221 353.022988)scale(0.20625 -0.20625)">
       <defs>
        <path id="ArialMT-31" d="M 2384 0 
L 1822 0 
L 1822 3584 
Q 1619 3391 1289 3197 
Q 959 3003 697 2906 
L 697 3450 
Q 1169 3672 1522 3987 
Q 1875 4303 2022 4600 
L 2384 4600 
L 2384 0 
z
" transform="scale(0.015625)"/>
       </defs>
       <use xlink:href="#ArialMT-31"/>
       <use xlink:href="#ArialMT-30" x="55.615234"/>
      </g>
     </g>
    </g>
    <g id="xtick_3">
     <g id="line2d_4">
      <g>
       <use xlink:href="#m7d9a332158" x="275.005291" y="329.76" style="stroke: #000000; stroke-width: 1.875"/>
      </g>
     </g>
     <g id="text_3">
      <!-- 20 -->
      <g transform="translate(263.535858 353.022988)scale(0.20625 -0.20625)">
       <defs>
        <path id="ArialMT-32" d="M 3222 541 
L 3222 0 
L 194 0 
Q 188 203 259 391 
Q 375 700 629 1000 
Q 884 1300 1366 1694 
Q 2113 2306 2375 2664 
Q 2638 3022 2638 3341 
Q 2638 3675 2398 3904 
Q 2159 4134 1775 4134 
Q 1369 4134 1125 3890 
Q 881 3647 878 3216 
L 300 3275 
Q 359 3922 746 4261 
Q 1134 4600 1788 4600 
Q 2447 4600 2831 4234 
Q 3216 3869 3216 3328 
Q 3216 3053 3103 2787 
Q 2991 2522 2730 2228 
Q 2469 1934 1863 1422 
Q 1356 997 1212 845 
Q 1069 694 975 541 
L 3222 541 
z
" transform="scale(0.015625)"/>
       </defs>
       <use xlink:href="#ArialMT-32"/>
       <use xlink:href="#ArialMT-30" x="55.615234"/>
      </g>
     </g>
    </g>
    <g id="xtick_4">
     <g id="line2d_5">
      <g>
       <use xlink:href="#m7d9a332158" x="356.168928" y="329.76" style="stroke: #000000; stroke-width: 1.875"/>
      </g>
     </g>
     <g id="text_4">
      <!-- 30 -->
      <g transform="translate(344.699494 353.022988)scale(0.20625 -0.20625)">
       <defs>
        <path id="ArialMT-33" d="M 269 1209 
L 831 1284 
Q 928 806 1161 595 
Q 1394 384 1728 384 
Q 2125 384 2398 659 
Q 2672 934 2672 1341 
Q 2672 1728 2419 1979 
Q 2166 2231 1775 2231 
Q 1616 2231 1378 2169 
L 1441 2663 
Q 1497 2656 1531 2656 
Q 1891 2656 2178 2843 
Q 2466 3031 2466 3422 
Q 2466 3731 2256 3934 
Q 2047 4138 1716 4138 
Q 1388 4138 1169 3931 
Q 950 3725 888 3313 
L 325 3413 
Q 428 3978 793 4289 
Q 1159 4600 1703 4600 
Q 2078 4600 2393 4439 
Q 2709 4278 2876 4000 
Q 3044 3722 3044 3409 
Q 3044 3113 2884 2869 
Q 2725 2625 2413 2481 
Q 2819 2388 3044 2092 
Q 3269 1797 3269 1353 
Q 3269 753 2831 336 
Q 2394 -81 1725 -81 
Q 1122 -81 723 278 
Q 325 638 269 1209 
z
" transform="scale(0.015625)"/>
       </defs>
       <use xlink:href="#ArialMT-33"/>
       <use xlink:href="#ArialMT-30" x="55.615234"/>
      </g>
     </g>
    </g>
    <g id="xtick_5">
     <g id="line2d_6">
      <g>
       <use xlink:href="#m7d9a332158" x="437.332564" y="329.76" style="stroke: #000000; stroke-width: 1.875"/>
      </g>
     </g>
     <g id="text_5">
      <!-- 40 -->
      <g transform="translate(425.86313 353.022988)scale(0.20625 -0.20625)">
       <defs>
        <path id="ArialMT-34" d="M 2069 0 
L 2069 1097 
L 81 1097 
L 81 1613 
L 2172 4581 
L 2631 4581 
L 2631 1613 
L 3250 1613 
L 3250 1097 
L 2631 1097 
L 2631 0 
L 2069 0 
z
M 2069 1613 
L 2069 3678 
L 634 1613 
L 2069 1613 
z
" transform="scale(0.015625)"/>
       </defs>
       <use xlink:href="#ArialMT-34"/>
       <use xlink:href="#ArialMT-30" x="55.615234"/>
      </g>
     </g>
    </g>
    <g id="xtick_6">
     <g id="line2d_7">
      <g>
       <use xlink:href="#m7d9a332158" x="518.4962" y="329.76" style="stroke: #000000; stroke-width: 1.875"/>
      </g>
     </g>
     <g id="text_6">
      <!-- 50 -->
      <g transform="translate(507.026767 353.022988)scale(0.20625 -0.20625)">
       <defs>
        <path id="ArialMT-35" d="M 266 1200 
L 856 1250 
Q 922 819 1161 601 
Q 1400 384 1738 384 
Q 2144 384 2425 690 
Q 2706 997 2706 1503 
Q 2706 1984 2436 2262 
Q 2166 2541 1728 2541 
Q 1456 2541 1237 2417 
Q 1019 2294 894 2097 
L 366 2166 
L 809 4519 
L 3088 4519 
L 3088 3981 
L 1259 3981 
L 1013 2750 
Q 1425 3038 1878 3038 
Q 2478 3038 2890 2622 
Q 3303 2206 3303 1553 
Q 3303 931 2941 478 
Q 2500 -78 1738 -78 
Q 1113 -78 717 272 
Q 322 622 266 1200 
z
" transform="scale(0.015625)"/>
       </defs>
       <use xlink:href="#ArialMT-35"/>
       <use xlink:href="#ArialMT-30" x="55.615234"/>
      </g>
     </g>
    </g>
    <g id="text_7">
     <!-- # added edges (effect size) -->
     <g transform="translate(180.086133 388.501504)scale(0.225 -0.225)">
      <defs>
       <path id="ArialMT-23" d="M 322 -78 
L 594 1253 
L 66 1253 
L 66 1719 
L 688 1719 
L 919 2853 
L 66 2853 
L 66 3319 
L 1013 3319 
L 1284 4659 
L 1753 4659 
L 1481 3319 
L 2466 3319 
L 2738 4659 
L 3209 4659 
L 2938 3319 
L 3478 3319 
L 3478 2853 
L 2844 2853 
L 2609 1719 
L 3478 1719 
L 3478 1253 
L 2516 1253 
L 2244 -78 
L 1775 -78 
L 2044 1253 
L 1063 1253 
L 791 -78 
L 322 -78 
z
M 1156 1719 
L 2138 1719 
L 2372 2853 
L 1388 2853 
L 1156 1719 
z
" transform="scale(0.015625)"/>
       <path id="ArialMT-20" transform="scale(0.015625)"/>
       <path id="ArialMT-61" d="M 2588 409 
Q 2275 144 1986 34 
Q 1697 -75 1366 -75 
Q 819 -75 525 192 
Q 231 459 231 875 
Q 231 1119 342 1320 
Q 453 1522 633 1644 
Q 813 1766 1038 1828 
Q 1203 1872 1538 1913 
Q 2219 1994 2541 2106 
Q 2544 2222 2544 2253 
Q 2544 2597 2384 2738 
Q 2169 2928 1744 2928 
Q 1347 2928 1158 2789 
Q 969 2650 878 2297 
L 328 2372 
Q 403 2725 575 2942 
Q 747 3159 1072 3276 
Q 1397 3394 1825 3394 
Q 2250 3394 2515 3294 
Q 2781 3194 2906 3042 
Q 3031 2891 3081 2659 
Q 3109 2516 3109 2141 
L 3109 1391 
Q 3109 606 3145 398 
Q 3181 191 3288 0 
L 2700 0 
Q 2613 175 2588 409 
z
M 2541 1666 
Q 2234 1541 1622 1453 
Q 1275 1403 1131 1340 
Q 988 1278 909 1158 
Q 831 1038 831 891 
Q 831 666 1001 516 
Q 1172 366 1500 366 
Q 1825 366 2078 508 
Q 2331 650 2450 897 
Q 2541 1088 2541 1459 
L 2541 1666 
z
" transform="scale(0.015625)"/>
       <path id="ArialMT-64" d="M 2575 0 
L 2575 419 
Q 2259 -75 1647 -75 
Q 1250 -75 917 144 
Q 584 363 401 755 
Q 219 1147 219 1656 
Q 219 2153 384 2558 
Q 550 2963 881 3178 
Q 1213 3394 1622 3394 
Q 1922 3394 2156 3267 
Q 2391 3141 2538 2938 
L 2538 4581 
L 3097 4581 
L 3097 0 
L 2575 0 
z
M 797 1656 
Q 797 1019 1065 703 
Q 1334 388 1700 388 
Q 2069 388 2326 689 
Q 2584 991 2584 1609 
Q 2584 2291 2321 2609 
Q 2059 2928 1675 2928 
Q 1300 2928 1048 2622 
Q 797 2316 797 1656 
z
" transform="scale(0.015625)"/>
       <path id="ArialMT-65" d="M 2694 1069 
L 3275 997 
Q 3138 488 2766 206 
Q 2394 -75 1816 -75 
Q 1088 -75 661 373 
Q 234 822 234 1631 
Q 234 2469 665 2931 
Q 1097 3394 1784 3394 
Q 2450 3394 2872 2941 
Q 3294 2488 3294 1666 
Q 3294 1616 3291 1516 
L 816 1516 
Q 847 969 1125 678 
Q 1403 388 1819 388 
Q 2128 388 2347 550 
Q 2566 713 2694 1069 
z
M 847 1978 
L 2700 1978 
Q 2663 2397 2488 2606 
Q 2219 2931 1791 2931 
Q 1403 2931 1139 2672 
Q 875 2413 847 1978 
z
" transform="scale(0.015625)"/>
       <path id="ArialMT-67" d="M 319 -275 
L 866 -356 
Q 900 -609 1056 -725 
Q 1266 -881 1628 -881 
Q 2019 -881 2231 -725 
Q 2444 -569 2519 -288 
Q 2563 -116 2559 434 
Q 2191 0 1641 0 
Q 956 0 581 494 
Q 206 988 206 1678 
Q 206 2153 378 2554 
Q 550 2956 876 3175 
Q 1203 3394 1644 3394 
Q 2231 3394 2613 2919 
L 2613 3319 
L 3131 3319 
L 3131 450 
Q 3131 -325 2973 -648 
Q 2816 -972 2473 -1159 
Q 2131 -1347 1631 -1347 
Q 1038 -1347 672 -1080 
Q 306 -813 319 -275 
z
M 784 1719 
Q 784 1066 1043 766 
Q 1303 466 1694 466 
Q 2081 466 2343 764 
Q 2606 1063 2606 1700 
Q 2606 2309 2336 2618 
Q 2066 2928 1684 2928 
Q 1309 2928 1046 2623 
Q 784 2319 784 1719 
z
" transform="scale(0.015625)"/>
       <path id="ArialMT-73" d="M 197 991 
L 753 1078 
Q 800 744 1014 566 
Q 1228 388 1613 388 
Q 2000 388 2187 545 
Q 2375 703 2375 916 
Q 2375 1106 2209 1216 
Q 2094 1291 1634 1406 
Q 1016 1563 777 1677 
Q 538 1791 414 1992 
Q 291 2194 291 2438 
Q 291 2659 392 2848 
Q 494 3038 669 3163 
Q 800 3259 1026 3326 
Q 1253 3394 1513 3394 
Q 1903 3394 2198 3281 
Q 2494 3169 2634 2976 
Q 2775 2784 2828 2463 
L 2278 2388 
Q 2241 2644 2061 2787 
Q 1881 2931 1553 2931 
Q 1166 2931 1000 2803 
Q 834 2675 834 2503 
Q 834 2394 903 2306 
Q 972 2216 1119 2156 
Q 1203 2125 1616 2013 
Q 2213 1853 2448 1751 
Q 2684 1650 2818 1456 
Q 2953 1263 2953 975 
Q 2953 694 2789 445 
Q 2625 197 2315 61 
Q 2006 -75 1616 -75 
Q 969 -75 630 194 
Q 291 463 197 991 
z
" transform="scale(0.015625)"/>
       <path id="ArialMT-28" d="M 1497 -1347 
Q 1031 -759 709 28 
Q 388 816 388 1659 
Q 388 2403 628 3084 
Q 909 3875 1497 4659 
L 1900 4659 
Q 1522 4009 1400 3731 
Q 1209 3300 1100 2831 
Q 966 2247 966 1656 
Q 966 153 1900 -1347 
L 1497 -1347 
z
" transform="scale(0.015625)"/>
       <path id="ArialMT-66" d="M 556 0 
L 556 2881 
L 59 2881 
L 59 3319 
L 556 3319 
L 556 3672 
Q 556 4006 616 4169 
Q 697 4388 901 4523 
Q 1106 4659 1475 4659 
Q 1713 4659 2000 4603 
L 1916 4113 
Q 1741 4144 1584 4144 
Q 1328 4144 1222 4034 
Q 1116 3925 1116 3625 
L 1116 3319 
L 1763 3319 
L 1763 2881 
L 1116 2881 
L 1116 0 
L 556 0 
z
" transform="scale(0.015625)"/>
       <path id="ArialMT-63" d="M 2588 1216 
L 3141 1144 
Q 3050 572 2676 248 
Q 2303 -75 1759 -75 
Q 1078 -75 664 370 
Q 250 816 250 1647 
Q 250 2184 428 2587 
Q 606 2991 970 3192 
Q 1334 3394 1763 3394 
Q 2303 3394 2647 3120 
Q 2991 2847 3088 2344 
L 2541 2259 
Q 2463 2594 2264 2762 
Q 2066 2931 1784 2931 
Q 1359 2931 1093 2626 
Q 828 2322 828 1663 
Q 828 994 1084 691 
Q 1341 388 1753 388 
Q 2084 388 2306 591 
Q 2528 794 2588 1216 
z
" transform="scale(0.015625)"/>
       <path id="ArialMT-74" d="M 1650 503 
L 1731 6 
Q 1494 -44 1306 -44 
Q 1000 -44 831 53 
Q 663 150 594 308 
Q 525 466 525 972 
L 525 2881 
L 113 2881 
L 113 3319 
L 525 3319 
L 525 4141 
L 1084 4478 
L 1084 3319 
L 1650 3319 
L 1650 2881 
L 1084 2881 
L 1084 941 
Q 1084 700 1114 631 
Q 1144 563 1211 522 
Q 1278 481 1403 481 
Q 1497 481 1650 503 
z
" transform="scale(0.015625)"/>
       <path id="ArialMT-69" d="M 425 3934 
L 425 4581 
L 988 4581 
L 988 3934 
L 425 3934 
z
M 425 0 
L 425 3319 
L 988 3319 
L 988 0 
L 425 0 
z
" transform="scale(0.015625)"/>
       <path id="ArialMT-7a" d="M 125 0 
L 125 456 
L 2238 2881 
Q 1878 2863 1603 2863 
L 250 2863 
L 250 3319 
L 2963 3319 
L 2963 2947 
L 1166 841 
L 819 456 
Q 1197 484 1528 484 
L 3063 484 
L 3063 0 
L 125 0 
z
" transform="scale(0.015625)"/>
       <path id="ArialMT-29" d="M 791 -1347 
L 388 -1347 
Q 1322 153 1322 1656 
Q 1322 2244 1188 2822 
Q 1081 3291 891 3722 
Q 769 4003 388 4659 
L 791 4659 
Q 1378 3875 1659 3084 
Q 1900 2403 1900 1659 
Q 1900 816 1576 28 
Q 1253 -759 791 -1347 
z
" transform="scale(0.015625)"/>
      </defs>
      <use xlink:href="#ArialMT-23"/>
      <use xlink:href="#ArialMT-20" x="55.615234"/>
      <use xlink:href="#ArialMT-61" x="83.398438"/>
      <use xlink:href="#ArialMT-64" x="139.013672"/>
      <use xlink:href="#ArialMT-64" x="194.628906"/>
      <use xlink:href="#ArialMT-65" x="250.244141"/>
      <use xlink:href="#ArialMT-64" x="305.859375"/>
      <use xlink:href="#ArialMT-20" x="361.474609"/>
      <use xlink:href="#ArialMT-65" x="389.257812"/>
      <use xlink:href="#ArialMT-64" x="444.873047"/>
      <use xlink:href="#ArialMT-67" x="500.488281"/>
      <use xlink:href="#ArialMT-65" x="556.103516"/>
      <use xlink:href="#ArialMT-73" x="611.71875"/>
      <use xlink:href="#ArialMT-20" x="661.71875"/>
      <use xlink:href="#ArialMT-28" x="689.501953"/>
      <use xlink:href="#ArialMT-65" x="722.802734"/>
      <use xlink:href="#ArialMT-66" x="778.417969"/>
      <use xlink:href="#ArialMT-66" x="804.451172"/>
      <use xlink:href="#ArialMT-65" x="832.234375"/>
      <use xlink:href="#ArialMT-63" x="887.849609"/>
      <use xlink:href="#ArialMT-74" x="937.849609"/>
      <use xlink:href="#ArialMT-20" x="965.632812"/>
      <use xlink:href="#ArialMT-73" x="993.416016"/>
      <use xlink:href="#ArialMT-69" x="1043.416016"/>
      <use xlink:href="#ArialMT-7a" x="1065.632812"/>
      <use xlink:href="#ArialMT-65" x="1115.632812"/>
      <use xlink:href="#ArialMT-29" x="1171.248047"/>
     </g>
    </g>
   </g>
   <g id="matplotlib.axis_2">
    <g id="ytick_1">
     <g id="line2d_8">
      <defs>
       <path id="mf5bbc6bfb4" d="M 0 0 
L -5 0 
" style="stroke: #000000; stroke-width: 1.875"/>
      </defs>
      <g>
       <use xlink:href="#mf5bbc6bfb4" x="92.387109" y="314.934545" style="stroke: #000000; stroke-width: 1.875"/>
      </g>
     </g>
     <g id="text_8">
      <!-- 0.0 -->
      <g transform="translate(55.218359 322.31604)scale(0.20625 -0.20625)">
       <defs>
        <path id="ArialMT-2e" d="M 581 0 
L 581 641 
L 1222 641 
L 1222 0 
L 581 0 
z
" transform="scale(0.015625)"/>
       </defs>
       <use xlink:href="#ArialMT-30"/>
       <use xlink:href="#ArialMT-2e" x="55.615234"/>
       <use xlink:href="#ArialMT-30" x="83.398438"/>
      </g>
     </g>
    </g>
    <g id="ytick_2">
     <g id="line2d_9">
      <g>
       <use xlink:href="#mf5bbc6bfb4" x="92.387109" y="255.632727" style="stroke: #000000; stroke-width: 1.875"/>
      </g>
     </g>
     <g id="text_9">
      <!-- 0.2 -->
      <g transform="translate(55.218359 263.014221)scale(0.20625 -0.20625)">
       <use xlink:href="#ArialMT-30"/>
       <use xlink:href="#ArialMT-2e" x="55.615234"/>
       <use xlink:href="#ArialMT-32" x="83.398438"/>
      </g>
     </g>
    </g>
    <g id="ytick_3">
     <g id="line2d_10">
      <g>
       <use xlink:href="#mf5bbc6bfb4" x="92.387109" y="196.330909" style="stroke: #000000; stroke-width: 1.875"/>
      </g>
     </g>
     <g id="text_10">
      <!-- 0.4 -->
      <g transform="translate(55.218359 203.712403)scale(0.20625 -0.20625)">
       <use xlink:href="#ArialMT-30"/>
       <use xlink:href="#ArialMT-2e" x="55.615234"/>
       <use xlink:href="#ArialMT-34" x="83.398438"/>
      </g>
     </g>
    </g>
    <g id="ytick_4">
     <g id="line2d_11">
      <g>
       <use xlink:href="#mf5bbc6bfb4" x="92.387109" y="137.029091" style="stroke: #000000; stroke-width: 1.875"/>
      </g>
     </g>
     <g id="text_11">
      <!-- 0.6 -->
      <g transform="translate(55.218359 144.410585)scale(0.20625 -0.20625)">
       <defs>
        <path id="ArialMT-36" d="M 3184 3459 
L 2625 3416 
Q 2550 3747 2413 3897 
Q 2184 4138 1850 4138 
Q 1581 4138 1378 3988 
Q 1113 3794 959 3422 
Q 806 3050 800 2363 
Q 1003 2672 1297 2822 
Q 1591 2972 1913 2972 
Q 2475 2972 2870 2558 
Q 3266 2144 3266 1488 
Q 3266 1056 3080 686 
Q 2894 316 2569 119 
Q 2244 -78 1831 -78 
Q 1128 -78 684 439 
Q 241 956 241 2144 
Q 241 3472 731 4075 
Q 1159 4600 1884 4600 
Q 2425 4600 2770 4297 
Q 3116 3994 3184 3459 
z
M 888 1484 
Q 888 1194 1011 928 
Q 1134 663 1356 523 
Q 1578 384 1822 384 
Q 2178 384 2434 671 
Q 2691 959 2691 1453 
Q 2691 1928 2437 2201 
Q 2184 2475 1800 2475 
Q 1419 2475 1153 2201 
Q 888 1928 888 1484 
z
" transform="scale(0.015625)"/>
       </defs>
       <use xlink:href="#ArialMT-30"/>
       <use xlink:href="#ArialMT-2e" x="55.615234"/>
       <use xlink:href="#ArialMT-36" x="83.398438"/>
      </g>
     </g>
    </g>
    <g id="ytick_5">
     <g id="line2d_12">
      <g>
       <use xlink:href="#mf5bbc6bfb4" x="92.387109" y="77.727273" style="stroke: #000000; stroke-width: 1.875"/>
      </g>
     </g>
     <g id="text_12">
      <!-- 0.8 -->
      <g transform="translate(55.218359 85.108767)scale(0.20625 -0.20625)">
       <defs>
        <path id="ArialMT-38" d="M 1131 2484 
Q 781 2613 612 2850 
Q 444 3088 444 3419 
Q 444 3919 803 4259 
Q 1163 4600 1759 4600 
Q 2359 4600 2725 4251 
Q 3091 3903 3091 3403 
Q 3091 3084 2923 2848 
Q 2756 2613 2416 2484 
Q 2838 2347 3058 2040 
Q 3278 1734 3278 1309 
Q 3278 722 2862 322 
Q 2447 -78 1769 -78 
Q 1091 -78 675 323 
Q 259 725 259 1325 
Q 259 1772 486 2073 
Q 713 2375 1131 2484 
z
M 1019 3438 
Q 1019 3113 1228 2906 
Q 1438 2700 1772 2700 
Q 2097 2700 2305 2904 
Q 2513 3109 2513 3406 
Q 2513 3716 2298 3927 
Q 2084 4138 1766 4138 
Q 1444 4138 1231 3931 
Q 1019 3725 1019 3438 
z
M 838 1322 
Q 838 1081 952 856 
Q 1066 631 1291 507 
Q 1516 384 1775 384 
Q 2178 384 2440 643 
Q 2703 903 2703 1303 
Q 2703 1709 2433 1975 
Q 2163 2241 1756 2241 
Q 1359 2241 1098 1978 
Q 838 1716 838 1322 
z
" transform="scale(0.015625)"/>
       </defs>
       <use xlink:href="#ArialMT-30"/>
       <use xlink:href="#ArialMT-2e" x="55.615234"/>
       <use xlink:href="#ArialMT-38" x="83.398438"/>
      </g>
     </g>
    </g>
    <g id="ytick_6">
     <g id="line2d_13">
      <g>
       <use xlink:href="#mf5bbc6bfb4" x="92.387109" y="18.425455" style="stroke: #000000; stroke-width: 1.875"/>
      </g>
     </g>
     <g id="text_13">
      <!-- 1.0 -->
      <g transform="translate(55.218359 25.806949)scale(0.20625 -0.20625)">
       <use xlink:href="#ArialMT-31"/>
       <use xlink:href="#ArialMT-2e" x="55.615234"/>
       <use xlink:href="#ArialMT-30" x="83.398438"/>
      </g>
     </g>
    </g>
    <g id="text_14">
     <!-- p-value -->
     <g transform="translate(46.746484 203.574727)rotate(-90)scale(0.225 -0.225)">
      <defs>
       <path id="ArialMT-70" d="M 422 -1272 
L 422 3319 
L 934 3319 
L 934 2888 
Q 1116 3141 1344 3267 
Q 1572 3394 1897 3394 
Q 2322 3394 2647 3175 
Q 2972 2956 3137 2557 
Q 3303 2159 3303 1684 
Q 3303 1175 3120 767 
Q 2938 359 2589 142 
Q 2241 -75 1856 -75 
Q 1575 -75 1351 44 
Q 1128 163 984 344 
L 984 -1272 
L 422 -1272 
z
M 931 1641 
Q 931 1000 1190 694 
Q 1450 388 1819 388 
Q 2194 388 2461 705 
Q 2728 1022 2728 1688 
Q 2728 2322 2467 2637 
Q 2206 2953 1844 2953 
Q 1484 2953 1207 2617 
Q 931 2281 931 1641 
z
" transform="scale(0.015625)"/>
       <path id="ArialMT-2d" d="M 203 1375 
L 203 1941 
L 1931 1941 
L 1931 1375 
L 203 1375 
z
" transform="scale(0.015625)"/>
       <path id="ArialMT-76" d="M 1344 0 
L 81 3319 
L 675 3319 
L 1388 1331 
Q 1503 1009 1600 663 
Q 1675 925 1809 1294 
L 2547 3319 
L 3125 3319 
L 1869 0 
L 1344 0 
z
" transform="scale(0.015625)"/>
       <path id="ArialMT-6c" d="M 409 0 
L 409 4581 
L 972 4581 
L 972 0 
L 409 0 
z
" transform="scale(0.015625)"/>
       <path id="ArialMT-75" d="M 2597 0 
L 2597 488 
Q 2209 -75 1544 -75 
Q 1250 -75 995 37 
Q 741 150 617 320 
Q 494 491 444 738 
Q 409 903 409 1263 
L 409 3319 
L 972 3319 
L 972 1478 
Q 972 1038 1006 884 
Q 1059 663 1231 536 
Q 1403 409 1656 409 
Q 1909 409 2131 539 
Q 2353 669 2445 892 
Q 2538 1116 2538 1541 
L 2538 3319 
L 3100 3319 
L 3100 0 
L 2597 0 
z
" transform="scale(0.015625)"/>
      </defs>
      <use xlink:href="#ArialMT-70"/>
      <use xlink:href="#ArialMT-2d" x="55.615234"/>
      <use xlink:href="#ArialMT-76" x="88.916016"/>
      <use xlink:href="#ArialMT-61" x="138.916016"/>
      <use xlink:href="#ArialMT-6c" x="194.53125"/>
      <use xlink:href="#ArialMT-75" x="216.748047"/>
      <use xlink:href="#ArialMT-65" x="272.363281"/>
     </g>
    </g>
   </g>
   <g id="PolyCollection_1">
    <defs>
     <path id="m132f7922a5" d="M 112.678018 -378.411596 
L 112.678018 -378.411596 
L 120.794382 -366.972915 
L 128.910746 -355.743602 
L 137.027109 -344.531318 
L 145.143473 -332.704781 
L 153.259837 -322.1549 
L 161.3762 -311.173578 
L 169.492564 -298.692271 
L 177.608928 -289.94565 
L 185.725291 -279.331793 
L 193.841655 -269.008698 
L 201.958018 -259.874343 
L 210.074382 -249.634193 
L 218.190746 -240.707842 
L 226.307109 -229.933069 
L 234.423473 -224.67094 
L 242.539837 -213.616717 
L 250.6562 -206.114076 
L 258.772564 -196.593121 
L 266.888928 -191.06005 
L 275.005291 -184.960642 
L 283.121655 -175.456611 
L 291.238018 -169.973197 
L 299.354382 -162.392923 
L 307.470746 -158.459626 
L 315.587109 -150.790683 
L 323.703473 -145.702689 
L 331.819837 -139.759963 
L 339.9362 -137.498825 
L 348.052564 -132.807552 
L 356.168928 -128.921596 
L 364.285291 -124.02168 
L 372.401655 -121.865787 
L 380.518018 -117.08795 
L 388.634382 -112.820518 
L 396.750746 -110.834858 
L 404.867109 -111.428743 
L 412.983473 -106.20512 
L 421.099837 -104.305856 
L 429.2162 -103.464529 
L 437.332564 -101.019168 
L 445.448928 -99.272379 
L 453.565291 -96.06534 
L 461.681655 -95.447698 
L 469.798018 -92.782071 
L 477.914382 -92.819801 
L 486.030746 -91.411796 
L 494.147109 -90.696809 
L 502.263473 -89.303077 
L 510.379837 -89.172167 
L 518.4962 -87.636052 
L 518.4962 -89.036384 
L 518.4962 -89.036384 
L 510.379837 -90.050624 
L 502.263473 -90.370406 
L 494.147109 -91.390966 
L 486.030746 -92.415737 
L 477.914382 -94.238009 
L 469.798018 -95.175513 
L 461.681655 -97.075449 
L 453.565291 -97.563722 
L 445.448928 -101.167138 
L 437.332564 -102.121903 
L 429.2162 -105.115622 
L 421.099837 -107.172089 
L 412.983473 -109.259853 
L 404.867109 -114.100076 
L 396.750746 -115.384823 
L 388.634382 -116.090343 
L 380.518018 -119.862685 
L 372.401655 -123.726017 
L 364.285291 -126.885199 
L 356.168928 -131.934835 
L 348.052564 -135.61087 
L 339.9362 -140.973408 
L 331.819837 -143.964362 
L 323.703473 -150.890487 
L 315.587109 -155.594149 
L 307.470746 -162.178756 
L 299.354382 -166.281774 
L 291.238018 -174.249241 
L 283.121655 -179.499807 
L 275.005291 -188.502095 
L 266.888928 -195.13332 
L 258.772564 -201.663592 
L 250.6562 -210.915038 
L 242.539837 -217.262391 
L 234.423473 -228.006646 
L 226.307109 -233.966625 
L 218.190746 -243.447906 
L 210.074382 -252.414543 
L 201.958018 -264.406474 
L 193.841655 -272.115266 
L 185.725291 -282.59365 
L 177.608928 -293.059715 
L 169.492564 -301.659228 
L 161.3762 -313.203076 
L 153.259837 -323.70714 
L 145.143473 -334.531754 
L 137.027109 -345.76815 
L 128.910746 -356.324888 
L 120.794382 -367.257552 
L 112.678018 -378.411596 
z
" style="stroke: #1f77b4; stroke-opacity: 0.2; stroke-width: 1.5"/>
    </defs>
    <g clip-path="url(#pe094195fda)">
     <use xlink:href="#m132f7922a5" x="0" y="396.837051" style="fill: #1f77b4; fill-opacity: 0.2; stroke: #1f77b4; stroke-opacity: 0.2; stroke-width: 1.5"/>
    </g>
   </g>
   <g id="PolyCollection_2">
    <defs>
     <path id="m43f82bd41c" d="M 112.678018 -378.411596 
L 112.678018 -378.411596 
L 120.794382 -378.411596 
L 128.910746 -230.157051 
L 137.027109 -156.029778 
L 145.143473 -118.966142 
L 153.259837 -100.434324 
L 161.3762 -91.168414 
L 169.492564 -86.53546 
L 177.608928 -84.218983 
L 185.725291 -83.060744 
L 193.841655 -82.481625 
L 201.958018 -82.192065 
L 210.074382 -82.047285 
L 218.190746 -81.974895 
L 226.307109 -81.9387 
L 234.423473 -81.920603 
L 242.539837 -81.911554 
L 250.6562 -81.90703 
L 258.772564 -81.904768 
L 266.888928 -81.903636 
L 275.005291 -81.903071 
L 283.121655 -81.902788 
L 291.238018 -81.902647 
L 299.354382 -81.902576 
L 307.470746 -81.902541 
L 315.587109 -81.902523 
L 323.703473 -81.902514 
L 331.819837 -81.90251 
L 339.9362 -81.902508 
L 348.052564 -81.902506 
L 356.168928 -81.902506 
L 364.285291 -81.902506 
L 372.401655 -81.902505 
L 380.518018 -81.902505 
L 388.634382 -81.902505 
L 396.750746 -81.902505 
L 404.867109 -81.902505 
L 412.983473 -81.902505 
L 421.099837 -81.902505 
L 429.2162 -81.902505 
L 437.332564 -81.902505 
L 445.448928 -81.902505 
L 453.565291 -81.902505 
L 461.681655 -81.902505 
L 469.798018 -81.902505 
L 477.914382 -81.902505 
L 486.030746 -81.902505 
L 494.147109 -81.902505 
L 502.263473 -81.902505 
L 510.379837 -81.902505 
L 518.4962 -81.902505 
L 518.4962 -81.902505 
L 518.4962 -81.902505 
L 510.379837 -81.902505 
L 502.263473 -81.902505 
L 494.147109 -81.902505 
L 486.030746 -81.902505 
L 477.914382 -81.902505 
L 469.798018 -81.902505 
L 461.681655 -81.902505 
L 453.565291 -81.902505 
L 445.448928 -81.902505 
L 437.332564 -81.902505 
L 429.2162 -81.902505 
L 421.099837 -81.902505 
L 412.983473 -81.902505 
L 404.867109 -81.902505 
L 396.750746 -81.902505 
L 388.634382 -81.902505 
L 380.518018 -81.902505 
L 372.401655 -81.902505 
L 364.285291 -81.902506 
L 356.168928 -81.902506 
L 348.052564 -81.902506 
L 339.9362 -81.902508 
L 331.819837 -81.90251 
L 323.703473 -81.902514 
L 315.587109 -81.902523 
L 307.470746 -81.902541 
L 299.354382 -81.902576 
L 291.238018 -81.902647 
L 283.121655 -81.902788 
L 275.005291 -81.903071 
L 266.888928 -81.903636 
L 258.772564 -81.904768 
L 250.6562 -81.90703 
L 242.539837 -81.911554 
L 234.423473 -81.920603 
L 226.307109 -81.9387 
L 218.190746 -81.974895 
L 210.074382 -82.047285 
L 201.958018 -82.192065 
L 193.841655 -82.481625 
L 185.725291 -83.060744 
L 177.608928 -84.218983 
L 169.492564 -86.53546 
L 161.3762 -91.168414 
L 153.259837 -100.434324 
L 145.143473 -118.966142 
L 137.027109 -156.029778 
L 128.910746 -230.157051 
L 120.794382 -378.411596 
L 112.678018 -378.411596 
z
" style="stroke: #ff7f0e; stroke-opacity: 0.2; stroke-width: 1.5"/>
    </defs>
    <g clip-path="url(#pe094195fda)">
     <use xlink:href="#m43f82bd41c" x="0" y="396.837051" style="fill: #ff7f0e; fill-opacity: 0.2; stroke: #ff7f0e; stroke-opacity: 0.2; stroke-width: 1.5"/>
    </g>
   </g>
   <g id="PolyCollection_3">
    <defs>
     <path id="m0c0c144dde" d="M 112.678018 -378.411596 
L 112.678018 -378.411596 
L 120.794382 -378.411596 
L 128.910746 -230.157051 
L 137.027109 -156.029778 
L 145.143473 -118.966142 
L 153.259837 -100.434324 
L 161.3762 -91.168414 
L 169.492564 -86.53546 
L 177.608928 -84.218983 
L 185.725291 -83.060744 
L 193.841655 -82.481625 
L 201.958018 -82.192065 
L 210.074382 -82.047285 
L 218.190746 -81.974895 
L 226.307109 -81.9387 
L 234.423473 -81.920603 
L 242.539837 -81.911554 
L 250.6562 -81.90703 
L 258.772564 -81.904768 
L 266.888928 -81.903636 
L 275.005291 -81.903071 
L 283.121655 -81.902788 
L 291.238018 -81.902647 
L 299.354382 -81.902576 
L 307.470746 -81.902541 
L 315.587109 -81.902523 
L 323.703473 -81.902514 
L 331.819837 -81.90251 
L 339.9362 -81.902508 
L 348.052564 -81.902506 
L 356.168928 -81.902506 
L 364.285291 -81.902506 
L 372.401655 -81.902505 
L 380.518018 -81.902505 
L 388.634382 -81.902505 
L 396.750746 -81.902505 
L 404.867109 -81.902505 
L 412.983473 -81.902505 
L 421.099837 -81.902505 
L 429.2162 -81.902505 
L 437.332564 -81.902505 
L 445.448928 -81.902505 
L 453.565291 -81.902505 
L 461.681655 -81.902505 
L 469.798018 -81.902505 
L 477.914382 -81.902505 
L 486.030746 -81.902505 
L 494.147109 -81.902505 
L 502.263473 -81.902505 
L 510.379837 -81.902505 
L 518.4962 -81.902505 
L 518.4962 -81.902505 
L 518.4962 -81.902505 
L 510.379837 -81.902505 
L 502.263473 -81.902505 
L 494.147109 -81.902505 
L 486.030746 -81.902505 
L 477.914382 -81.902505 
L 469.798018 -81.902505 
L 461.681655 -81.902505 
L 453.565291 -81.902505 
L 445.448928 -81.902505 
L 437.332564 -81.902505 
L 429.2162 -81.902505 
L 421.099837 -81.902505 
L 412.983473 -81.902505 
L 404.867109 -81.902505 
L 396.750746 -81.902505 
L 388.634382 -81.902505 
L 380.518018 -81.902505 
L 372.401655 -81.902505 
L 364.285291 -81.902506 
L 356.168928 -81.902506 
L 348.052564 -81.902506 
L 339.9362 -81.902508 
L 331.819837 -81.90251 
L 323.703473 -81.902514 
L 315.587109 -81.902523 
L 307.470746 -81.902541 
L 299.354382 -81.902576 
L 291.238018 -81.902647 
L 283.121655 -81.902788 
L 275.005291 -81.903071 
L 266.888928 -81.903636 
L 258.772564 -81.904768 
L 250.6562 -81.90703 
L 242.539837 -81.911554 
L 234.423473 -81.920603 
L 226.307109 -81.9387 
L 218.190746 -81.974895 
L 210.074382 -82.047285 
L 201.958018 -82.192065 
L 193.841655 -82.481625 
L 185.725291 -83.060744 
L 177.608928 -84.218983 
L 169.492564 -86.53546 
L 161.3762 -91.168414 
L 153.259837 -100.434324 
L 145.143473 -118.966142 
L 137.027109 -156.029778 
L 128.910746 -230.157051 
L 120.794382 -378.411596 
L 112.678018 -378.411596 
z
" style="stroke: #2ca02c; stroke-opacity: 0.2; stroke-width: 1.5"/>
    </defs>
    <g clip-path="url(#pe094195fda)">
     <use xlink:href="#m0c0c144dde" x="0" y="396.837051" style="fill: #2ca02c; fill-opacity: 0.2; stroke: #2ca02c; stroke-opacity: 0.2; stroke-width: 1.5"/>
    </g>
   </g>
   <g id="line2d_14">
    <path d="M 112.678018 18.425455 
L 120.794382 29.712458 
L 128.910746 40.802606 
L 137.027109 51.736131 
L 145.143473 63.163118 
L 153.259837 73.880376 
L 161.3762 84.672071 
L 169.492564 96.479328 
L 177.608928 105.333514 
L 185.725291 115.853197 
L 193.841655 126.252256 
L 201.958018 134.771627 
L 210.074382 145.658678 
L 218.190746 154.695384 
L 226.307109 164.695189 
L 234.423473 170.443795 
L 242.539837 181.464831 
L 250.6562 188.150734 
L 258.772564 197.883206 
L 266.888928 203.774026 
L 275.005291 210.040028 
L 283.121655 219.284439 
L 291.238018 224.750451 
L 299.354382 232.429741 
L 307.470746 236.606303 
L 315.587109 243.398665 
L 323.703473 248.681174 
L 331.819837 254.935932 
L 339.9362 257.560402 
L 348.052564 262.572814 
L 356.168928 266.354879 
L 364.285291 271.353011 
L 372.401655 273.975385 
L 380.518018 278.41533 
L 388.634382 282.336125 
L 396.750746 283.557584 
L 404.867109 283.970533 
L 412.983473 289.15849 
L 421.099837 291.150345 
L 429.2162 292.61645 
L 437.332564 295.246962 
L 445.448928 296.628649 
L 453.565291 300.03442 
L 461.681655 300.609086 
L 469.798018 302.930924 
L 477.914382 303.228235 
L 486.030746 304.885354 
L 494.147109 305.851611 
L 502.263473 307.002563 
L 510.379837 307.202256 
L 518.4962 308.494174 
" clip-path="url(#pe094195fda)" style="fill: none; stroke: #1f77b4; stroke-width: 2.25; stroke-linecap: round"/>
   </g>
   <g id="line2d_15">
    <path d="M 112.678018 18.425455 
L 120.794382 18.425455 
L 128.910746 166.68 
L 137.027109 240.807273 
L 145.143473 277.870909 
L 153.259837 296.402727 
L 161.3762 305.668636 
L 169.492564 310.301591 
L 177.608928 312.618068 
L 185.725291 313.776307 
L 193.841655 314.355426 
L 201.958018 314.644986 
L 210.074382 314.789766 
L 218.190746 314.862156 
L 226.307109 314.89835 
L 234.423473 314.916448 
L 242.539837 314.925497 
L 250.6562 314.930021 
L 258.772564 314.932283 
L 266.888928 314.933414 
L 275.005291 314.93398 
L 283.121655 314.934263 
L 291.238018 314.934404 
L 299.354382 314.934475 
L 307.470746 314.93451 
L 315.587109 314.934528 
L 323.703473 314.934537 
L 331.819837 314.934541 
L 339.9362 314.934543 
L 348.052564 314.934544 
L 356.168928 314.934545 
L 364.285291 314.934545 
L 372.401655 314.934545 
L 380.518018 314.934545 
L 388.634382 314.934545 
L 396.750746 314.934545 
L 404.867109 314.934545 
L 412.983473 314.934545 
L 421.099837 314.934545 
L 429.2162 314.934545 
L 437.332564 314.934545 
L 445.448928 314.934545 
L 453.565291 314.934545 
L 461.681655 314.934545 
L 469.798018 314.934545 
L 477.914382 314.934545 
L 486.030746 314.934545 
L 494.147109 314.934545 
L 502.263473 314.934545 
L 510.379837 314.934545 
L 518.4962 314.934545 
" clip-path="url(#pe094195fda)" style="fill: none; stroke: #ff7f0e; stroke-width: 2.25; stroke-linecap: round"/>
   </g>
   <g id="line2d_16">
    <path d="M 112.678018 18.425455 
L 120.794382 18.425455 
L 128.910746 166.68 
L 137.027109 240.807273 
L 145.143473 277.870909 
L 153.259837 296.402727 
L 161.3762 305.668636 
L 169.492564 310.301591 
L 177.608928 312.618068 
L 185.725291 313.776307 
L 193.841655 314.355426 
L 201.958018 314.644986 
L 210.074382 314.789766 
L 218.190746 314.862156 
L 226.307109 314.89835 
L 234.423473 314.916448 
L 242.539837 314.925497 
L 250.6562 314.930021 
L 258.772564 314.932283 
L 266.888928 314.933414 
L 275.005291 314.93398 
L 283.121655 314.934263 
L 291.238018 314.934404 
L 299.354382 314.934475 
L 307.470746 314.93451 
L 315.587109 314.934528 
L 323.703473 314.934537 
L 331.819837 314.934541 
L 339.9362 314.934543 
L 348.052564 314.934544 
L 356.168928 314.934545 
L 364.285291 314.934545 
L 372.401655 314.934545 
L 380.518018 314.934545 
L 388.634382 314.934545 
L 396.750746 314.934545 
L 404.867109 314.934545 
L 412.983473 314.934545 
L 421.099837 314.934545 
L 429.2162 314.934545 
L 437.332564 314.934545 
L 445.448928 314.934545 
L 453.565291 314.934545 
L 461.681655 314.934545 
L 469.798018 314.934545 
L 477.914382 314.934545 
L 486.030746 314.934545 
L 494.147109 314.934545 
L 502.263473 314.934545 
L 510.379837 314.934545 
L 518.4962 314.934545 
" clip-path="url(#pe094195fda)" style="fill: none; stroke-dasharray: 4.5,4.5; stroke-dashoffset: 0; stroke: #2ca02c; stroke-width: 2.25"/>
   </g>
   <g id="line2d_17"/>
   <g id="line2d_18"/>
   <g id="line2d_19"/>
   <g id="line2d_20">
    <path d="M 461.681655 329.76 
L 461.681655 298.7748 
" clip-path="url(#pe094195fda)" style="fill: none; stroke-dasharray: 3,4.95; stroke-dashoffset: 0; stroke: #1f77b4; stroke-width: 3"/>
   </g>
   <g id="line2d_21">
    <path d="M 161.3762 329.76 
L 161.3762 298.7748 
" clip-path="url(#pe094195fda)" style="fill: none; stroke-dasharray: 3,4.95; stroke-dashoffset: 0; stroke: #ff7f0e; stroke-width: 3"/>
   </g>
   <g id="line2d_22">
    <path d="M 161.3762 329.76 
L 161.3762 298.7748 
" clip-path="url(#pe094195fda)" style="fill: none; stroke-dasharray: 3,4.95; stroke-dashoffset: 0; stroke: #2ca02c; stroke-width: 3"/>
   </g>
   <g id="patch_3">
    <path d="M 92.387109 329.76 
L 92.387109 3.6 
" style="fill: none; stroke: #000000; stroke-width: 1.875; stroke-linejoin: miter; stroke-linecap: square"/>
   </g>
   <g id="patch_4">
    <path d="M 92.387109 329.76 
L 538.787109 329.76 
" style="fill: none; stroke: #000000; stroke-width: 1.875; stroke-linejoin: miter; stroke-linecap: square"/>
   </g>
   <g id="patch_5">
    <path d="M 51.298394 287.322696 
Q 70.888513 293.418944 90.478631 299.515192 
" style="fill: none; stroke: #000000; stroke-width: 1.5; stroke-linecap: round"/>
   </g>
   <g id="text_15">
    <!-- 0.05 -->
    <g transform="translate(3.6 285.109091)scale(0.225 -0.225)">
     <use xlink:href="#ArialMT-30"/>
     <use xlink:href="#ArialMT-2e" x="55.615234"/>
     <use xlink:href="#ArialMT-30" x="83.398438"/>
     <use xlink:href="#ArialMT-35" x="139.013672"/>
    </g>
   </g>
   <g id="patch_6">
    <path d="M 466.822642 344.763148 
Q 464.576598 338.208428 462.330554 331.653708 
" style="fill: none; stroke: #1f77b4; stroke-width: 1.5; stroke-linecap: round"/>
   </g>
   <g id="text_16">
    <!-- 43 -->
    <g style="fill: #1f77b4" transform="translate(459.169545 364.76)scale(0.225 -0.225)">
     <use xlink:href="#ArialMT-34"/>
     <use xlink:href="#ArialMT-33" x="55.615234"/>
    </g>
   </g>
   <g id="patch_7">
    <path d="M 156.235213 344.763148 
Q 158.481257 338.208428 160.727301 331.653708 
" style="fill: none; stroke: #ff7f0e; stroke-width: 1.5; stroke-linecap: round"/>
   </g>
   <g id="text_17">
    <!-- 6 -->
    <g style="fill: #ff7f0e" transform="translate(145.120146 364.76)scale(0.225 -0.225)">
     <use xlink:href="#ArialMT-36"/>
    </g>
   </g>
   <g id="patch_8">
    <path d="M 166.517188 344.763148 
Q 164.271143 338.208428 162.025099 331.653708 
" style="fill: none; stroke: #2ca02c; stroke-width: 1.5; stroke-linecap: round"/>
   </g>
   <g id="text_18">
    <!-- 6 -->
    <g style="fill: #2ca02c" transform="translate(165.120146 364.76)scale(0.225 -0.225)">
     <use xlink:href="#ArialMT-36"/>
    </g>
   </g>
   <g id="legend_1">
    <g id="line2d_23">
     <path d="M 194.246484 29.706738 
L 214.871484 29.706738 
L 235.496484 29.706738 
" style="fill: none; stroke: #1f77b4; stroke-width: 2.25; stroke-linecap: round"/>
    </g>
    <g id="text_19">
     <!-- Density test -->
     <g transform="translate(251.996484 36.925488)scale(0.20625 -0.20625)">
      <defs>
       <path id="ArialMT-44" d="M 494 0 
L 494 4581 
L 2072 4581 
Q 2606 4581 2888 4516 
Q 3281 4425 3559 4188 
Q 3922 3881 4101 3404 
Q 4281 2928 4281 2316 
Q 4281 1794 4159 1391 
Q 4038 988 3847 723 
Q 3656 459 3429 307 
Q 3203 156 2883 78 
Q 2563 0 2147 0 
L 494 0 
z
M 1100 541 
L 2078 541 
Q 2531 541 2789 625 
Q 3047 709 3200 863 
Q 3416 1078 3536 1442 
Q 3656 1806 3656 2325 
Q 3656 3044 3420 3430 
Q 3184 3816 2847 3947 
Q 2603 4041 2063 4041 
L 1100 4041 
L 1100 541 
z
" transform="scale(0.015625)"/>
       <path id="ArialMT-6e" d="M 422 0 
L 422 3319 
L 928 3319 
L 928 2847 
Q 1294 3394 1984 3394 
Q 2284 3394 2536 3286 
Q 2788 3178 2913 3003 
Q 3038 2828 3088 2588 
Q 3119 2431 3119 2041 
L 3119 0 
L 2556 0 
L 2556 2019 
Q 2556 2363 2490 2533 
Q 2425 2703 2258 2804 
Q 2091 2906 1866 2906 
Q 1506 2906 1245 2678 
Q 984 2450 984 1813 
L 984 0 
L 422 0 
z
" transform="scale(0.015625)"/>
       <path id="ArialMT-79" d="M 397 -1278 
L 334 -750 
Q 519 -800 656 -800 
Q 844 -800 956 -737 
Q 1069 -675 1141 -563 
Q 1194 -478 1313 -144 
Q 1328 -97 1363 -6 
L 103 3319 
L 709 3319 
L 1400 1397 
Q 1534 1031 1641 628 
Q 1738 1016 1872 1384 
L 2581 3319 
L 3144 3319 
L 1881 -56 
Q 1678 -603 1566 -809 
Q 1416 -1088 1222 -1217 
Q 1028 -1347 759 -1347 
Q 597 -1347 397 -1278 
z
" transform="scale(0.015625)"/>
      </defs>
      <use xlink:href="#ArialMT-44"/>
      <use xlink:href="#ArialMT-65" x="72.216797"/>
      <use xlink:href="#ArialMT-6e" x="127.832031"/>
      <use xlink:href="#ArialMT-73" x="183.447266"/>
      <use xlink:href="#ArialMT-69" x="233.447266"/>
      <use xlink:href="#ArialMT-74" x="255.664062"/>
      <use xlink:href="#ArialMT-79" x="283.447266"/>
      <use xlink:href="#ArialMT-20" x="333.447266"/>
      <use xlink:href="#ArialMT-74" x="361.230469"/>
      <use xlink:href="#ArialMT-65" x="389.013672"/>
      <use xlink:href="#ArialMT-73" x="444.628906"/>
      <use xlink:href="#ArialMT-74" x="494.628906"/>
     </g>
    </g>
    <g id="line2d_24">
     <path d="M 194.246484 59.374512 
L 214.871484 59.374512 
L 235.496484 59.374512 
" style="fill: none; stroke: #ff7f0e; stroke-width: 2.25; stroke-linecap: round"/>
    </g>
    <g id="text_20">
     <!-- Paired density test (oracle) -->
     <g transform="translate(251.996484 66.593262)scale(0.20625 -0.20625)">
      <defs>
       <path id="ArialMT-50" d="M 494 0 
L 494 4581 
L 2222 4581 
Q 2678 4581 2919 4538 
Q 3256 4481 3484 4323 
Q 3713 4166 3852 3881 
Q 3991 3597 3991 3256 
Q 3991 2672 3619 2267 
Q 3247 1863 2275 1863 
L 1100 1863 
L 1100 0 
L 494 0 
z
M 1100 2403 
L 2284 2403 
Q 2872 2403 3119 2622 
Q 3366 2841 3366 3238 
Q 3366 3525 3220 3729 
Q 3075 3934 2838 4000 
Q 2684 4041 2272 4041 
L 1100 4041 
L 1100 2403 
z
" transform="scale(0.015625)"/>
       <path id="ArialMT-72" d="M 416 0 
L 416 3319 
L 922 3319 
L 922 2816 
Q 1116 3169 1280 3281 
Q 1444 3394 1641 3394 
Q 1925 3394 2219 3213 
L 2025 2691 
Q 1819 2813 1613 2813 
Q 1428 2813 1281 2702 
Q 1134 2591 1072 2394 
Q 978 2094 978 1738 
L 978 0 
L 416 0 
z
" transform="scale(0.015625)"/>
       <path id="ArialMT-6f" d="M 213 1659 
Q 213 2581 725 3025 
Q 1153 3394 1769 3394 
Q 2453 3394 2887 2945 
Q 3322 2497 3322 1706 
Q 3322 1066 3130 698 
Q 2938 331 2570 128 
Q 2203 -75 1769 -75 
Q 1072 -75 642 372 
Q 213 819 213 1659 
z
M 791 1659 
Q 791 1022 1069 705 
Q 1347 388 1769 388 
Q 2188 388 2466 706 
Q 2744 1025 2744 1678 
Q 2744 2294 2464 2611 
Q 2184 2928 1769 2928 
Q 1347 2928 1069 2612 
Q 791 2297 791 1659 
z
" transform="scale(0.015625)"/>
      </defs>
      <use xlink:href="#ArialMT-50"/>
      <use xlink:href="#ArialMT-61" x="66.699219"/>
      <use xlink:href="#ArialMT-69" x="122.314453"/>
      <use xlink:href="#ArialMT-72" x="144.53125"/>
      <use xlink:href="#ArialMT-65" x="177.832031"/>
      <use xlink:href="#ArialMT-64" x="233.447266"/>
      <use xlink:href="#ArialMT-20" x="289.0625"/>
      <use xlink:href="#ArialMT-64" x="316.845703"/>
      <use xlink:href="#ArialMT-65" x="372.460938"/>
      <use xlink:href="#ArialMT-6e" x="428.076172"/>
      <use xlink:href="#ArialMT-73" x="483.691406"/>
      <use xlink:href="#ArialMT-69" x="533.691406"/>
      <use xlink:href="#ArialMT-74" x="555.908203"/>
      <use xlink:href="#ArialMT-79" x="583.691406"/>
      <use xlink:href="#ArialMT-20" x="633.691406"/>
      <use xlink:href="#ArialMT-74" x="661.474609"/>
      <use xlink:href="#ArialMT-65" x="689.257812"/>
      <use xlink:href="#ArialMT-73" x="744.873047"/>
      <use xlink:href="#ArialMT-74" x="794.873047"/>
      <use xlink:href="#ArialMT-20" x="822.65625"/>
      <use xlink:href="#ArialMT-28" x="850.439453"/>
      <use xlink:href="#ArialMT-6f" x="883.740234"/>
      <use xlink:href="#ArialMT-72" x="939.355469"/>
      <use xlink:href="#ArialMT-61" x="972.65625"/>
      <use xlink:href="#ArialMT-63" x="1028.271484"/>
      <use xlink:href="#ArialMT-6c" x="1078.271484"/>
      <use xlink:href="#ArialMT-65" x="1100.488281"/>
      <use xlink:href="#ArialMT-29" x="1156.103516"/>
     </g>
    </g>
    <g id="line2d_25">
     <path d="M 194.246484 89.042285 
L 214.871484 89.042285 
L 235.496484 89.042285 
" style="fill: none; stroke-dasharray: 4.5,4.5; stroke-dashoffset: 0; stroke: #2ca02c; stroke-width: 2.25"/>
    </g>
    <g id="text_21">
     <!-- Paired density test (matched) -->
     <g transform="translate(251.996484 96.261035)scale(0.20625 -0.20625)">
      <defs>
       <path id="ArialMT-6d" d="M 422 0 
L 422 3319 
L 925 3319 
L 925 2853 
Q 1081 3097 1340 3245 
Q 1600 3394 1931 3394 
Q 2300 3394 2536 3241 
Q 2772 3088 2869 2813 
Q 3263 3394 3894 3394 
Q 4388 3394 4653 3120 
Q 4919 2847 4919 2278 
L 4919 0 
L 4359 0 
L 4359 2091 
Q 4359 2428 4304 2576 
Q 4250 2725 4106 2815 
Q 3963 2906 3769 2906 
Q 3419 2906 3187 2673 
Q 2956 2441 2956 1928 
L 2956 0 
L 2394 0 
L 2394 2156 
Q 2394 2531 2256 2718 
Q 2119 2906 1806 2906 
Q 1569 2906 1367 2781 
Q 1166 2656 1075 2415 
Q 984 2175 984 1722 
L 984 0 
L 422 0 
z
" transform="scale(0.015625)"/>
       <path id="ArialMT-68" d="M 422 0 
L 422 4581 
L 984 4581 
L 984 2938 
Q 1378 3394 1978 3394 
Q 2347 3394 2619 3248 
Q 2891 3103 3008 2847 
Q 3125 2591 3125 2103 
L 3125 0 
L 2563 0 
L 2563 2103 
Q 2563 2525 2380 2717 
Q 2197 2909 1863 2909 
Q 1613 2909 1392 2779 
Q 1172 2650 1078 2428 
Q 984 2206 984 1816 
L 984 0 
L 422 0 
z
" transform="scale(0.015625)"/>
      </defs>
      <use xlink:href="#ArialMT-50"/>
      <use xlink:href="#ArialMT-61" x="66.699219"/>
      <use xlink:href="#ArialMT-69" x="122.314453"/>
      <use xlink:href="#ArialMT-72" x="144.53125"/>
      <use xlink:href="#ArialMT-65" x="177.832031"/>
      <use xlink:href="#ArialMT-64" x="233.447266"/>
      <use xlink:href="#ArialMT-20" x="289.0625"/>
      <use xlink:href="#ArialMT-64" x="316.845703"/>
      <use xlink:href="#ArialMT-65" x="372.460938"/>
      <use xlink:href="#ArialMT-6e" x="428.076172"/>
      <use xlink:href="#ArialMT-73" x="483.691406"/>
      <use xlink:href="#ArialMT-69" x="533.691406"/>
      <use xlink:href="#ArialMT-74" x="555.908203"/>
      <use xlink:href="#ArialMT-79" x="583.691406"/>
      <use xlink:href="#ArialMT-20" x="633.691406"/>
      <use xlink:href="#ArialMT-74" x="661.474609"/>
      <use xlink:href="#ArialMT-65" x="689.257812"/>
      <use xlink:href="#ArialMT-73" x="744.873047"/>
      <use xlink:href="#ArialMT-74" x="794.873047"/>
      <use xlink:href="#ArialMT-20" x="822.65625"/>
      <use xlink:href="#ArialMT-28" x="850.439453"/>
      <use xlink:href="#ArialMT-6d" x="883.740234"/>
      <use xlink:href="#ArialMT-61" x="967.041016"/>
      <use xlink:href="#ArialMT-74" x="1022.65625"/>
      <use xlink:href="#ArialMT-63" x="1050.439453"/>
      <use xlink:href="#ArialMT-68" x="1100.439453"/>
      <use xlink:href="#ArialMT-65" x="1156.054688"/>
      <use xlink:href="#ArialMT-64" x="1211.669922"/>
      <use xlink:href="#ArialMT-29" x="1267.285156"/>
     </g>
    </g>
   </g>
  </g>
 </g>
 <defs>
  <clipPath id="pe094195fda">
   <rect x="92.387109" y="3.6" width="446.4" height="326.16"/>
  </clipPath>
 </defs>
</svg>
