<?xml version="1.0" encoding="utf-8" standalone="no"?>
<!DOCTYPE svg PUBLIC "-//W3C//DTD SVG 1.1//EN"
  "http://www.w3.org/Graphics/SVG/1.1/DTD/svg11.dtd">
<svg xmlns:xlink="http://www.w3.org/1999/xlink" width="453.6pt" height="333.36pt" viewBox="0 0 453.6 333.36" xmlns="http://www.w3.org/2000/svg" version="1.1">
 <metadata>
  <rdf:RDF xmlns:dc="http://purl.org/dc/elements/1.1/" xmlns:cc="http://creativecommons.org/ns#" xmlns:rdf="http://www.w3.org/1999/02/22-rdf-syntax-ns#">
   <cc:Work>
    <dc:type rdf:resource="http://purl.org/dc/dcmitype/StillImage"/>
    <dc:date>2022-07-18T17:05:28.980672</dc:date>
    <dc:format>image/svg+xml</dc:format>
    <dc:creator>
     <cc:Agent>
      <dc:title>Matplotlib v3.5.2, https://matplotlib.org/</dc:title>
     </cc:Agent>
    </dc:creator>
   </cc:Work>
  </rdf:RDF>
 </metadata>
 <defs>
  <style type="text/css">*{stroke-linejoin: round; stroke-linecap: butt}</style>
 </defs>
 <g id="figure_1">
  <g id="patch_1">
   <path d="M 0 333.36 
L 453.6 333.36 
L 453.6 0 
L 0 0 
z
" style="fill: #ffffff"/>
  </g>
  <g id="axes_1">
   <g id="line2d_1">
    <path d="M 137.52 36.216 
L 316.08 248.22 
" clip-path="url(#p15f051741f)" style="fill: none; stroke-dasharray: 3.7,1.6; stroke-dashoffset: 0; stroke: #808080"/>
   </g>
   <g id="line2d_2">
    <path d="M 137.52 52.524 
L 316.08 52.524 
" clip-path="url(#p15f051741f)" style="fill: none; stroke-dasharray: 3.7,1.6; stroke-dashoffset: 0; stroke: #808080"/>
   </g>
   <g id="line2d_3">
    <path d="M 137.52 68.832 
L 316.08 101.448 
" clip-path="url(#p15f051741f)" style="fill: none; stroke-dasharray: 3.7,1.6; stroke-dashoffset: 0; stroke: #808080"/>
   </g>
   <g id="line2d_4">
    <path d="M 137.52 85.14 
L 316.08 182.988 
" clip-path="url(#p15f051741f)" style="fill: none; stroke-dasharray: 3.7,1.6; stroke-dashoffset: 0; stroke: #808080"/>
   </g>
   <g id="line2d_5">
    <path d="M 137.52 101.448 
L 316.08 68.832 
" clip-path="url(#p15f051741f)" style="fill: none; stroke-dasharray: 3.7,1.6; stroke-dashoffset: 0; stroke: #808080"/>
   </g>
   <g id="line2d_6">
    <path d="M 137.52 117.756 
L 316.08 134.064 
" clip-path="url(#p15f051741f)" style="fill: none; stroke-dasharray: 3.7,1.6; stroke-dashoffset: 0; stroke: #808080"/>
   </g>
   <g id="line2d_7">
    <path d="M 137.52 134.064 
L 316.08 215.604 
" clip-path="url(#p15f051741f)" style="fill: none; stroke-dasharray: 3.7,1.6; stroke-dashoffset: 0; stroke: #808080"/>
   </g>
   <g id="line2d_8">
    <path d="M 137.52 150.372 
L 316.08 36.216 
" clip-path="url(#p15f051741f)" style="fill: none; stroke-dasharray: 3.7,1.6; stroke-dashoffset: 0; stroke: #808080"/>
   </g>
   <g id="line2d_9">
    <path d="M 137.52 166.68 
L 316.08 199.296 
" clip-path="url(#p15f051741f)" style="fill: none; stroke-dasharray: 3.7,1.6; stroke-dashoffset: 0; stroke: #808080"/>
   </g>
   <g id="line2d_10">
    <path d="M 137.52 182.988 
L 316.08 117.756 
" clip-path="url(#p15f051741f)" style="fill: none; stroke-dasharray: 3.7,1.6; stroke-dashoffset: 0; stroke: #808080"/>
   </g>
   <g id="line2d_11">
    <path d="M 137.52 199.296 
L 316.08 166.68 
" clip-path="url(#p15f051741f)" style="fill: none; stroke-dasharray: 3.7,1.6; stroke-dashoffset: 0; stroke: #808080"/>
   </g>
   <g id="line2d_12">
    <path d="M 137.52 215.604 
L 316.08 85.14 
" clip-path="url(#p15f051741f)" style="fill: none; stroke-dasharray: 3.7,1.6; stroke-dashoffset: 0; stroke: #808080"/>
   </g>
   <g id="line2d_13">
    <path d="M 137.52 231.912 
L 316.08 150.372 
" clip-path="url(#p15f051741f)" style="fill: none; stroke-dasharray: 3.7,1.6; stroke-dashoffset: 0; stroke: #808080"/>
   </g>
   <g id="line2d_14">
    <path d="M 137.52 248.22 
L 316.08 231.912 
" clip-path="url(#p15f051741f)" style="fill: none; stroke-dasharray: 3.7,1.6; stroke-dashoffset: 0; stroke: #808080"/>
   </g>
   <g id="line2d_15">
    <path d="M 137.52 264.528 
L 316.08 264.528 
" clip-path="url(#p15f051741f)" style="fill: none; stroke-dasharray: 3.7,1.6; stroke-dashoffset: 0; stroke: #808080"/>
   </g>
   <g id="PathCollection_1">
    <defs>
     <path id="mae6f281e84" d="M 0 4.5 
C 1.193414 4.5 2.338109 4.025852 3.181981 3.181981 
C 4.025852 2.338109 4.5 1.193414 4.5 0 
C 4.5 -1.193414 4.025852 -2.338109 3.181981 -3.181981 
C 2.338109 -4.025852 1.193414 -4.5 0 -4.5 
C -1.193414 -4.5 -2.338109 -4.025852 -3.181981 -3.181981 
C -4.025852 -2.338109 -4.5 -1.193414 -4.5 0 
C -4.5 1.193414 -4.025852 2.338109 -3.181981 3.181981 
C -2.338109 4.025852 -1.193414 4.5 0 4.5 
z
" style="stroke: #66c2a5; stroke-width: 1.5"/>
    </defs>
    <g clip-path="url(#p15f051741f)">
     <use xlink:href="#mae6f281e84" x="48.24" y="85.14" style="fill: #66c2a5; stroke: #66c2a5; stroke-width: 1.5"/>
    </g>
   </g>
   <g id="PathCollection_2">
    <g clip-path="url(#p15f051741f)">
     <use xlink:href="#mae6f281e84" x="48.24" y="117.756" style="fill: #66c2a5; stroke: #66c2a5; stroke-width: 1.5"/>
    </g>
   </g>
   <g id="PathCollection_3">
    <g clip-path="url(#p15f051741f)">
     <use xlink:href="#mae6f281e84" x="48.24" y="150.372" style="fill: #66c2a5; stroke: #66c2a5; stroke-width: 1.5"/>
    </g>
   </g>
   <g id="PathCollection_4">
    <g clip-path="url(#p15f051741f)">
     <use xlink:href="#mae6f281e84" x="48.24" y="182.988" style="fill: #66c2a5; stroke: #66c2a5; stroke-width: 1.5"/>
    </g>
   </g>
   <g id="PathCollection_5">
    <g clip-path="url(#p15f051741f)">
     <use xlink:href="#mae6f281e84" x="48.24" y="215.604" style="fill: #66c2a5; stroke: #66c2a5; stroke-width: 1.5"/>
    </g>
   </g>
   <g id="PathCollection_6">
    <g clip-path="url(#p15f051741f)">
     <use xlink:href="#mae6f281e84" x="137.52" y="36.216" style="fill: #66c2a5; stroke: #66c2a5; stroke-width: 1.5"/>
    </g>
   </g>
   <g id="PathCollection_7">
    <g clip-path="url(#p15f051741f)">
     <use xlink:href="#mae6f281e84" x="137.52" y="52.524" style="fill: #66c2a5; stroke: #66c2a5; stroke-width: 1.5"/>
    </g>
   </g>
   <g id="PathCollection_8">
    <g clip-path="url(#p15f051741f)">
     <use xlink:href="#mae6f281e84" x="137.52" y="68.832" style="fill: #66c2a5; stroke: #66c2a5; stroke-width: 1.5"/>
    </g>
   </g>
   <g id="PathCollection_9">
    <g clip-path="url(#p15f051741f)">
     <use xlink:href="#mae6f281e84" x="137.52" y="85.14" style="fill: #66c2a5; stroke: #66c2a5; stroke-width: 1.5"/>
    </g>
   </g>
   <g id="PathCollection_10">
    <g clip-path="url(#p15f051741f)">
     <use xlink:href="#mae6f281e84" x="137.52" y="101.448" style="fill: #66c2a5; stroke: #66c2a5; stroke-width: 1.5"/>
    </g>
   </g>
   <g id="PathCollection_11">
    <g clip-path="url(#p15f051741f)">
     <use xlink:href="#mae6f281e84" x="137.52" y="117.756" style="fill: #66c2a5; stroke: #66c2a5; stroke-width: 1.5"/>
    </g>
   </g>
   <g id="PathCollection_12">
    <g clip-path="url(#p15f051741f)">
     <use xlink:href="#mae6f281e84" x="137.52" y="134.064" style="fill: #66c2a5; stroke: #66c2a5; stroke-width: 1.5"/>
    </g>
   </g>
   <g id="PathCollection_13">
    <g clip-path="url(#p15f051741f)">
     <use xlink:href="#mae6f281e84" x="137.52" y="150.372" style="fill: #66c2a5; stroke: #66c2a5; stroke-width: 1.5"/>
    </g>
   </g>
   <g id="PathCollection_14">
    <g clip-path="url(#p15f051741f)">
     <use xlink:href="#mae6f281e84" x="137.52" y="166.68" style="fill: #66c2a5; stroke: #66c2a5; stroke-width: 1.5"/>
    </g>
   </g>
   <g id="PathCollection_15">
    <g clip-path="url(#p15f051741f)">
     <use xlink:href="#mae6f281e84" x="137.52" y="182.988" style="fill: #66c2a5; stroke: #66c2a5; stroke-width: 1.5"/>
    </g>
   </g>
   <g id="PathCollection_16">
    <g clip-path="url(#p15f051741f)">
     <use xlink:href="#mae6f281e84" x="137.52" y="199.296" style="fill: #66c2a5; stroke: #66c2a5; stroke-width: 1.5"/>
    </g>
   </g>
   <g id="PathCollection_17">
    <g clip-path="url(#p15f051741f)">
     <use xlink:href="#mae6f281e84" x="137.52" y="215.604" style="fill: #66c2a5; stroke: #66c2a5; stroke-width: 1.5"/>
    </g>
   </g>
   <g id="PathCollection_18">
    <g clip-path="url(#p15f051741f)">
     <use xlink:href="#mae6f281e84" x="137.52" y="231.912" style="fill: #66c2a5; stroke: #66c2a5; stroke-width: 1.5"/>
    </g>
   </g>
   <g id="PathCollection_19">
    <g clip-path="url(#p15f051741f)">
     <use xlink:href="#mae6f281e84" x="137.52" y="248.22" style="fill: #66c2a5; stroke: #66c2a5; stroke-width: 1.5"/>
    </g>
   </g>
   <g id="PathCollection_20">
    <g clip-path="url(#p15f051741f)">
     <use xlink:href="#mae6f281e84" x="137.52" y="264.528" style="fill: #66c2a5; stroke: #66c2a5; stroke-width: 1.5"/>
    </g>
   </g>
   <g id="PathCollection_21">
    <defs>
     <path id="m6cc69a1d56" d="M 0 4.5 
C 1.193414 4.5 2.338109 4.025852 3.181981 3.181981 
C 4.025852 2.338109 4.5 1.193414 4.5 0 
C 4.5 -1.193414 4.025852 -2.338109 3.181981 -3.181981 
C 2.338109 -4.025852 1.193414 -4.5 0 -4.5 
C -1.193414 -4.5 -2.338109 -4.025852 -3.181981 -3.181981 
C -4.025852 -2.338109 -4.5 -1.193414 -4.5 0 
C -4.5 1.193414 -4.025852 2.338109 -3.181981 3.181981 
C -2.338109 4.025852 -1.193414 4.5 0 4.5 
z
" style="stroke: #fc8d62; stroke-width: 1.5"/>
    </defs>
    <g clip-path="url(#p15f051741f)">
     <use xlink:href="#m6cc69a1d56" x="316.08" y="36.216" style="fill: #fc8d62; stroke: #fc8d62; stroke-width: 1.5"/>
    </g>
   </g>
   <g id="PathCollection_22">
    <g clip-path="url(#p15f051741f)">
     <use xlink:href="#m6cc69a1d56" x="316.08" y="52.524" style="fill: #fc8d62; stroke: #fc8d62; stroke-width: 1.5"/>
    </g>
   </g>
   <g id="PathCollection_23">
    <g clip-path="url(#p15f051741f)">
     <use xlink:href="#m6cc69a1d56" x="316.08" y="68.832" style="fill: #fc8d62; stroke: #fc8d62; stroke-width: 1.5"/>
    </g>
   </g>
   <g id="PathCollection_24">
    <g clip-path="url(#p15f051741f)">
     <use xlink:href="#m6cc69a1d56" x="316.08" y="85.14" style="fill: #fc8d62; stroke: #fc8d62; stroke-width: 1.5"/>
    </g>
   </g>
   <g id="PathCollection_25">
    <g clip-path="url(#p15f051741f)">
     <use xlink:href="#m6cc69a1d56" x="316.08" y="101.448" style="fill: #fc8d62; stroke: #fc8d62; stroke-width: 1.5"/>
    </g>
   </g>
   <g id="PathCollection_26">
    <g clip-path="url(#p15f051741f)">
     <use xlink:href="#m6cc69a1d56" x="316.08" y="117.756" style="fill: #fc8d62; stroke: #fc8d62; stroke-width: 1.5"/>
    </g>
   </g>
   <g id="PathCollection_27">
    <g clip-path="url(#p15f051741f)">
     <use xlink:href="#m6cc69a1d56" x="316.08" y="134.064" style="fill: #fc8d62; stroke: #fc8d62; stroke-width: 1.5"/>
    </g>
   </g>
   <g id="PathCollection_28">
    <g clip-path="url(#p15f051741f)">
     <use xlink:href="#m6cc69a1d56" x="316.08" y="150.372" style="fill: #fc8d62; stroke: #fc8d62; stroke-width: 1.5"/>
    </g>
   </g>
   <g id="PathCollection_29">
    <g clip-path="url(#p15f051741f)">
     <use xlink:href="#m6cc69a1d56" x="316.08" y="166.68" style="fill: #fc8d62; stroke: #fc8d62; stroke-width: 1.5"/>
    </g>
   </g>
   <g id="PathCollection_30">
    <g clip-path="url(#p15f051741f)">
     <use xlink:href="#m6cc69a1d56" x="316.08" y="182.988" style="fill: #fc8d62; stroke: #fc8d62; stroke-width: 1.5"/>
    </g>
   </g>
   <g id="PathCollection_31">
    <g clip-path="url(#p15f051741f)">
     <use xlink:href="#m6cc69a1d56" x="316.08" y="199.296" style="fill: #fc8d62; stroke: #fc8d62; stroke-width: 1.5"/>
    </g>
   </g>
   <g id="PathCollection_32">
    <g clip-path="url(#p15f051741f)">
     <use xlink:href="#m6cc69a1d56" x="316.08" y="215.604" style="fill: #fc8d62; stroke: #fc8d62; stroke-width: 1.5"/>
    </g>
   </g>
   <g id="PathCollection_33">
    <g clip-path="url(#p15f051741f)">
     <use xlink:href="#m6cc69a1d56" x="316.08" y="231.912" style="fill: #fc8d62; stroke: #fc8d62; stroke-width: 1.5"/>
    </g>
   </g>
   <g id="PathCollection_34">
    <g clip-path="url(#p15f051741f)">
     <use xlink:href="#m6cc69a1d56" x="316.08" y="248.22" style="fill: #fc8d62; stroke: #fc8d62; stroke-width: 1.5"/>
    </g>
   </g>
   <g id="PathCollection_35">
    <g clip-path="url(#p15f051741f)">
     <use xlink:href="#m6cc69a1d56" x="316.08" y="264.528" style="fill: #fc8d62; stroke: #fc8d62; stroke-width: 1.5"/>
    </g>
   </g>
   <g id="PathCollection_36">
    <g clip-path="url(#p15f051741f)">
     <use xlink:href="#m6cc69a1d56" x="405.36" y="85.14" style="fill: #fc8d62; stroke: #fc8d62; stroke-width: 1.5"/>
    </g>
   </g>
   <g id="PathCollection_37">
    <g clip-path="url(#p15f051741f)">
     <use xlink:href="#m6cc69a1d56" x="405.36" y="117.756" style="fill: #fc8d62; stroke: #fc8d62; stroke-width: 1.5"/>
    </g>
   </g>
   <g id="PathCollection_38">
    <g clip-path="url(#p15f051741f)">
     <use xlink:href="#m6cc69a1d56" x="405.36" y="150.372" style="fill: #fc8d62; stroke: #fc8d62; stroke-width: 1.5"/>
    </g>
   </g>
   <g id="PathCollection_39">
    <g clip-path="url(#p15f051741f)">
     <use xlink:href="#m6cc69a1d56" x="405.36" y="182.988" style="fill: #fc8d62; stroke: #fc8d62; stroke-width: 1.5"/>
    </g>
   </g>
   <g id="PathCollection_40">
    <g clip-path="url(#p15f051741f)">
     <use xlink:href="#m6cc69a1d56" x="405.36" y="215.604" style="fill: #fc8d62; stroke: #fc8d62; stroke-width: 1.5"/>
    </g>
   </g>
   <g id="line2d_16">
    <path d="M 48.24 85.14 
L 137.52 117.756 
" clip-path="url(#p15f051741f)" style="fill: none; stroke: #66c2a5; stroke-linecap: round"/>
   </g>
   <g id="line2d_17">
    <path d="M 48.24 85.14 
L 137.52 150.372 
" clip-path="url(#p15f051741f)" style="fill: none; stroke: #66c2a5; stroke-linecap: round"/>
   </g>
   <g id="line2d_18">
    <path d="M 48.24 85.14 
L 137.52 231.912 
" clip-path="url(#p15f051741f)" style="fill: none; stroke: #66c2a5; stroke-linecap: round"/>
   </g>
   <g id="line2d_19">
    <path d="M 48.24 85.14 
L 137.52 248.22 
" clip-path="url(#p15f051741f)" style="fill: none; stroke: #66c2a5; stroke-linecap: round"/>
   </g>
   <g id="line2d_20">
    <path d="M 48.24 85.14 
L 137.52 52.524 
" clip-path="url(#p15f051741f)" style="fill: none; stroke: #66c2a5; stroke-linecap: round"/>
   </g>
   <g id="line2d_21">
    <path d="M 48.24 85.14 
L 137.52 68.832 
" clip-path="url(#p15f051741f)" style="fill: none; stroke: #66c2a5; stroke-linecap: round"/>
   </g>
   <g id="line2d_22">
    <path d="M 48.24 85.14 
L 137.52 231.912 
" clip-path="url(#p15f051741f)" style="fill: none; stroke: #66c2a5; stroke-linecap: round"/>
   </g>
   <g id="line2d_23">
    <path d="M 48.24 117.756 
L 137.52 36.216 
" clip-path="url(#p15f051741f)" style="fill: none; stroke: #66c2a5; stroke-linecap: round"/>
   </g>
   <g id="line2d_24">
    <path d="M 48.24 117.756 
L 137.52 85.14 
" clip-path="url(#p15f051741f)" style="fill: none; stroke: #66c2a5; stroke-linecap: round"/>
   </g>
   <g id="line2d_25">
    <path d="M 48.24 117.756 
L 137.52 199.296 
" clip-path="url(#p15f051741f)" style="fill: none; stroke: #66c2a5; stroke-linecap: round"/>
   </g>
   <g id="line2d_26">
    <path d="M 48.24 117.756 
L 137.52 166.68 
" clip-path="url(#p15f051741f)" style="fill: none; stroke: #66c2a5; stroke-linecap: round"/>
   </g>
   <g id="line2d_27">
    <path d="M 48.24 117.756 
L 137.52 182.988 
" clip-path="url(#p15f051741f)" style="fill: none; stroke: #66c2a5; stroke-linecap: round"/>
   </g>
   <g id="line2d_28">
    <path d="M 48.24 117.756 
L 137.52 199.296 
" clip-path="url(#p15f051741f)" style="fill: none; stroke: #66c2a5; stroke-linecap: round"/>
   </g>
   <g id="line2d_29">
    <path d="M 48.24 117.756 
L 137.52 68.832 
" clip-path="url(#p15f051741f)" style="fill: none; stroke: #66c2a5; stroke-linecap: round"/>
   </g>
   <g id="line2d_30">
    <path d="M 48.24 117.756 
L 137.52 166.68 
" clip-path="url(#p15f051741f)" style="fill: none; stroke: #66c2a5; stroke-linecap: round"/>
   </g>
   <g id="line2d_31">
    <path d="M 48.24 150.372 
L 137.52 182.988 
" clip-path="url(#p15f051741f)" style="fill: none; stroke: #66c2a5; stroke-linecap: round"/>
   </g>
   <g id="line2d_32">
    <path d="M 48.24 150.372 
L 137.52 215.604 
" clip-path="url(#p15f051741f)" style="fill: none; stroke: #66c2a5; stroke-linecap: round"/>
   </g>
   <g id="line2d_33">
    <path d="M 48.24 150.372 
L 137.52 264.528 
" clip-path="url(#p15f051741f)" style="fill: none; stroke: #66c2a5; stroke-linecap: round"/>
   </g>
   <g id="line2d_34">
    <path d="M 48.24 150.372 
L 137.52 52.524 
" clip-path="url(#p15f051741f)" style="fill: none; stroke: #66c2a5; stroke-linecap: round"/>
   </g>
   <g id="line2d_35">
    <path d="M 48.24 150.372 
L 137.52 117.756 
" clip-path="url(#p15f051741f)" style="fill: none; stroke: #66c2a5; stroke-linecap: round"/>
   </g>
   <g id="line2d_36">
    <path d="M 48.24 150.372 
L 137.52 231.912 
" clip-path="url(#p15f051741f)" style="fill: none; stroke: #66c2a5; stroke-linecap: round"/>
   </g>
   <g id="line2d_37">
    <path d="M 48.24 150.372 
L 137.52 150.372 
" clip-path="url(#p15f051741f)" style="fill: none; stroke: #66c2a5; stroke-linecap: round"/>
   </g>
   <g id="line2d_38">
    <path d="M 48.24 150.372 
L 137.52 248.22 
" clip-path="url(#p15f051741f)" style="fill: none; stroke: #66c2a5; stroke-linecap: round"/>
   </g>
   <g id="line2d_39">
    <path d="M 48.24 150.372 
L 137.52 264.528 
" clip-path="url(#p15f051741f)" style="fill: none; stroke: #66c2a5; stroke-linecap: round"/>
   </g>
   <g id="line2d_40">
    <path d="M 48.24 182.988 
L 137.52 150.372 
" clip-path="url(#p15f051741f)" style="fill: none; stroke: #66c2a5; stroke-linecap: round"/>
   </g>
   <g id="line2d_41">
    <path d="M 48.24 182.988 
L 137.52 166.68 
" clip-path="url(#p15f051741f)" style="fill: none; stroke: #66c2a5; stroke-linecap: round"/>
   </g>
   <g id="line2d_42">
    <path d="M 48.24 182.988 
L 137.52 264.528 
" clip-path="url(#p15f051741f)" style="fill: none; stroke: #66c2a5; stroke-linecap: round"/>
   </g>
   <g id="line2d_43">
    <path d="M 48.24 182.988 
L 137.52 85.14 
" clip-path="url(#p15f051741f)" style="fill: none; stroke: #66c2a5; stroke-linecap: round"/>
   </g>
   <g id="line2d_44">
    <path d="M 48.24 182.988 
L 137.52 117.756 
" clip-path="url(#p15f051741f)" style="fill: none; stroke: #66c2a5; stroke-linecap: round"/>
   </g>
   <g id="line2d_45">
    <path d="M 48.24 182.988 
L 137.52 182.988 
" clip-path="url(#p15f051741f)" style="fill: none; stroke: #66c2a5; stroke-linecap: round"/>
   </g>
   <g id="line2d_46">
    <path d="M 48.24 182.988 
L 137.52 215.604 
" clip-path="url(#p15f051741f)" style="fill: none; stroke: #66c2a5; stroke-linecap: round"/>
   </g>
   <g id="line2d_47">
    <path d="M 48.24 182.988 
L 137.52 231.912 
" clip-path="url(#p15f051741f)" style="fill: none; stroke: #66c2a5; stroke-linecap: round"/>
   </g>
   <g id="line2d_48">
    <path d="M 48.24 182.988 
L 137.52 264.528 
" clip-path="url(#p15f051741f)" style="fill: none; stroke: #66c2a5; stroke-linecap: round"/>
   </g>
   <g id="line2d_49">
    <path d="M 48.24 215.604 
L 137.52 36.216 
" clip-path="url(#p15f051741f)" style="fill: none; stroke: #66c2a5; stroke-linecap: round"/>
   </g>
   <g id="line2d_50">
    <path d="M 48.24 215.604 
L 137.52 134.064 
" clip-path="url(#p15f051741f)" style="fill: none; stroke: #66c2a5; stroke-linecap: round"/>
   </g>
   <g id="line2d_51">
    <path d="M 48.24 215.604 
L 137.52 182.988 
" clip-path="url(#p15f051741f)" style="fill: none; stroke: #66c2a5; stroke-linecap: round"/>
   </g>
   <g id="line2d_52">
    <path d="M 48.24 215.604 
L 137.52 199.296 
" clip-path="url(#p15f051741f)" style="fill: none; stroke: #66c2a5; stroke-linecap: round"/>
   </g>
   <g id="line2d_53">
    <path d="M 48.24 215.604 
L 137.52 215.604 
" clip-path="url(#p15f051741f)" style="fill: none; stroke: #66c2a5; stroke-linecap: round"/>
   </g>
   <g id="line2d_54">
    <path d="M 48.24 215.604 
L 137.52 117.756 
" clip-path="url(#p15f051741f)" style="fill: none; stroke: #66c2a5; stroke-linecap: round"/>
   </g>
   <g id="line2d_55">
    <path d="M 48.24 215.604 
L 137.52 166.68 
" clip-path="url(#p15f051741f)" style="fill: none; stroke: #66c2a5; stroke-linecap: round"/>
   </g>
   <g id="line2d_56">
    <path d="M 405.36 85.14 
L 316.08 150.372 
" clip-path="url(#p15f051741f)" style="fill: none; stroke: #fc8d62; stroke-linecap: round"/>
   </g>
   <g id="line2d_57">
    <path d="M 405.36 85.14 
L 316.08 248.22 
" clip-path="url(#p15f051741f)" style="fill: none; stroke: #fc8d62; stroke-linecap: round"/>
   </g>
   <g id="line2d_58">
    <path d="M 405.36 85.14 
L 316.08 264.528 
" clip-path="url(#p15f051741f)" style="fill: none; stroke: #fc8d62; stroke-linecap: round"/>
   </g>
   <g id="line2d_59">
    <path d="M 405.36 85.14 
L 316.08 68.832 
" clip-path="url(#p15f051741f)" style="fill: none; stroke: #fc8d62; stroke-linecap: round"/>
   </g>
   <g id="line2d_60">
    <path d="M 405.36 85.14 
L 316.08 85.14 
" clip-path="url(#p15f051741f)" style="fill: none; stroke: #fc8d62; stroke-linecap: round"/>
   </g>
   <g id="line2d_61">
    <path d="M 405.36 85.14 
L 316.08 166.68 
" clip-path="url(#p15f051741f)" style="fill: none; stroke: #fc8d62; stroke-linecap: round"/>
   </g>
   <g id="line2d_62">
    <path d="M 405.36 85.14 
L 316.08 199.296 
" clip-path="url(#p15f051741f)" style="fill: none; stroke: #fc8d62; stroke-linecap: round"/>
   </g>
   <g id="line2d_63">
    <path d="M 405.36 117.756 
L 316.08 85.14 
" clip-path="url(#p15f051741f)" style="fill: none; stroke: #fc8d62; stroke-linecap: round"/>
   </g>
   <g id="line2d_64">
    <path d="M 405.36 117.756 
L 316.08 182.988 
" clip-path="url(#p15f051741f)" style="fill: none; stroke: #fc8d62; stroke-linecap: round"/>
   </g>
   <g id="line2d_65">
    <path d="M 405.36 117.756 
L 316.08 215.604 
" clip-path="url(#p15f051741f)" style="fill: none; stroke: #fc8d62; stroke-linecap: round"/>
   </g>
   <g id="line2d_66">
    <path d="M 405.36 117.756 
L 316.08 264.528 
" clip-path="url(#p15f051741f)" style="fill: none; stroke: #fc8d62; stroke-linecap: round"/>
   </g>
   <g id="line2d_67">
    <path d="M 405.36 117.756 
L 316.08 199.296 
" clip-path="url(#p15f051741f)" style="fill: none; stroke: #fc8d62; stroke-linecap: round"/>
   </g>
   <g id="line2d_68">
    <path d="M 405.36 117.756 
L 316.08 248.22 
" clip-path="url(#p15f051741f)" style="fill: none; stroke: #fc8d62; stroke-linecap: round"/>
   </g>
   <g id="line2d_69">
    <path d="M 405.36 117.756 
L 316.08 36.216 
" clip-path="url(#p15f051741f)" style="fill: none; stroke: #fc8d62; stroke-linecap: round"/>
   </g>
   <g id="line2d_70">
    <path d="M 405.36 117.756 
L 316.08 68.832 
" clip-path="url(#p15f051741f)" style="fill: none; stroke: #fc8d62; stroke-linecap: round"/>
   </g>
   <g id="line2d_71">
    <path d="M 405.36 117.756 
L 316.08 85.14 
" clip-path="url(#p15f051741f)" style="fill: none; stroke: #fc8d62; stroke-linecap: round"/>
   </g>
   <g id="line2d_72">
    <path d="M 405.36 150.372 
L 316.08 52.524 
" clip-path="url(#p15f051741f)" style="fill: none; stroke: #fc8d62; stroke-linecap: round"/>
   </g>
   <g id="line2d_73">
    <path d="M 405.36 150.372 
L 316.08 85.14 
" clip-path="url(#p15f051741f)" style="fill: none; stroke: #fc8d62; stroke-linecap: round"/>
   </g>
   <g id="line2d_74">
    <path d="M 405.36 150.372 
L 316.08 117.756 
" clip-path="url(#p15f051741f)" style="fill: none; stroke: #fc8d62; stroke-linecap: round"/>
   </g>
   <g id="line2d_75">
    <path d="M 405.36 150.372 
L 316.08 166.68 
" clip-path="url(#p15f051741f)" style="fill: none; stroke: #fc8d62; stroke-linecap: round"/>
   </g>
   <g id="line2d_76">
    <path d="M 405.36 150.372 
L 316.08 199.296 
" clip-path="url(#p15f051741f)" style="fill: none; stroke: #fc8d62; stroke-linecap: round"/>
   </g>
   <g id="line2d_77">
    <path d="M 405.36 150.372 
L 316.08 182.988 
" clip-path="url(#p15f051741f)" style="fill: none; stroke: #fc8d62; stroke-linecap: round"/>
   </g>
   <g id="line2d_78">
    <path d="M 405.36 150.372 
L 316.08 68.832 
" clip-path="url(#p15f051741f)" style="fill: none; stroke: #fc8d62; stroke-linecap: round"/>
   </g>
   <g id="line2d_79">
    <path d="M 405.36 150.372 
L 316.08 150.372 
" clip-path="url(#p15f051741f)" style="fill: none; stroke: #fc8d62; stroke-linecap: round"/>
   </g>
   <g id="line2d_80">
    <path d="M 405.36 150.372 
L 316.08 231.912 
" clip-path="url(#p15f051741f)" style="fill: none; stroke: #fc8d62; stroke-linecap: round"/>
   </g>
   <g id="line2d_81">
    <path d="M 405.36 150.372 
L 316.08 264.528 
" clip-path="url(#p15f051741f)" style="fill: none; stroke: #fc8d62; stroke-linecap: round"/>
   </g>
   <g id="line2d_82">
    <path d="M 405.36 182.988 
L 316.08 215.604 
" clip-path="url(#p15f051741f)" style="fill: none; stroke: #fc8d62; stroke-linecap: round"/>
   </g>
   <g id="line2d_83">
    <path d="M 405.36 182.988 
L 316.08 36.216 
" clip-path="url(#p15f051741f)" style="fill: none; stroke: #fc8d62; stroke-linecap: round"/>
   </g>
   <g id="line2d_84">
    <path d="M 405.36 182.988 
L 316.08 134.064 
" clip-path="url(#p15f051741f)" style="fill: none; stroke: #fc8d62; stroke-linecap: round"/>
   </g>
   <g id="line2d_85">
    <path d="M 405.36 182.988 
L 316.08 215.604 
" clip-path="url(#p15f051741f)" style="fill: none; stroke: #fc8d62; stroke-linecap: round"/>
   </g>
   <g id="line2d_86">
    <path d="M 405.36 182.988 
L 316.08 231.912 
" clip-path="url(#p15f051741f)" style="fill: none; stroke: #fc8d62; stroke-linecap: round"/>
   </g>
   <g id="line2d_87">
    <path d="M 405.36 182.988 
L 316.08 52.524 
" clip-path="url(#p15f051741f)" style="fill: none; stroke: #fc8d62; stroke-linecap: round"/>
   </g>
   <g id="line2d_88">
    <path d="M 405.36 182.988 
L 316.08 68.832 
" clip-path="url(#p15f051741f)" style="fill: none; stroke: #fc8d62; stroke-linecap: round"/>
   </g>
   <g id="line2d_89">
    <path d="M 405.36 182.988 
L 316.08 182.988 
" clip-path="url(#p15f051741f)" style="fill: none; stroke: #fc8d62; stroke-linecap: round"/>
   </g>
   <g id="line2d_90">
    <path d="M 405.36 182.988 
L 316.08 231.912 
" clip-path="url(#p15f051741f)" style="fill: none; stroke: #fc8d62; stroke-linecap: round"/>
   </g>
   <g id="line2d_91">
    <path d="M 405.36 215.604 
L 316.08 182.988 
" clip-path="url(#p15f051741f)" style="fill: none; stroke: #fc8d62; stroke-linecap: round"/>
   </g>
   <g id="line2d_92">
    <path d="M 405.36 215.604 
L 316.08 215.604 
" clip-path="url(#p15f051741f)" style="fill: none; stroke: #fc8d62; stroke-linecap: round"/>
   </g>
   <g id="line2d_93">
    <path d="M 405.36 215.604 
L 316.08 85.14 
" clip-path="url(#p15f051741f)" style="fill: none; stroke: #fc8d62; stroke-linecap: round"/>
   </g>
   <g id="line2d_94">
    <path d="M 405.36 215.604 
L 316.08 182.988 
" clip-path="url(#p15f051741f)" style="fill: none; stroke: #fc8d62; stroke-linecap: round"/>
   </g>
   <g id="line2d_95">
    <path d="M 405.36 215.604 
L 316.08 52.524 
" clip-path="url(#p15f051741f)" style="fill: none; stroke: #fc8d62; stroke-linecap: round"/>
   </g>
   <g id="line2d_96">
    <path d="M 405.36 215.604 
L 316.08 231.912 
" clip-path="url(#p15f051741f)" style="fill: none; stroke: #fc8d62; stroke-linecap: round"/>
   </g>
   <g id="line2d_97">
    <path d="M 405.36 215.604 
L 316.08 101.448 
" clip-path="url(#p15f051741f)" style="fill: none; stroke: #fc8d62; stroke-linecap: round"/>
   </g>
   <g id="line2d_98">
    <path d="M 405.36 215.604 
L 316.08 150.372 
" clip-path="url(#p15f051741f)" style="fill: none; stroke: #fc8d62; stroke-linecap: round"/>
   </g>
   <g id="line2d_99">
    <path d="M 405.36 215.604 
L 316.08 182.988 
" clip-path="url(#p15f051741f)" style="fill: none; stroke: #fc8d62; stroke-linecap: round"/>
   </g>
   <g id="line2d_100">
    <path d="M 405.36 215.604 
L 316.08 199.296 
" clip-path="url(#p15f051741f)" style="fill: none; stroke: #fc8d62; stroke-linecap: round"/>
   </g>
   <g id="text_1">
    <!-- PNs -->
    <g style="fill: #66c2a5" transform="translate(27.836438 248.22)scale(0.216 -0.216)">
     <defs>
      <path id="ArialMT-50" d="M 494 0 
L 494 4581 
L 2222 4581 
Q 2678 4581 2919 4538 
Q 3256 4481 3484 4323 
Q 3713 4166 3852 3881 
Q 3991 3597 3991 3256 
Q 3991 2672 3619 2267 
Q 3247 1863 2275 1863 
L 1100 1863 
L 1100 0 
L 494 0 
z
M 1100 2403 
L 2284 2403 
Q 2872 2403 3119 2622 
Q 3366 2841 3366 3238 
Q 3366 3525 3220 3729 
Q 3075 3934 2838 4000 
Q 2684 4041 2272 4041 
L 1100 4041 
L 1100 2403 
z
" transform="scale(0.015625)"/>
      <path id="ArialMT-4e" d="M 488 0 
L 488 4581 
L 1109 4581 
L 3516 984 
L 3516 4581 
L 4097 4581 
L 4097 0 
L 3475 0 
L 1069 3600 
L 1069 0 
L 488 0 
z
" transform="scale(0.015625)"/>
      <path id="ArialMT-73" d="M 197 991 
L 753 1078 
Q 800 744 1014 566 
Q 1228 388 1613 388 
Q 2000 388 2187 545 
Q 2375 703 2375 916 
Q 2375 1106 2209 1216 
Q 2094 1291 1634 1406 
Q 1016 1563 777 1677 
Q 538 1791 414 1992 
Q 291 2194 291 2438 
Q 291 2659 392 2848 
Q 494 3038 669 3163 
Q 800 3259 1026 3326 
Q 1253 3394 1513 3394 
Q 1903 3394 2198 3281 
Q 2494 3169 2634 2976 
Q 2775 2784 2828 2463 
L 2278 2388 
Q 2241 2644 2061 2787 
Q 1881 2931 1553 2931 
Q 1166 2931 1000 2803 
Q 834 2675 834 2503 
Q 834 2394 903 2306 
Q 972 2216 1119 2156 
Q 1203 2125 1616 2013 
Q 2213 1853 2448 1751 
Q 2684 1650 2818 1456 
Q 2953 1263 2953 975 
Q 2953 694 2789 445 
Q 2625 197 2315 61 
Q 2006 -75 1616 -75 
Q 969 -75 630 194 
Q 291 463 197 991 
z
" transform="scale(0.015625)"/>
     </defs>
     <use xlink:href="#ArialMT-50"/>
     <use xlink:href="#ArialMT-4e" x="66.699219"/>
     <use xlink:href="#ArialMT-73" x="138.916016"/>
    </g>
   </g>
   <g id="text_2">
    <!-- KCs -->
    <g style="fill: #66c2a5" transform="translate(117.116437 297.144)scale(0.216 -0.216)">
     <defs>
      <path id="ArialMT-4b" d="M 469 0 
L 469 4581 
L 1075 4581 
L 1075 2309 
L 3350 4581 
L 4172 4581 
L 2250 2725 
L 4256 0 
L 3456 0 
L 1825 2319 
L 1075 1588 
L 1075 0 
L 469 0 
z
" transform="scale(0.015625)"/>
      <path id="ArialMT-43" d="M 3763 1606 
L 4369 1453 
Q 4178 706 3683 314 
Q 3188 -78 2472 -78 
Q 1731 -78 1267 223 
Q 803 525 561 1097 
Q 319 1669 319 2325 
Q 319 3041 592 3573 
Q 866 4106 1370 4382 
Q 1875 4659 2481 4659 
Q 3169 4659 3637 4309 
Q 4106 3959 4291 3325 
L 3694 3184 
Q 3534 3684 3231 3912 
Q 2928 4141 2469 4141 
Q 1941 4141 1586 3887 
Q 1231 3634 1087 3207 
Q 944 2781 944 2328 
Q 944 1744 1114 1308 
Q 1284 872 1643 656 
Q 2003 441 2422 441 
Q 2931 441 3284 734 
Q 3638 1028 3763 1606 
z
" transform="scale(0.015625)"/>
     </defs>
     <use xlink:href="#ArialMT-4b"/>
     <use xlink:href="#ArialMT-43" x="66.699219"/>
     <use xlink:href="#ArialMT-73" x="138.916016"/>
    </g>
   </g>
   <g id="text_3">
    <!-- PNs -->
    <g style="fill: #fc8d62" transform="translate(384.956437 248.22)scale(0.216 -0.216)">
     <use xlink:href="#ArialMT-50"/>
     <use xlink:href="#ArialMT-4e" x="66.699219"/>
     <use xlink:href="#ArialMT-73" x="138.916016"/>
    </g>
   </g>
   <g id="text_4">
    <!-- KCs -->
    <g style="fill: #fc8d62" transform="translate(295.676437 297.144)scale(0.216 -0.216)">
     <use xlink:href="#ArialMT-4b"/>
     <use xlink:href="#ArialMT-43" x="66.699219"/>
     <use xlink:href="#ArialMT-73" x="138.916016"/>
    </g>
   </g>
   <g id="text_5">
    <!-- $P$ -->
    <g transform="translate(217.31328 174.72087)scale(0.31104 -0.31104)">
     <defs>
      <path id="DejaVuSans-Oblique-50" d="M 1081 4666 
L 2541 4666 
Q 3178 4666 3512 4369 
Q 3847 4072 3847 3500 
Q 3847 2731 3353 2303 
Q 2859 1875 1966 1875 
L 1172 1875 
L 806 0 
L 172 0 
L 1081 4666 
z
M 1613 4147 
L 1275 2394 
L 2069 2394 
Q 2606 2394 2893 2669 
Q 3181 2944 3181 3456 
Q 3181 3784 2986 3965 
Q 2791 4147 2438 4147 
L 1613 4147 
z
" transform="scale(0.015625)"/>
     </defs>
     <use xlink:href="#DejaVuSans-Oblique-50" transform="translate(0 0.09375)"/>
    </g>
   </g>
  </g>
 </g>
 <defs>
  <clipPath id="p15f051741f">
   <rect x="3.6" y="3.6" width="446.4" height="326.16"/>
  </clipPath>
 </defs>
</svg>
