<?xml version="1.0" encoding="utf-8" standalone="no"?>
<!DOCTYPE svg PUBLIC "-//W3C//DTD SVG 1.1//EN"
  "http://www.w3.org/Graphics/SVG/1.1/DTD/svg11.dtd">
<svg xmlns:xlink="http://www.w3.org/1999/xlink" width="907.266563pt" height="608.735391pt" viewBox="0 0 907.266563 608.735391" xmlns="http://www.w3.org/2000/svg" version="1.1">
 <metadata>
  <rdf:RDF xmlns:dc="http://purl.org/dc/elements/1.1/" xmlns:cc="http://creativecommons.org/ns#" xmlns:rdf="http://www.w3.org/1999/02/22-rdf-syntax-ns#">
   <cc:Work>
    <dc:type rdf:resource="http://purl.org/dc/dcmitype/StillImage"/>
    <dc:date>2023-03-10T13:59:55.679785</dc:date>
    <dc:format>image/svg+xml</dc:format>
    <dc:creator>
     <cc:Agent>
      <dc:title>Matplotlib v3.5.1, https://matplotlib.org/</dc:title>
     </cc:Agent>
    </dc:creator>
   </cc:Work>
  </rdf:RDF>
 </metadata>
 <defs>
  <style type="text/css">*{stroke-linejoin: round; stroke-linecap: butt}</style>
 </defs>
 <g id="figure_1">
  <g id="patch_1">
   <path d="M 0 608.735391 
L 907.266563 608.735391 
L 907.266563 0 
L 0 0 
z
" style="fill: #ffffff"/>
  </g>
  <g id="axes_1">
   <g id="patch_2">
    <path d="M 66.666563 269.574972 
L 312.843033 269.574972 
L 312.843033 22.484063 
L 66.666563 22.484063 
z
" style="fill: #ffffff"/>
   </g>
   <g id="matplotlib.axis_1">
    <g id="xtick_1">
     <g id="line2d_1"/>
     <g id="text_1">
      <!-- 0 -->
      <g transform="translate(73.268629 284.885362)scale(0.165 -0.165)">
       <defs>
        <path id="ArialMT-30" d="M 266 2259 
Q 266 3072 433 3567 
Q 600 4063 929 4331 
Q 1259 4600 1759 4600 
Q 2128 4600 2406 4451 
Q 2684 4303 2865 4023 
Q 3047 3744 3150 3342 
Q 3253 2941 3253 2259 
Q 3253 1453 3087 958 
Q 2922 463 2592 192 
Q 2263 -78 1759 -78 
Q 1097 -78 719 397 
Q 266 969 266 2259 
z
M 844 2259 
Q 844 1131 1108 757 
Q 1372 384 1759 384 
Q 2147 384 2411 759 
Q 2675 1134 2675 2259 
Q 2675 3391 2411 3762 
Q 2147 4134 1753 4134 
Q 1366 4134 1134 3806 
Q 844 3388 844 2259 
z
" transform="scale(0.015625)"/>
       </defs>
       <use xlink:href="#ArialMT-30"/>
      </g>
     </g>
    </g>
    <g id="xtick_2">
     <g id="line2d_2"/>
     <g id="text_2">
      <!-- 50 -->
      <g transform="translate(158.199572 284.885362)scale(0.165 -0.165)">
       <defs>
        <path id="ArialMT-35" d="M 266 1200 
L 856 1250 
Q 922 819 1161 601 
Q 1400 384 1738 384 
Q 2144 384 2425 690 
Q 2706 997 2706 1503 
Q 2706 1984 2436 2262 
Q 2166 2541 1728 2541 
Q 1456 2541 1237 2417 
Q 1019 2294 894 2097 
L 366 2166 
L 809 4519 
L 3088 4519 
L 3088 3981 
L 1259 3981 
L 1013 2750 
Q 1425 3038 1878 3038 
Q 2478 3038 2890 2622 
Q 3303 2206 3303 1553 
Q 3303 931 2941 478 
Q 2500 -78 1738 -78 
Q 1113 -78 717 272 
Q 322 622 266 1200 
z
" transform="scale(0.015625)"/>
       </defs>
       <use xlink:href="#ArialMT-35"/>
       <use xlink:href="#ArialMT-30" x="55.615234"/>
      </g>
     </g>
    </g>
    <g id="xtick_3">
     <g id="line2d_3"/>
     <g id="text_3">
      <!-- 100 -->
      <g transform="translate(243.130515 284.885362)scale(0.165 -0.165)">
       <defs>
        <path id="ArialMT-31" d="M 2384 0 
L 1822 0 
L 1822 3584 
Q 1619 3391 1289 3197 
Q 959 3003 697 2906 
L 697 3450 
Q 1169 3672 1522 3987 
Q 1875 4303 2022 4600 
L 2384 4600 
L 2384 0 
z
" transform="scale(0.015625)"/>
       </defs>
       <use xlink:href="#ArialMT-31"/>
       <use xlink:href="#ArialMT-30" x="55.615234"/>
       <use xlink:href="#ArialMT-30" x="111.230469"/>
      </g>
     </g>
    </g>
   </g>
   <g id="matplotlib.axis_2">
    <g id="ytick_1">
     <g id="line2d_4"/>
     <g id="text_4">
      <!-- $\mathdefault{10^{-2}}$ -->
      <g transform="translate(30.496563 236.226857)scale(0.165 -0.165)">
       <defs>
        <path id="ArialMT-2212" d="M 3381 1997 
L 356 1997 
L 356 2522 
L 3381 2522 
L 3381 1997 
z
" transform="scale(0.015625)"/>
        <path id="ArialMT-32" d="M 3222 541 
L 3222 0 
L 194 0 
Q 188 203 259 391 
Q 375 700 629 1000 
Q 884 1300 1366 1694 
Q 2113 2306 2375 2664 
Q 2638 3022 2638 3341 
Q 2638 3675 2398 3904 
Q 2159 4134 1775 4134 
Q 1369 4134 1125 3890 
Q 881 3647 878 3216 
L 300 3275 
Q 359 3922 746 4261 
Q 1134 4600 1788 4600 
Q 2447 4600 2831 4234 
Q 3216 3869 3216 3328 
Q 3216 3053 3103 2787 
Q 2991 2522 2730 2228 
Q 2469 1934 1863 1422 
Q 1356 997 1212 845 
Q 1069 694 975 541 
L 3222 541 
z
" transform="scale(0.015625)"/>
       </defs>
       <use xlink:href="#ArialMT-31" transform="translate(0 0.99375)"/>
       <use xlink:href="#ArialMT-30" transform="translate(55.615234 0.99375)"/>
       <use xlink:href="#ArialMT-2212" transform="translate(112.972813 70.6875)scale(0.7)"/>
       <use xlink:href="#ArialMT-32" transform="translate(153.851719 70.6875)scale(0.7)"/>
      </g>
     </g>
    </g>
    <g id="ytick_2">
     <g id="line2d_5"/>
     <g id="text_5">
      <!-- $\mathdefault{10^{-1}}$ -->
      <g transform="translate(30.496563 134.685165)scale(0.165 -0.165)">
       <use xlink:href="#ArialMT-31" transform="translate(0 0.99375)"/>
       <use xlink:href="#ArialMT-30" transform="translate(55.615234 0.99375)"/>
       <use xlink:href="#ArialMT-2212" transform="translate(112.972813 70.6875)scale(0.7)"/>
       <use xlink:href="#ArialMT-31" transform="translate(153.851719 70.6875)scale(0.7)"/>
      </g>
     </g>
    </g>
    <g id="ytick_3">
     <g id="line2d_6"/>
     <g id="text_6">
      <!-- $\mathdefault{10^{0}}$ -->
      <g transform="translate(37.261563 33.143472)scale(0.165 -0.165)">
       <use xlink:href="#ArialMT-31" transform="translate(0 0.99375)"/>
       <use xlink:href="#ArialMT-30" transform="translate(55.615234 0.99375)"/>
       <use xlink:href="#ArialMT-30" transform="translate(112.972813 70.6875)scale(0.7)"/>
      </g>
     </g>
    </g>
    <g id="ytick_4">
     <g id="line2d_7">
      <defs>
       <path id="ma561db882a" d="M 0 0 
L -6 0 
" style="stroke: #000000; stroke-width: 1.5"/>
      </defs>
      <g>
       <use xlink:href="#ma561db882a" x="66.666563" y="268.126547" style="stroke: #000000; stroke-width: 1.5"/>
      </g>
     </g>
    </g>
    <g id="ytick_5">
     <g id="line2d_8">
      <g>
       <use xlink:href="#ma561db882a" x="66.666563" y="258.28614" style="stroke: #000000; stroke-width: 1.5"/>
      </g>
     </g>
    </g>
    <g id="ytick_6">
     <g id="line2d_9">
      <g>
       <use xlink:href="#ma561db882a" x="66.666563" y="250.245942" style="stroke: #000000; stroke-width: 1.5"/>
      </g>
     </g>
    </g>
    <g id="ytick_7">
     <g id="line2d_10">
      <g>
       <use xlink:href="#ma561db882a" x="66.666563" y="243.448052" style="stroke: #000000; stroke-width: 1.5"/>
      </g>
     </g>
    </g>
    <g id="ytick_8">
     <g id="line2d_11">
      <g>
       <use xlink:href="#ma561db882a" x="66.666563" y="237.559452" style="stroke: #000000; stroke-width: 1.5"/>
      </g>
     </g>
    </g>
    <g id="ytick_9">
     <g id="line2d_12">
      <g>
       <use xlink:href="#ma561db882a" x="66.666563" y="232.365338" style="stroke: #000000; stroke-width: 1.5"/>
      </g>
     </g>
    </g>
    <g id="ytick_10">
     <g id="line2d_13">
      <g>
       <use xlink:href="#ma561db882a" x="66.666563" y="197.15195" style="stroke: #000000; stroke-width: 1.5"/>
      </g>
     </g>
    </g>
    <g id="ytick_11">
     <g id="line2d_14">
      <g>
       <use xlink:href="#ma561db882a" x="66.666563" y="179.271345" style="stroke: #000000; stroke-width: 1.5"/>
      </g>
     </g>
    </g>
    <g id="ytick_12">
     <g id="line2d_15">
      <g>
       <use xlink:href="#ma561db882a" x="66.666563" y="166.584854" style="stroke: #000000; stroke-width: 1.5"/>
      </g>
     </g>
    </g>
    <g id="ytick_13">
     <g id="line2d_16">
      <g>
       <use xlink:href="#ma561db882a" x="66.666563" y="156.744448" style="stroke: #000000; stroke-width: 1.5"/>
      </g>
     </g>
    </g>
    <g id="ytick_14">
     <g id="line2d_17">
      <g>
       <use xlink:href="#ma561db882a" x="66.666563" y="148.70425" style="stroke: #000000; stroke-width: 1.5"/>
      </g>
     </g>
    </g>
    <g id="ytick_15">
     <g id="line2d_18">
      <g>
       <use xlink:href="#ma561db882a" x="66.666563" y="141.906359" style="stroke: #000000; stroke-width: 1.5"/>
      </g>
     </g>
    </g>
    <g id="ytick_16">
     <g id="line2d_19">
      <g>
       <use xlink:href="#ma561db882a" x="66.666563" y="136.017759" style="stroke: #000000; stroke-width: 1.5"/>
      </g>
     </g>
    </g>
    <g id="ytick_17">
     <g id="line2d_20">
      <g>
       <use xlink:href="#ma561db882a" x="66.666563" y="130.823645" style="stroke: #000000; stroke-width: 1.5"/>
      </g>
     </g>
    </g>
    <g id="ytick_18">
     <g id="line2d_21">
      <g>
       <use xlink:href="#ma561db882a" x="66.666563" y="95.610257" style="stroke: #000000; stroke-width: 1.5"/>
      </g>
     </g>
    </g>
    <g id="ytick_19">
     <g id="line2d_22">
      <g>
       <use xlink:href="#ma561db882a" x="66.666563" y="77.729653" style="stroke: #000000; stroke-width: 1.5"/>
      </g>
     </g>
    </g>
    <g id="ytick_20">
     <g id="line2d_23">
      <g>
       <use xlink:href="#ma561db882a" x="66.666563" y="65.043162" style="stroke: #000000; stroke-width: 1.5"/>
      </g>
     </g>
    </g>
    <g id="ytick_21">
     <g id="line2d_24">
      <g>
       <use xlink:href="#ma561db882a" x="66.666563" y="55.202755" style="stroke: #000000; stroke-width: 1.5"/>
      </g>
     </g>
    </g>
    <g id="ytick_22">
     <g id="line2d_25">
      <g>
       <use xlink:href="#ma561db882a" x="66.666563" y="47.162557" style="stroke: #000000; stroke-width: 1.5"/>
      </g>
     </g>
    </g>
    <g id="ytick_23">
     <g id="line2d_26">
      <g>
       <use xlink:href="#ma561db882a" x="66.666563" y="40.364667" style="stroke: #000000; stroke-width: 1.5"/>
      </g>
     </g>
    </g>
    <g id="ytick_24">
     <g id="line2d_27">
      <g>
       <use xlink:href="#ma561db882a" x="66.666563" y="34.476067" style="stroke: #000000; stroke-width: 1.5"/>
      </g>
     </g>
    </g>
    <g id="ytick_25">
     <g id="line2d_28">
      <g>
       <use xlink:href="#ma561db882a" x="66.666563" y="29.281953" style="stroke: #000000; stroke-width: 1.5"/>
      </g>
     </g>
    </g>
    <g id="text_7">
     <!-- p-value -->
     <g transform="translate(22.919063 175.545298)rotate(-90)scale(0.18 -0.18)">
      <defs>
       <path id="ArialMT-70" d="M 422 -1272 
L 422 3319 
L 934 3319 
L 934 2888 
Q 1116 3141 1344 3267 
Q 1572 3394 1897 3394 
Q 2322 3394 2647 3175 
Q 2972 2956 3137 2557 
Q 3303 2159 3303 1684 
Q 3303 1175 3120 767 
Q 2938 359 2589 142 
Q 2241 -75 1856 -75 
Q 1575 -75 1351 44 
Q 1128 163 984 344 
L 984 -1272 
L 422 -1272 
z
M 931 1641 
Q 931 1000 1190 694 
Q 1450 388 1819 388 
Q 2194 388 2461 705 
Q 2728 1022 2728 1688 
Q 2728 2322 2467 2637 
Q 2206 2953 1844 2953 
Q 1484 2953 1207 2617 
Q 931 2281 931 1641 
z
" transform="scale(0.015625)"/>
       <path id="ArialMT-2d" d="M 203 1375 
L 203 1941 
L 1931 1941 
L 1931 1375 
L 203 1375 
z
" transform="scale(0.015625)"/>
       <path id="ArialMT-76" d="M 1344 0 
L 81 3319 
L 675 3319 
L 1388 1331 
Q 1503 1009 1600 663 
Q 1675 925 1809 1294 
L 2547 3319 
L 3125 3319 
L 1869 0 
L 1344 0 
z
" transform="scale(0.015625)"/>
       <path id="ArialMT-61" d="M 2588 409 
Q 2275 144 1986 34 
Q 1697 -75 1366 -75 
Q 819 -75 525 192 
Q 231 459 231 875 
Q 231 1119 342 1320 
Q 453 1522 633 1644 
Q 813 1766 1038 1828 
Q 1203 1872 1538 1913 
Q 2219 1994 2541 2106 
Q 2544 2222 2544 2253 
Q 2544 2597 2384 2738 
Q 2169 2928 1744 2928 
Q 1347 2928 1158 2789 
Q 969 2650 878 2297 
L 328 2372 
Q 403 2725 575 2942 
Q 747 3159 1072 3276 
Q 1397 3394 1825 3394 
Q 2250 3394 2515 3294 
Q 2781 3194 2906 3042 
Q 3031 2891 3081 2659 
Q 3109 2516 3109 2141 
L 3109 1391 
Q 3109 606 3145 398 
Q 3181 191 3288 0 
L 2700 0 
Q 2613 175 2588 409 
z
M 2541 1666 
Q 2234 1541 1622 1453 
Q 1275 1403 1131 1340 
Q 988 1278 909 1158 
Q 831 1038 831 891 
Q 831 666 1001 516 
Q 1172 366 1500 366 
Q 1825 366 2078 508 
Q 2331 650 2450 897 
Q 2541 1088 2541 1459 
L 2541 1666 
z
" transform="scale(0.015625)"/>
       <path id="ArialMT-6c" d="M 409 0 
L 409 4581 
L 972 4581 
L 972 0 
L 409 0 
z
" transform="scale(0.015625)"/>
       <path id="ArialMT-75" d="M 2597 0 
L 2597 488 
Q 2209 -75 1544 -75 
Q 1250 -75 995 37 
Q 741 150 617 320 
Q 494 491 444 738 
Q 409 903 409 1263 
L 409 3319 
L 972 3319 
L 972 1478 
Q 972 1038 1006 884 
Q 1059 663 1231 536 
Q 1403 409 1656 409 
Q 1909 409 2131 539 
Q 2353 669 2445 892 
Q 2538 1116 2538 1541 
L 2538 3319 
L 3100 3319 
L 3100 0 
L 2597 0 
z
" transform="scale(0.015625)"/>
       <path id="ArialMT-65" d="M 2694 1069 
L 3275 997 
Q 3138 488 2766 206 
Q 2394 -75 1816 -75 
Q 1088 -75 661 373 
Q 234 822 234 1631 
Q 234 2469 665 2931 
Q 1097 3394 1784 3394 
Q 2450 3394 2872 2941 
Q 3294 2488 3294 1666 
Q 3294 1616 3291 1516 
L 816 1516 
Q 847 969 1125 678 
Q 1403 388 1819 388 
Q 2128 388 2347 550 
Q 2566 713 2694 1069 
z
M 847 1978 
L 2700 1978 
Q 2663 2397 2488 2606 
Q 2219 2931 1791 2931 
Q 1403 2931 1139 2672 
Q 875 2413 847 1978 
z
" transform="scale(0.015625)"/>
      </defs>
      <use xlink:href="#ArialMT-70"/>
      <use xlink:href="#ArialMT-2d" x="55.615234"/>
      <use xlink:href="#ArialMT-76" x="88.916016"/>
      <use xlink:href="#ArialMT-61" x="138.916016"/>
      <use xlink:href="#ArialMT-6c" x="194.53125"/>
      <use xlink:href="#ArialMT-75" x="216.748047"/>
      <use xlink:href="#ArialMT-65" x="272.363281"/>
     </g>
    </g>
   </g>
   <g id="PolyCollection_1">
    <defs>
     <path id="m375e903c44" d="M 77.856402 -576.225882 
L 77.856402 -569.596398 
L 122.61576 -559.326905 
L 167.375119 -546.470586 
L 212.134477 -542.006767 
L 256.893835 -518.617169 
L 301.653194 -518.295408 
L 301.653194 -539.753088 
L 301.653194 -539.753088 
L 256.893835 -539.546128 
L 212.134477 -557.792268 
L 167.375119 -560.725989 
L 122.61576 -570.290307 
L 77.856402 -576.225882 
z
" style="stroke: #1f77b4; stroke-opacity: 0.2; stroke-width: 1.5"/>
    </defs>
    <g clip-path="url(#p6d589f4304)">
     <use xlink:href="#m375e903c44" x="0" y="608.735391" style="fill: #1f77b4; fill-opacity: 0.2; stroke: #1f77b4; stroke-opacity: 0.2; stroke-width: 1.5"/>
    </g>
   </g>
   <g id="PolyCollection_2">
    <defs>
     <path id="mcabbcd5298" d="M 77.856402 -563.255716 
L 77.856402 -554.529604 
L 122.61576 -537.918344 
L 167.375119 -506.650191 
L 212.134477 -491.444011 
L 256.893835 -442.928875 
L 301.653194 -429.489186 
L 301.653194 -468.796056 
L 301.653194 -468.796056 
L 256.893835 -479.362398 
L 212.134477 -518.400182 
L 167.375119 -528.247316 
L 122.61576 -551.863199 
L 77.856402 -563.255716 
z
" style="stroke: #ff7f0e; stroke-opacity: 0.2; stroke-width: 1.5"/>
    </defs>
    <g clip-path="url(#p6d589f4304)">
     <use xlink:href="#mcabbcd5298" x="0" y="608.735391" style="fill: #ff7f0e; fill-opacity: 0.2; stroke: #ff7f0e; stroke-opacity: 0.2; stroke-width: 1.5"/>
    </g>
   </g>
   <g id="PolyCollection_3">
    <defs>
     <path id="m3398eb186d" d="M 77.856402 -560.90796 
L 77.856402 -546.436793 
L 122.61576 -545.037277 
L 167.375119 -527.9886 
L 212.134477 -535.221303 
L 256.893835 -534.293239 
L 301.653194 -538.490943 
L 301.653194 -555.985786 
L 301.653194 -555.985786 
L 256.893835 -555.695683 
L 212.134477 -553.883687 
L 167.375119 -547.755944 
L 122.61576 -559.627127 
L 77.856402 -560.90796 
z
" style="stroke: #2ca02c; stroke-opacity: 0.2; stroke-width: 1.5"/>
    </defs>
    <g clip-path="url(#p6d589f4304)">
     <use xlink:href="#m3398eb186d" x="0" y="608.735391" style="fill: #2ca02c; fill-opacity: 0.2; stroke: #2ca02c; stroke-opacity: 0.2; stroke-width: 1.5"/>
    </g>
   </g>
   <g id="line2d_29">
    <path d="M 77.856402 35.675531 
L 122.61576 43.618709 
L 167.375119 54.305819 
L 212.134477 57.744676 
L 256.893835 78.801331 
L 301.653194 78.425387 
" clip-path="url(#p6d589f4304)" style="fill: none; stroke: #1f77b4; stroke-width: 2.25; stroke-linecap: round"/>
   </g>
   <g id="line2d_30">
    <path d="M 77.856402 49.841165 
L 122.61576 63.767514 
L 167.375119 90.568078 
L 212.134477 102.621229 
L 256.893835 145.278024 
L 301.653194 156.70047 
" clip-path="url(#p6d589f4304)" style="fill: none; stroke-dasharray: 9,3.375; stroke-dashoffset: 0; stroke: #ff7f0e; stroke-width: 2.25"/>
   </g>
   <g id="line2d_31">
    <path d="M 77.856402 54.314021 
L 122.61576 55.897517 
L 167.375119 69.954265 
L 212.134477 63.585609 
L 256.893835 62.550521 
L 301.653194 60.647329 
" clip-path="url(#p6d589f4304)" style="fill: none; stroke-dasharray: 2.25,2.25; stroke-dashoffset: 0; stroke: #2ca02c; stroke-width: 2.25"/>
   </g>
   <g id="line2d_32"/>
   <g id="line2d_33"/>
   <g id="line2d_34"/>
   <g id="line2d_35">
    <path d="M 66.666563 156.744448 
L 312.843033 156.744448 
" clip-path="url(#p6d589f4304)" style="fill: none; stroke-dasharray: 2.25,3.7125; stroke-dashoffset: 0; stroke: #696969; stroke-width: 2.25"/>
   </g>
   <g id="line2d_36">
    <path d="M 66.666563 258.28614 
L 312.843033 258.28614 
" clip-path="url(#p6d589f4304)" style="fill: none; stroke-dasharray: 8.325,3.6; stroke-dashoffset: 0; stroke: #696969; stroke-width: 2.25"/>
   </g>
   <g id="patch_3">
    <path d="M 66.666563 269.574972 
L 66.666563 22.484063 
" style="fill: none; stroke: #000000; stroke-width: 1.875; stroke-linejoin: miter; stroke-linecap: square"/>
   </g>
   <g id="patch_4">
    <path d="M 66.666563 269.574972 
L 312.843033 269.574972 
" style="fill: none; stroke: #000000; stroke-width: 1.875; stroke-linejoin: miter; stroke-linecap: square"/>
   </g>
   <g id="text_8">
    <!-- Perturbation size = 0.1 -->
    <g transform="translate(99.456673 16.484063)scale(0.18 -0.18)">
     <defs>
      <path id="ArialMT-50" d="M 494 0 
L 494 4581 
L 2222 4581 
Q 2678 4581 2919 4538 
Q 3256 4481 3484 4323 
Q 3713 4166 3852 3881 
Q 3991 3597 3991 3256 
Q 3991 2672 3619 2267 
Q 3247 1863 2275 1863 
L 1100 1863 
L 1100 0 
L 494 0 
z
M 1100 2403 
L 2284 2403 
Q 2872 2403 3119 2622 
Q 3366 2841 3366 3238 
Q 3366 3525 3220 3729 
Q 3075 3934 2838 4000 
Q 2684 4041 2272 4041 
L 1100 4041 
L 1100 2403 
z
" transform="scale(0.015625)"/>
      <path id="ArialMT-72" d="M 416 0 
L 416 3319 
L 922 3319 
L 922 2816 
Q 1116 3169 1280 3281 
Q 1444 3394 1641 3394 
Q 1925 3394 2219 3213 
L 2025 2691 
Q 1819 2813 1613 2813 
Q 1428 2813 1281 2702 
Q 1134 2591 1072 2394 
Q 978 2094 978 1738 
L 978 0 
L 416 0 
z
" transform="scale(0.015625)"/>
      <path id="ArialMT-74" d="M 1650 503 
L 1731 6 
Q 1494 -44 1306 -44 
Q 1000 -44 831 53 
Q 663 150 594 308 
Q 525 466 525 972 
L 525 2881 
L 113 2881 
L 113 3319 
L 525 3319 
L 525 4141 
L 1084 4478 
L 1084 3319 
L 1650 3319 
L 1650 2881 
L 1084 2881 
L 1084 941 
Q 1084 700 1114 631 
Q 1144 563 1211 522 
Q 1278 481 1403 481 
Q 1497 481 1650 503 
z
" transform="scale(0.015625)"/>
      <path id="ArialMT-62" d="M 941 0 
L 419 0 
L 419 4581 
L 981 4581 
L 981 2947 
Q 1338 3394 1891 3394 
Q 2197 3394 2470 3270 
Q 2744 3147 2920 2923 
Q 3097 2700 3197 2384 
Q 3297 2069 3297 1709 
Q 3297 856 2875 390 
Q 2453 -75 1863 -75 
Q 1275 -75 941 416 
L 941 0 
z
M 934 1684 
Q 934 1088 1097 822 
Q 1363 388 1816 388 
Q 2184 388 2453 708 
Q 2722 1028 2722 1663 
Q 2722 2313 2464 2622 
Q 2206 2931 1841 2931 
Q 1472 2931 1203 2611 
Q 934 2291 934 1684 
z
" transform="scale(0.015625)"/>
      <path id="ArialMT-69" d="M 425 3934 
L 425 4581 
L 988 4581 
L 988 3934 
L 425 3934 
z
M 425 0 
L 425 3319 
L 988 3319 
L 988 0 
L 425 0 
z
" transform="scale(0.015625)"/>
      <path id="ArialMT-6f" d="M 213 1659 
Q 213 2581 725 3025 
Q 1153 3394 1769 3394 
Q 2453 3394 2887 2945 
Q 3322 2497 3322 1706 
Q 3322 1066 3130 698 
Q 2938 331 2570 128 
Q 2203 -75 1769 -75 
Q 1072 -75 642 372 
Q 213 819 213 1659 
z
M 791 1659 
Q 791 1022 1069 705 
Q 1347 388 1769 388 
Q 2188 388 2466 706 
Q 2744 1025 2744 1678 
Q 2744 2294 2464 2611 
Q 2184 2928 1769 2928 
Q 1347 2928 1069 2612 
Q 791 2297 791 1659 
z
" transform="scale(0.015625)"/>
      <path id="ArialMT-6e" d="M 422 0 
L 422 3319 
L 928 3319 
L 928 2847 
Q 1294 3394 1984 3394 
Q 2284 3394 2536 3286 
Q 2788 3178 2913 3003 
Q 3038 2828 3088 2588 
Q 3119 2431 3119 2041 
L 3119 0 
L 2556 0 
L 2556 2019 
Q 2556 2363 2490 2533 
Q 2425 2703 2258 2804 
Q 2091 2906 1866 2906 
Q 1506 2906 1245 2678 
Q 984 2450 984 1813 
L 984 0 
L 422 0 
z
" transform="scale(0.015625)"/>
      <path id="ArialMT-20" transform="scale(0.015625)"/>
      <path id="ArialMT-73" d="M 197 991 
L 753 1078 
Q 800 744 1014 566 
Q 1228 388 1613 388 
Q 2000 388 2187 545 
Q 2375 703 2375 916 
Q 2375 1106 2209 1216 
Q 2094 1291 1634 1406 
Q 1016 1563 777 1677 
Q 538 1791 414 1992 
Q 291 2194 291 2438 
Q 291 2659 392 2848 
Q 494 3038 669 3163 
Q 800 3259 1026 3326 
Q 1253 3394 1513 3394 
Q 1903 3394 2198 3281 
Q 2494 3169 2634 2976 
Q 2775 2784 2828 2463 
L 2278 2388 
Q 2241 2644 2061 2787 
Q 1881 2931 1553 2931 
Q 1166 2931 1000 2803 
Q 834 2675 834 2503 
Q 834 2394 903 2306 
Q 972 2216 1119 2156 
Q 1203 2125 1616 2013 
Q 2213 1853 2448 1751 
Q 2684 1650 2818 1456 
Q 2953 1263 2953 975 
Q 2953 694 2789 445 
Q 2625 197 2315 61 
Q 2006 -75 1616 -75 
Q 969 -75 630 194 
Q 291 463 197 991 
z
" transform="scale(0.015625)"/>
      <path id="ArialMT-7a" d="M 125 0 
L 125 456 
L 2238 2881 
Q 1878 2863 1603 2863 
L 250 2863 
L 250 3319 
L 2963 3319 
L 2963 2947 
L 1166 841 
L 819 456 
Q 1197 484 1528 484 
L 3063 484 
L 3063 0 
L 125 0 
z
" transform="scale(0.015625)"/>
      <path id="ArialMT-3d" d="M 3381 2694 
L 356 2694 
L 356 3219 
L 3381 3219 
L 3381 2694 
z
M 3381 1303 
L 356 1303 
L 356 1828 
L 3381 1828 
L 3381 1303 
z
" transform="scale(0.015625)"/>
      <path id="ArialMT-2e" d="M 581 0 
L 581 641 
L 1222 641 
L 1222 0 
L 581 0 
z
" transform="scale(0.015625)"/>
     </defs>
     <use xlink:href="#ArialMT-50"/>
     <use xlink:href="#ArialMT-65" x="66.699219"/>
     <use xlink:href="#ArialMT-72" x="122.314453"/>
     <use xlink:href="#ArialMT-74" x="155.615234"/>
     <use xlink:href="#ArialMT-75" x="183.398438"/>
     <use xlink:href="#ArialMT-72" x="239.013672"/>
     <use xlink:href="#ArialMT-62" x="272.314453"/>
     <use xlink:href="#ArialMT-61" x="327.929688"/>
     <use xlink:href="#ArialMT-74" x="383.544922"/>
     <use xlink:href="#ArialMT-69" x="411.328125"/>
     <use xlink:href="#ArialMT-6f" x="433.544922"/>
     <use xlink:href="#ArialMT-6e" x="489.160156"/>
     <use xlink:href="#ArialMT-20" x="544.775391"/>
     <use xlink:href="#ArialMT-73" x="572.558594"/>
     <use xlink:href="#ArialMT-69" x="622.558594"/>
     <use xlink:href="#ArialMT-7a" x="644.775391"/>
     <use xlink:href="#ArialMT-65" x="694.775391"/>
     <use xlink:href="#ArialMT-20" x="750.390625"/>
     <use xlink:href="#ArialMT-3d" x="778.173828"/>
     <use xlink:href="#ArialMT-20" x="836.572266"/>
     <use xlink:href="#ArialMT-30" x="864.355469"/>
     <use xlink:href="#ArialMT-2e" x="919.970703"/>
     <use xlink:href="#ArialMT-31" x="947.753906"/>
    </g>
   </g>
  </g>
  <g id="axes_2">
   <g id="patch_5">
    <path d="M 362.078327 269.574972 
L 608.254798 269.574972 
L 608.254798 22.484063 
L 362.078327 22.484063 
z
" style="fill: #ffffff"/>
   </g>
   <g id="matplotlib.axis_3">
    <g id="xtick_4">
     <g id="line2d_37"/>
     <g id="text_9">
      <!-- 0 -->
      <g transform="translate(368.680393 284.885362)scale(0.165 -0.165)">
       <use xlink:href="#ArialMT-30"/>
      </g>
     </g>
    </g>
    <g id="xtick_5">
     <g id="line2d_38"/>
     <g id="text_10">
      <!-- 50 -->
      <g transform="translate(453.611336 284.885362)scale(0.165 -0.165)">
       <use xlink:href="#ArialMT-35"/>
       <use xlink:href="#ArialMT-30" x="55.615234"/>
      </g>
     </g>
    </g>
    <g id="xtick_6">
     <g id="line2d_39"/>
     <g id="text_11">
      <!-- 100 -->
      <g transform="translate(538.54228 284.885362)scale(0.165 -0.165)">
       <use xlink:href="#ArialMT-31"/>
       <use xlink:href="#ArialMT-30" x="55.615234"/>
       <use xlink:href="#ArialMT-30" x="111.230469"/>
      </g>
     </g>
    </g>
   </g>
   <g id="matplotlib.axis_4">
    <g id="ytick_26">
     <g id="line2d_40"/>
     <g id="text_12">
      <!-- $\mathdefault{10^{-5}}$ -->
      <g transform="translate(325.908327 242.298796)scale(0.165 -0.165)">
       <use xlink:href="#ArialMT-31" transform="translate(0 0.879688)"/>
       <use xlink:href="#ArialMT-30" transform="translate(55.615234 0.879688)"/>
       <use xlink:href="#ArialMT-2212" transform="translate(112.972813 70.573438)scale(0.7)"/>
       <use xlink:href="#ArialMT-35" transform="translate(153.851719 70.573438)scale(0.7)"/>
      </g>
     </g>
    </g>
    <g id="ytick_27">
     <g id="line2d_41"/>
     <g id="text_13">
      <!-- $\mathdefault{10^{-4}}$ -->
      <g transform="translate(325.908327 200.199323)scale(0.165 -0.165)">
       <defs>
        <path id="ArialMT-34" d="M 2069 0 
L 2069 1097 
L 81 1097 
L 81 1613 
L 2172 4581 
L 2631 4581 
L 2631 1613 
L 3250 1613 
L 3250 1097 
L 2631 1097 
L 2631 0 
L 2069 0 
z
M 2069 1613 
L 2069 3678 
L 634 1613 
L 2069 1613 
z
" transform="scale(0.015625)"/>
       </defs>
       <use xlink:href="#ArialMT-31" transform="translate(0 0.201563)"/>
       <use xlink:href="#ArialMT-30" transform="translate(55.615234 0.201563)"/>
       <use xlink:href="#ArialMT-2212" transform="translate(112.972813 69.895313)scale(0.7)"/>
       <use xlink:href="#ArialMT-34" transform="translate(153.851719 69.895313)scale(0.7)"/>
      </g>
     </g>
    </g>
    <g id="ytick_28">
     <g id="line2d_42"/>
     <g id="text_14">
      <!-- $\mathdefault{10^{-3}}$ -->
      <g transform="translate(325.908327 158.182351)scale(0.165 -0.165)">
       <defs>
        <path id="ArialMT-33" d="M 269 1209 
L 831 1284 
Q 928 806 1161 595 
Q 1394 384 1728 384 
Q 2125 384 2398 659 
Q 2672 934 2672 1341 
Q 2672 1728 2419 1979 
Q 2166 2231 1775 2231 
Q 1616 2231 1378 2169 
L 1441 2663 
Q 1497 2656 1531 2656 
Q 1891 2656 2178 2843 
Q 2466 3031 2466 3422 
Q 2466 3731 2256 3934 
Q 2047 4138 1716 4138 
Q 1388 4138 1169 3931 
Q 950 3725 888 3313 
L 325 3413 
Q 428 3978 793 4289 
Q 1159 4600 1703 4600 
Q 2078 4600 2393 4439 
Q 2709 4278 2876 4000 
Q 3044 3722 3044 3409 
Q 3044 3113 2884 2869 
Q 2725 2625 2413 2481 
Q 2819 2388 3044 2092 
Q 3269 1797 3269 1353 
Q 3269 753 2831 336 
Q 2394 -81 1725 -81 
Q 1122 -81 723 278 
Q 325 638 269 1209 
z
" transform="scale(0.015625)"/>
       </defs>
       <use xlink:href="#ArialMT-31" transform="translate(0 0.99375)"/>
       <use xlink:href="#ArialMT-30" transform="translate(55.615234 0.99375)"/>
       <use xlink:href="#ArialMT-2212" transform="translate(112.972813 70.6875)scale(0.7)"/>
       <use xlink:href="#ArialMT-33" transform="translate(153.851719 70.6875)scale(0.7)"/>
      </g>
     </g>
    </g>
    <g id="ytick_29">
     <g id="line2d_43"/>
     <g id="text_15">
      <!-- $\mathdefault{10^{-2}}$ -->
      <g transform="translate(325.908327 116.082878)scale(0.165 -0.165)">
       <use xlink:href="#ArialMT-31" transform="translate(0 0.99375)"/>
       <use xlink:href="#ArialMT-30" transform="translate(55.615234 0.99375)"/>
       <use xlink:href="#ArialMT-2212" transform="translate(112.972813 70.6875)scale(0.7)"/>
       <use xlink:href="#ArialMT-32" transform="translate(153.851719 70.6875)scale(0.7)"/>
      </g>
     </g>
    </g>
    <g id="ytick_30">
     <g id="line2d_44"/>
     <g id="text_16">
      <!-- $\mathdefault{10^{-1}}$ -->
      <g transform="translate(325.908327 73.983406)scale(0.165 -0.165)">
       <use xlink:href="#ArialMT-31" transform="translate(0 0.99375)"/>
       <use xlink:href="#ArialMT-30" transform="translate(55.615234 0.99375)"/>
       <use xlink:href="#ArialMT-2212" transform="translate(112.972813 70.6875)scale(0.7)"/>
       <use xlink:href="#ArialMT-31" transform="translate(153.851719 70.6875)scale(0.7)"/>
      </g>
     </g>
    </g>
    <g id="ytick_31">
     <g id="line2d_45"/>
     <g id="text_17">
      <!-- $\mathdefault{10^{0}}$ -->
      <g transform="translate(332.673327 31.883933)scale(0.165 -0.165)">
       <use xlink:href="#ArialMT-31" transform="translate(0 0.99375)"/>
       <use xlink:href="#ArialMT-30" transform="translate(55.615234 0.99375)"/>
       <use xlink:href="#ArialMT-30" transform="translate(112.972813 70.6875)scale(0.7)"/>
      </g>
     </g>
    </g>
    <g id="ytick_32">
     <g id="line2d_46">
      <g>
       <use xlink:href="#ma561db882a" x="362.078327" y="263.299752" style="stroke: #000000; stroke-width: 1.5"/>
      </g>
     </g>
    </g>
    <g id="ytick_33">
     <g id="line2d_47">
      <g>
       <use xlink:href="#ma561db882a" x="362.078327" y="255.886403" style="stroke: #000000; stroke-width: 1.5"/>
      </g>
     </g>
    </g>
    <g id="ytick_34">
     <g id="line2d_48">
      <g>
       <use xlink:href="#ma561db882a" x="362.078327" y="250.626548" style="stroke: #000000; stroke-width: 1.5"/>
      </g>
     </g>
    </g>
    <g id="ytick_35">
     <g id="line2d_49">
      <g>
       <use xlink:href="#ma561db882a" x="362.078327" y="246.546688" style="stroke: #000000; stroke-width: 1.5"/>
      </g>
     </g>
    </g>
    <g id="ytick_36">
     <g id="line2d_50">
      <g>
       <use xlink:href="#ma561db882a" x="362.078327" y="243.213199" style="stroke: #000000; stroke-width: 1.5"/>
      </g>
     </g>
    </g>
    <g id="ytick_37">
     <g id="line2d_51">
      <g>
       <use xlink:href="#ma561db882a" x="362.078327" y="240.394774" style="stroke: #000000; stroke-width: 1.5"/>
      </g>
     </g>
    </g>
    <g id="ytick_38">
     <g id="line2d_52">
      <g>
       <use xlink:href="#ma561db882a" x="362.078327" y="237.953344" style="stroke: #000000; stroke-width: 1.5"/>
      </g>
     </g>
    </g>
    <g id="ytick_39">
     <g id="line2d_53">
      <g>
       <use xlink:href="#ma561db882a" x="362.078327" y="235.79985" style="stroke: #000000; stroke-width: 1.5"/>
      </g>
     </g>
    </g>
    <g id="ytick_40">
     <g id="line2d_54">
      <g>
       <use xlink:href="#ma561db882a" x="362.078327" y="221.200279" style="stroke: #000000; stroke-width: 1.5"/>
      </g>
     </g>
    </g>
    <g id="ytick_41">
     <g id="line2d_55">
      <g>
       <use xlink:href="#ma561db882a" x="362.078327" y="213.78693" style="stroke: #000000; stroke-width: 1.5"/>
      </g>
     </g>
    </g>
    <g id="ytick_42">
     <g id="line2d_56">
      <g>
       <use xlink:href="#ma561db882a" x="362.078327" y="208.527075" style="stroke: #000000; stroke-width: 1.5"/>
      </g>
     </g>
    </g>
    <g id="ytick_43">
     <g id="line2d_57">
      <g>
       <use xlink:href="#ma561db882a" x="362.078327" y="204.447215" style="stroke: #000000; stroke-width: 1.5"/>
      </g>
     </g>
    </g>
    <g id="ytick_44">
     <g id="line2d_58">
      <g>
       <use xlink:href="#ma561db882a" x="362.078327" y="201.113726" style="stroke: #000000; stroke-width: 1.5"/>
      </g>
     </g>
    </g>
    <g id="ytick_45">
     <g id="line2d_59">
      <g>
       <use xlink:href="#ma561db882a" x="362.078327" y="198.295302" style="stroke: #000000; stroke-width: 1.5"/>
      </g>
     </g>
    </g>
    <g id="ytick_46">
     <g id="line2d_60">
      <g>
       <use xlink:href="#ma561db882a" x="362.078327" y="195.853871" style="stroke: #000000; stroke-width: 1.5"/>
      </g>
     </g>
    </g>
    <g id="ytick_47">
     <g id="line2d_61">
      <g>
       <use xlink:href="#ma561db882a" x="362.078327" y="193.700377" style="stroke: #000000; stroke-width: 1.5"/>
      </g>
     </g>
    </g>
    <g id="ytick_48">
     <g id="line2d_62">
      <g>
       <use xlink:href="#ma561db882a" x="362.078327" y="179.100807" style="stroke: #000000; stroke-width: 1.5"/>
      </g>
     </g>
    </g>
    <g id="ytick_49">
     <g id="line2d_63">
      <g>
       <use xlink:href="#ma561db882a" x="362.078327" y="171.687458" style="stroke: #000000; stroke-width: 1.5"/>
      </g>
     </g>
    </g>
    <g id="ytick_50">
     <g id="line2d_64">
      <g>
       <use xlink:href="#ma561db882a" x="362.078327" y="166.427603" style="stroke: #000000; stroke-width: 1.5"/>
      </g>
     </g>
    </g>
    <g id="ytick_51">
     <g id="line2d_65">
      <g>
       <use xlink:href="#ma561db882a" x="362.078327" y="162.347742" style="stroke: #000000; stroke-width: 1.5"/>
      </g>
     </g>
    </g>
    <g id="ytick_52">
     <g id="line2d_66">
      <g>
       <use xlink:href="#ma561db882a" x="362.078327" y="159.014254" style="stroke: #000000; stroke-width: 1.5"/>
      </g>
     </g>
    </g>
    <g id="ytick_53">
     <g id="line2d_67">
      <g>
       <use xlink:href="#ma561db882a" x="362.078327" y="156.195829" style="stroke: #000000; stroke-width: 1.5"/>
      </g>
     </g>
    </g>
    <g id="ytick_54">
     <g id="line2d_68">
      <g>
       <use xlink:href="#ma561db882a" x="362.078327" y="153.754399" style="stroke: #000000; stroke-width: 1.5"/>
      </g>
     </g>
    </g>
    <g id="ytick_55">
     <g id="line2d_69">
      <g>
       <use xlink:href="#ma561db882a" x="362.078327" y="151.600905" style="stroke: #000000; stroke-width: 1.5"/>
      </g>
     </g>
    </g>
    <g id="ytick_56">
     <g id="line2d_70">
      <g>
       <use xlink:href="#ma561db882a" x="362.078327" y="137.001334" style="stroke: #000000; stroke-width: 1.5"/>
      </g>
     </g>
    </g>
    <g id="ytick_57">
     <g id="line2d_71">
      <g>
       <use xlink:href="#ma561db882a" x="362.078327" y="129.587985" style="stroke: #000000; stroke-width: 1.5"/>
      </g>
     </g>
    </g>
    <g id="ytick_58">
     <g id="line2d_72">
      <g>
       <use xlink:href="#ma561db882a" x="362.078327" y="124.32813" style="stroke: #000000; stroke-width: 1.5"/>
      </g>
     </g>
    </g>
    <g id="ytick_59">
     <g id="line2d_73">
      <g>
       <use xlink:href="#ma561db882a" x="362.078327" y="120.24827" style="stroke: #000000; stroke-width: 1.5"/>
      </g>
     </g>
    </g>
    <g id="ytick_60">
     <g id="line2d_74">
      <g>
       <use xlink:href="#ma561db882a" x="362.078327" y="116.914781" style="stroke: #000000; stroke-width: 1.5"/>
      </g>
     </g>
    </g>
    <g id="ytick_61">
     <g id="line2d_75">
      <g>
       <use xlink:href="#ma561db882a" x="362.078327" y="114.096357" style="stroke: #000000; stroke-width: 1.5"/>
      </g>
     </g>
    </g>
    <g id="ytick_62">
     <g id="line2d_76">
      <g>
       <use xlink:href="#ma561db882a" x="362.078327" y="111.654926" style="stroke: #000000; stroke-width: 1.5"/>
      </g>
     </g>
    </g>
    <g id="ytick_63">
     <g id="line2d_77">
      <g>
       <use xlink:href="#ma561db882a" x="362.078327" y="109.501432" style="stroke: #000000; stroke-width: 1.5"/>
      </g>
     </g>
    </g>
    <g id="ytick_64">
     <g id="line2d_78">
      <g>
       <use xlink:href="#ma561db882a" x="362.078327" y="94.901862" style="stroke: #000000; stroke-width: 1.5"/>
      </g>
     </g>
    </g>
    <g id="ytick_65">
     <g id="line2d_79">
      <g>
       <use xlink:href="#ma561db882a" x="362.078327" y="87.488513" style="stroke: #000000; stroke-width: 1.5"/>
      </g>
     </g>
    </g>
    <g id="ytick_66">
     <g id="line2d_80">
      <g>
       <use xlink:href="#ma561db882a" x="362.078327" y="82.228658" style="stroke: #000000; stroke-width: 1.5"/>
      </g>
     </g>
    </g>
    <g id="ytick_67">
     <g id="line2d_81">
      <g>
       <use xlink:href="#ma561db882a" x="362.078327" y="78.148797" style="stroke: #000000; stroke-width: 1.5"/>
      </g>
     </g>
    </g>
    <g id="ytick_68">
     <g id="line2d_82">
      <g>
       <use xlink:href="#ma561db882a" x="362.078327" y="74.815309" style="stroke: #000000; stroke-width: 1.5"/>
      </g>
     </g>
    </g>
    <g id="ytick_69">
     <g id="line2d_83">
      <g>
       <use xlink:href="#ma561db882a" x="362.078327" y="71.996884" style="stroke: #000000; stroke-width: 1.5"/>
      </g>
     </g>
    </g>
    <g id="ytick_70">
     <g id="line2d_84">
      <g>
       <use xlink:href="#ma561db882a" x="362.078327" y="69.555454" style="stroke: #000000; stroke-width: 1.5"/>
      </g>
     </g>
    </g>
    <g id="ytick_71">
     <g id="line2d_85">
      <g>
       <use xlink:href="#ma561db882a" x="362.078327" y="67.40196" style="stroke: #000000; stroke-width: 1.5"/>
      </g>
     </g>
    </g>
    <g id="ytick_72">
     <g id="line2d_86">
      <g>
       <use xlink:href="#ma561db882a" x="362.078327" y="52.802389" style="stroke: #000000; stroke-width: 1.5"/>
      </g>
     </g>
    </g>
    <g id="ytick_73">
     <g id="line2d_87">
      <g>
       <use xlink:href="#ma561db882a" x="362.078327" y="45.38904" style="stroke: #000000; stroke-width: 1.5"/>
      </g>
     </g>
    </g>
    <g id="ytick_74">
     <g id="line2d_88">
      <g>
       <use xlink:href="#ma561db882a" x="362.078327" y="40.129185" style="stroke: #000000; stroke-width: 1.5"/>
      </g>
     </g>
    </g>
    <g id="ytick_75">
     <g id="line2d_89">
      <g>
       <use xlink:href="#ma561db882a" x="362.078327" y="36.049325" style="stroke: #000000; stroke-width: 1.5"/>
      </g>
     </g>
    </g>
    <g id="ytick_76">
     <g id="line2d_90">
      <g>
       <use xlink:href="#ma561db882a" x="362.078327" y="32.715836" style="stroke: #000000; stroke-width: 1.5"/>
      </g>
     </g>
    </g>
    <g id="ytick_77">
     <g id="line2d_91">
      <g>
       <use xlink:href="#ma561db882a" x="362.078327" y="29.897412" style="stroke: #000000; stroke-width: 1.5"/>
      </g>
     </g>
    </g>
    <g id="ytick_78">
     <g id="line2d_92">
      <g>
       <use xlink:href="#ma561db882a" x="362.078327" y="27.455981" style="stroke: #000000; stroke-width: 1.5"/>
      </g>
     </g>
    </g>
    <g id="ytick_79">
     <g id="line2d_93">
      <g>
       <use xlink:href="#ma561db882a" x="362.078327" y="25.302487" style="stroke: #000000; stroke-width: 1.5"/>
      </g>
     </g>
    </g>
   </g>
   <g id="PolyCollection_4">
    <defs>
     <path id="m231268f460" d="M 373.268167 -582.860477 
L 373.268167 -580.23084 
L 418.027525 -567.495695 
L 462.786883 -549.523944 
L 507.546242 -521.815672 
L 552.3056 -483.972397 
L 597.064958 -412.978675 
L 597.064958 -456.472357 
L 597.064958 -456.472357 
L 552.3056 -530.115615 
L 507.546242 -542.444575 
L 462.786883 -560.950597 
L 418.027525 -574.283127 
L 373.268167 -582.860477 
z
" style="stroke: #1f77b4; stroke-opacity: 0.2; stroke-width: 1.5"/>
    </defs>
    <g clip-path="url(#p177da9567b)">
     <use xlink:href="#m231268f460" x="0" y="608.735391" style="fill: #1f77b4; fill-opacity: 0.2; stroke: #1f77b4; stroke-opacity: 0.2; stroke-width: 1.5"/>
    </g>
   </g>
   <g id="PolyCollection_5">
    <defs>
     <path id="mb2f319f269" d="M 373.268167 -578.074583 
L 373.268167 -574.520372 
L 418.027525 -547.446192 
L 462.786883 -506.168297 
L 507.546242 -445.798999 
L 552.3056 -420.832739 
L 597.064958 -350.765184 
L 597.064958 -441.966014 
L 597.064958 -441.966014 
L 552.3056 -486.178765 
L 507.546242 -476.704123 
L 462.786883 -532.967318 
L 418.027525 -558.478796 
L 373.268167 -578.074583 
z
" style="stroke: #ff7f0e; stroke-opacity: 0.2; stroke-width: 1.5"/>
    </defs>
    <g clip-path="url(#p177da9567b)">
     <use xlink:href="#mb2f319f269" x="0" y="608.735391" style="fill: #ff7f0e; fill-opacity: 0.2; stroke: #ff7f0e; stroke-opacity: 0.2; stroke-width: 1.5"/>
    </g>
   </g>
   <g id="PolyCollection_6">
    <defs>
     <path id="mcd1213f530" d="M 373.268167 -577.109132 
L 373.268167 -571.995073 
L 418.027525 -565.754538 
L 462.786883 -559.297801 
L 507.546242 -555.968074 
L 552.3056 -544.46926 
L 597.064958 -546.133073 
L 597.064958 -560.45988 
L 597.064958 -560.45988 
L 552.3056 -559.882661 
L 507.546242 -567.5275 
L 462.786883 -568.598419 
L 418.027525 -573.656278 
L 373.268167 -577.109132 
z
" style="stroke: #2ca02c; stroke-opacity: 0.2; stroke-width: 1.5"/>
    </defs>
    <g clip-path="url(#p177da9567b)">
     <use xlink:href="#mcd1213f530" x="0" y="608.735391" style="fill: #2ca02c; fill-opacity: 0.2; stroke: #2ca02c; stroke-opacity: 0.2; stroke-width: 1.5"/>
    </g>
   </g>
   <g id="line2d_94">
    <path d="M 373.268167 26.957397 
L 418.027525 37.398734 
L 462.786883 52.621194 
L 507.546242 74.90783 
L 552.3056 92.268486 
L 597.064958 165.998023 
" clip-path="url(#p177da9567b)" style="fill: none; stroke: #1f77b4; stroke-width: 2.25; stroke-linecap: round"/>
   </g>
   <g id="line2d_95">
    <path d="M 373.268167 32.322518 
L 418.027525 54.994777 
L 462.786883 86.51606 
L 507.546242 143.855089 
L 552.3056 140.37545 
L 597.064958 182.986807 
" clip-path="url(#p177da9567b)" style="fill: none; stroke-dasharray: 9,3.375; stroke-dashoffset: 0; stroke: #ff7f0e; stroke-width: 2.25"/>
   </g>
   <g id="line2d_96">
    <path d="M 373.268167 33.960886 
L 418.027525 38.560296 
L 462.786883 44.176166 
L 507.546242 46.168178 
L 552.3056 55.390541 
L 597.064958 54.343908 
" clip-path="url(#p177da9567b)" style="fill: none; stroke-dasharray: 2.25,2.25; stroke-dashoffset: 0; stroke: #2ca02c; stroke-width: 2.25"/>
   </g>
   <g id="line2d_97"/>
   <g id="line2d_98"/>
   <g id="line2d_99"/>
   <g id="line2d_100">
    <path d="M 362.078327 78.148797 
L 608.254798 78.148797 
" clip-path="url(#p177da9567b)" style="fill: none; stroke-dasharray: 2.25,3.7125; stroke-dashoffset: 0; stroke: #696969; stroke-width: 2.25"/>
   </g>
   <g id="line2d_101">
    <path d="M 362.078327 120.24827 
L 608.254798 120.24827 
" clip-path="url(#p177da9567b)" style="fill: none; stroke-dasharray: 8.325,3.6; stroke-dashoffset: 0; stroke: #696969; stroke-width: 2.25"/>
   </g>
   <g id="patch_6">
    <path d="M 362.078327 269.574972 
L 362.078327 22.484063 
" style="fill: none; stroke: #000000; stroke-width: 1.875; stroke-linejoin: miter; stroke-linecap: square"/>
   </g>
   <g id="patch_7">
    <path d="M 362.078327 269.574972 
L 608.254798 269.574972 
" style="fill: none; stroke: #000000; stroke-width: 1.875; stroke-linejoin: miter; stroke-linecap: square"/>
   </g>
   <g id="text_18">
    <!-- 0.2 -->
    <g transform="translate(472.656563 16.484063)scale(0.18 -0.18)">
     <use xlink:href="#ArialMT-30"/>
     <use xlink:href="#ArialMT-2e" x="55.615234"/>
     <use xlink:href="#ArialMT-32" x="83.398438"/>
    </g>
   </g>
  </g>
  <g id="axes_3">
   <g id="patch_8">
    <path d="M 657.490092 269.574972 
L 903.666563 269.574972 
L 903.666563 22.484063 
L 657.490092 22.484063 
z
" style="fill: #ffffff"/>
   </g>
   <g id="matplotlib.axis_5">
    <g id="xtick_7">
     <g id="line2d_102"/>
     <g id="text_19">
      <!-- 0 -->
      <g transform="translate(664.092158 284.885362)scale(0.165 -0.165)">
       <use xlink:href="#ArialMT-30"/>
      </g>
     </g>
    </g>
    <g id="xtick_8">
     <g id="line2d_103"/>
     <g id="text_20">
      <!-- 50 -->
      <g transform="translate(749.023101 284.885362)scale(0.165 -0.165)">
       <use xlink:href="#ArialMT-35"/>
       <use xlink:href="#ArialMT-30" x="55.615234"/>
      </g>
     </g>
    </g>
    <g id="xtick_9">
     <g id="line2d_104"/>
     <g id="text_21">
      <!-- 100 -->
      <g transform="translate(833.954044 284.885362)scale(0.165 -0.165)">
       <use xlink:href="#ArialMT-31"/>
       <use xlink:href="#ArialMT-30" x="55.615234"/>
       <use xlink:href="#ArialMT-30" x="111.230469"/>
      </g>
     </g>
    </g>
    <g id="text_22">
     <!-- Number perturbed -->
     <g transform="translate(707.547546 305.0488)scale(0.18 -0.18)">
      <defs>
       <path id="ArialMT-4e" d="M 488 0 
L 488 4581 
L 1109 4581 
L 3516 984 
L 3516 4581 
L 4097 4581 
L 4097 0 
L 3475 0 
L 1069 3600 
L 1069 0 
L 488 0 
z
" transform="scale(0.015625)"/>
       <path id="ArialMT-6d" d="M 422 0 
L 422 3319 
L 925 3319 
L 925 2853 
Q 1081 3097 1340 3245 
Q 1600 3394 1931 3394 
Q 2300 3394 2536 3241 
Q 2772 3088 2869 2813 
Q 3263 3394 3894 3394 
Q 4388 3394 4653 3120 
Q 4919 2847 4919 2278 
L 4919 0 
L 4359 0 
L 4359 2091 
Q 4359 2428 4304 2576 
Q 4250 2725 4106 2815 
Q 3963 2906 3769 2906 
Q 3419 2906 3187 2673 
Q 2956 2441 2956 1928 
L 2956 0 
L 2394 0 
L 2394 2156 
Q 2394 2531 2256 2718 
Q 2119 2906 1806 2906 
Q 1569 2906 1367 2781 
Q 1166 2656 1075 2415 
Q 984 2175 984 1722 
L 984 0 
L 422 0 
z
" transform="scale(0.015625)"/>
       <path id="ArialMT-64" d="M 2575 0 
L 2575 419 
Q 2259 -75 1647 -75 
Q 1250 -75 917 144 
Q 584 363 401 755 
Q 219 1147 219 1656 
Q 219 2153 384 2558 
Q 550 2963 881 3178 
Q 1213 3394 1622 3394 
Q 1922 3394 2156 3267 
Q 2391 3141 2538 2938 
L 2538 4581 
L 3097 4581 
L 3097 0 
L 2575 0 
z
M 797 1656 
Q 797 1019 1065 703 
Q 1334 388 1700 388 
Q 2069 388 2326 689 
Q 2584 991 2584 1609 
Q 2584 2291 2321 2609 
Q 2059 2928 1675 2928 
Q 1300 2928 1048 2622 
Q 797 2316 797 1656 
z
" transform="scale(0.015625)"/>
      </defs>
      <use xlink:href="#ArialMT-4e"/>
      <use xlink:href="#ArialMT-75" x="72.216797"/>
      <use xlink:href="#ArialMT-6d" x="127.832031"/>
      <use xlink:href="#ArialMT-62" x="211.132812"/>
      <use xlink:href="#ArialMT-65" x="266.748047"/>
      <use xlink:href="#ArialMT-72" x="322.363281"/>
      <use xlink:href="#ArialMT-20" x="355.664062"/>
      <use xlink:href="#ArialMT-70" x="383.447266"/>
      <use xlink:href="#ArialMT-65" x="439.0625"/>
      <use xlink:href="#ArialMT-72" x="494.677734"/>
      <use xlink:href="#ArialMT-74" x="527.978516"/>
      <use xlink:href="#ArialMT-75" x="555.761719"/>
      <use xlink:href="#ArialMT-72" x="611.376953"/>
      <use xlink:href="#ArialMT-62" x="644.677734"/>
      <use xlink:href="#ArialMT-65" x="700.292969"/>
      <use xlink:href="#ArialMT-64" x="755.908203"/>
     </g>
    </g>
   </g>
   <g id="matplotlib.axis_6">
    <g id="ytick_80">
     <g id="line2d_105"/>
     <g id="text_23">
      <!-- $\mathdefault{10^{-11}}$ -->
      <g transform="translate(614.885092 239.49139)scale(0.165 -0.165)">
       <use xlink:href="#ArialMT-31" transform="translate(0 0.99375)"/>
       <use xlink:href="#ArialMT-30" transform="translate(55.615234 0.99375)"/>
       <use xlink:href="#ArialMT-2212" transform="translate(112.972813 70.6875)scale(0.7)"/>
       <use xlink:href="#ArialMT-31" transform="translate(153.851719 70.6875)scale(0.7)"/>
       <use xlink:href="#ArialMT-31" transform="translate(192.782383 70.6875)scale(0.7)"/>
      </g>
     </g>
    </g>
    <g id="ytick_81">
     <g id="line2d_106"/>
     <g id="text_24">
      <!-- $\mathdefault{10^{-8}}$ -->
      <g transform="translate(621.320092 182.737211)scale(0.165 -0.165)">
       <defs>
        <path id="ArialMT-38" d="M 1131 2484 
Q 781 2613 612 2850 
Q 444 3088 444 3419 
Q 444 3919 803 4259 
Q 1163 4600 1759 4600 
Q 2359 4600 2725 4251 
Q 3091 3903 3091 3403 
Q 3091 3084 2923 2848 
Q 2756 2613 2416 2484 
Q 2838 2347 3058 2040 
Q 3278 1734 3278 1309 
Q 3278 722 2862 322 
Q 2447 -78 1769 -78 
Q 1091 -78 675 323 
Q 259 725 259 1325 
Q 259 1772 486 2073 
Q 713 2375 1131 2484 
z
M 1019 3438 
Q 1019 3113 1228 2906 
Q 1438 2700 1772 2700 
Q 2097 2700 2305 2904 
Q 2513 3109 2513 3406 
Q 2513 3716 2298 3927 
Q 2084 4138 1766 4138 
Q 1444 4138 1231 3931 
Q 1019 3725 1019 3438 
z
M 838 1322 
Q 838 1081 952 856 
Q 1066 631 1291 507 
Q 1516 384 1775 384 
Q 2178 384 2440 643 
Q 2703 903 2703 1303 
Q 2703 1709 2433 1975 
Q 2163 2241 1756 2241 
Q 1359 2241 1098 1978 
Q 838 1716 838 1322 
z
" transform="scale(0.015625)"/>
       </defs>
       <use xlink:href="#ArialMT-31" transform="translate(0 0.99375)"/>
       <use xlink:href="#ArialMT-30" transform="translate(55.615234 0.99375)"/>
       <use xlink:href="#ArialMT-2212" transform="translate(112.972813 70.6875)scale(0.7)"/>
       <use xlink:href="#ArialMT-38" transform="translate(153.851719 70.6875)scale(0.7)"/>
      </g>
     </g>
    </g>
    <g id="ytick_82">
     <g id="line2d_107"/>
     <g id="text_25">
      <!-- $\mathdefault{10^{-5}}$ -->
      <g transform="translate(621.320092 125.900533)scale(0.165 -0.165)">
       <use xlink:href="#ArialMT-31" transform="translate(0 0.879688)"/>
       <use xlink:href="#ArialMT-30" transform="translate(55.615234 0.879688)"/>
       <use xlink:href="#ArialMT-2212" transform="translate(112.972813 70.573438)scale(0.7)"/>
       <use xlink:href="#ArialMT-35" transform="translate(153.851719 70.573438)scale(0.7)"/>
      </g>
     </g>
    </g>
    <g id="ytick_83">
     <g id="line2d_108"/>
     <g id="text_26">
      <!-- $\mathdefault{10^{-2}}$ -->
      <g transform="translate(621.320092 69.228854)scale(0.165 -0.165)">
       <use xlink:href="#ArialMT-31" transform="translate(0 0.99375)"/>
       <use xlink:href="#ArialMT-30" transform="translate(55.615234 0.99375)"/>
       <use xlink:href="#ArialMT-2212" transform="translate(112.972813 70.6875)scale(0.7)"/>
       <use xlink:href="#ArialMT-32" transform="translate(153.851719 70.6875)scale(0.7)"/>
      </g>
     </g>
    </g>
   </g>
   <g id="PolyCollection_7">
    <defs>
     <path id="md312c9bc9c" d="M 668.679931 -584.597375 
L 668.679931 -583.485325 
L 713.43929 -567.552194 
L 758.198648 -530.340115 
L 802.958006 -466.195412 
L 847.717365 -411.661784 
L 892.476723 -350.847893 
L 892.476723 -433.710125 
L 892.476723 -433.710125 
L 847.717365 -439.286003 
L 802.958006 -519.444631 
L 758.198648 -545.763971 
L 713.43929 -573.379825 
L 668.679931 -584.597375 
z
" style="stroke: #1f77b4; stroke-opacity: 0.2; stroke-width: 1.5"/>
    </defs>
    <g clip-path="url(#pbbd7ba28fd)">
     <use xlink:href="#md312c9bc9c" x="0" y="608.735391" style="fill: #1f77b4; fill-opacity: 0.2; stroke: #1f77b4; stroke-opacity: 0.2; stroke-width: 1.5"/>
    </g>
   </g>
   <g id="PolyCollection_8">
    <defs>
     <path id="m14324ce8f4" d="M 668.679931 -582.498349 
L 668.679931 -580.898055 
L 713.43929 -544.759824 
L 758.198648 -466.638397 
L 802.958006 -426.989115 
L 847.717365 -399.53236 
L 892.476723 -352.002501 
L 892.476723 -432.996893 
L 892.476723 -432.996893 
L 847.717365 -440.536314 
L 802.958006 -473.764749 
L 758.198648 -486.612076 
L 713.43929 -555.739862 
L 668.679931 -582.498349 
z
" style="stroke: #ff7f0e; stroke-opacity: 0.2; stroke-width: 1.5"/>
    </defs>
    <g clip-path="url(#pbbd7ba28fd)">
     <use xlink:href="#m14324ce8f4" x="0" y="608.735391" style="fill: #ff7f0e; fill-opacity: 0.2; stroke: #ff7f0e; stroke-opacity: 0.2; stroke-width: 1.5"/>
    </g>
   </g>
   <g id="PolyCollection_9">
    <defs>
     <path id="m616fe63ee5" d="M 668.679931 -581.428878 
L 668.679931 -578.870322 
L 713.43929 -574.126973 
L 758.198648 -571.935474 
L 802.958006 -570.638367 
L 847.717365 -569.205195 
L 892.476723 -564.384826 
L 892.476723 -572.745041 
L 892.476723 -572.745041 
L 847.717365 -575.565137 
L 802.958006 -576.537571 
L 758.198648 -577.044292 
L 713.43929 -578.683605 
L 668.679931 -581.428878 
z
" style="stroke: #2ca02c; stroke-opacity: 0.2; stroke-width: 1.5"/>
    </defs>
    <g clip-path="url(#pbbd7ba28fd)">
     <use xlink:href="#m616fe63ee5" x="0" y="608.735391" style="fill: #2ca02c; fill-opacity: 0.2; stroke: #2ca02c; stroke-opacity: 0.2; stroke-width: 1.5"/>
    </g>
   </g>
   <g id="line2d_109">
    <path d="M 668.679931 24.658484 
L 713.43929 37.912501 
L 758.198648 68.063176 
L 802.958006 98.161285 
L 847.717365 177.277137 
L 892.476723 184.043174 
" clip-path="url(#pbbd7ba28fd)" style="fill: none; stroke: #1f77b4; stroke-width: 2.25; stroke-linecap: round"/>
   </g>
   <g id="line2d_110">
    <path d="M 668.679931 26.973642 
L 713.43929 57.35338 
L 758.198648 128.180709 
L 802.958006 143.544722 
L 847.717365 176.146621 
L 892.476723 184.753086 
" clip-path="url(#pbbd7ba28fd)" style="fill: none; stroke-dasharray: 9,3.375; stroke-dashoffset: 0; stroke: #ff7f0e; stroke-width: 2.25"/>
   </g>
   <g id="line2d_111">
    <path d="M 668.679931 28.481932 
L 713.43929 32.210657 
L 758.198648 33.775014 
L 802.958006 34.690771 
L 847.717365 35.710619 
L 892.476723 39.697301 
" clip-path="url(#pbbd7ba28fd)" style="fill: none; stroke-dasharray: 2.25,2.25; stroke-dashoffset: 0; stroke: #2ca02c; stroke-width: 2.25"/>
   </g>
   <g id="line2d_112"/>
   <g id="line2d_113"/>
   <g id="line2d_114"/>
   <g id="line2d_115">
    <path d="M 657.490092 47.497886 
L 903.666563 47.497886 
" clip-path="url(#pbbd7ba28fd)" style="fill: none; stroke-dasharray: 2.25,3.7125; stroke-dashoffset: 0; stroke: #696969; stroke-width: 2.25"/>
   </g>
   <g id="line2d_116">
    <path d="M 657.490092 66.415945 
L 903.666563 66.415945 
" clip-path="url(#pbbd7ba28fd)" style="fill: none; stroke-dasharray: 8.325,3.6; stroke-dashoffset: 0; stroke: #696969; stroke-width: 2.25"/>
   </g>
   <g id="patch_9">
    <path d="M 657.490092 269.574972 
L 657.490092 22.484063 
" style="fill: none; stroke: #000000; stroke-width: 1.875; stroke-linejoin: miter; stroke-linecap: square"/>
   </g>
   <g id="patch_10">
    <path d="M 657.490092 269.574972 
L 903.666563 269.574972 
" style="fill: none; stroke: #000000; stroke-width: 1.875; stroke-linejoin: miter; stroke-linecap: square"/>
   </g>
   <g id="text_27">
    <!-- 0.3 -->
    <g transform="translate(768.068327 16.484063)scale(0.18 -0.18)">
     <use xlink:href="#ArialMT-30"/>
     <use xlink:href="#ArialMT-2e" x="55.615234"/>
     <use xlink:href="#ArialMT-33" x="83.398438"/>
    </g>
   </g>
  </g>
  <g id="axes_4">
   <g id="patch_11">
    <path d="M 66.666563 566.084063 
L 312.843033 566.084063 
L 312.843033 318.993153 
L 66.666563 318.993153 
z
" style="fill: #ffffff"/>
   </g>
   <g id="matplotlib.axis_7">
    <g id="xtick_10">
     <g id="line2d_117"/>
     <g id="text_28">
      <!-- 0 -->
      <g transform="translate(73.268629 581.394453)scale(0.165 -0.165)">
       <use xlink:href="#ArialMT-30"/>
      </g>
     </g>
    </g>
    <g id="xtick_11">
     <g id="line2d_118"/>
     <g id="text_29">
      <!-- 50 -->
      <g transform="translate(158.199572 581.394453)scale(0.165 -0.165)">
       <use xlink:href="#ArialMT-35"/>
       <use xlink:href="#ArialMT-30" x="55.615234"/>
      </g>
     </g>
    </g>
    <g id="xtick_12">
     <g id="line2d_119"/>
     <g id="text_30">
      <!-- 100 -->
      <g transform="translate(243.130515 581.394453)scale(0.165 -0.165)">
       <use xlink:href="#ArialMT-31"/>
       <use xlink:href="#ArialMT-30" x="55.615234"/>
       <use xlink:href="#ArialMT-30" x="111.230469"/>
      </g>
     </g>
    </g>
    <g id="text_31">
     <!-- Number perturbed -->
     <g transform="translate(116.724017 601.557891)scale(0.18 -0.18)">
      <use xlink:href="#ArialMT-4e"/>
      <use xlink:href="#ArialMT-75" x="72.216797"/>
      <use xlink:href="#ArialMT-6d" x="127.832031"/>
      <use xlink:href="#ArialMT-62" x="211.132812"/>
      <use xlink:href="#ArialMT-65" x="266.748047"/>
      <use xlink:href="#ArialMT-72" x="322.363281"/>
      <use xlink:href="#ArialMT-20" x="355.664062"/>
      <use xlink:href="#ArialMT-70" x="383.447266"/>
      <use xlink:href="#ArialMT-65" x="439.0625"/>
      <use xlink:href="#ArialMT-72" x="494.677734"/>
      <use xlink:href="#ArialMT-74" x="527.978516"/>
      <use xlink:href="#ArialMT-75" x="555.761719"/>
      <use xlink:href="#ArialMT-72" x="611.376953"/>
      <use xlink:href="#ArialMT-62" x="644.677734"/>
      <use xlink:href="#ArialMT-65" x="700.292969"/>
      <use xlink:href="#ArialMT-64" x="755.908203"/>
     </g>
    </g>
   </g>
   <g id="matplotlib.axis_8">
    <g id="ytick_84">
     <g id="line2d_120"/>
     <g id="text_32">
      <!-- $\mathdefault{10^{-20}}$ -->
      <g transform="translate(24.061563 574.591875)scale(0.165 -0.165)">
       <use xlink:href="#ArialMT-31" transform="translate(0 0.99375)"/>
       <use xlink:href="#ArialMT-30" transform="translate(55.615234 0.99375)"/>
       <use xlink:href="#ArialMT-2212" transform="translate(112.972813 70.6875)scale(0.7)"/>
       <use xlink:href="#ArialMT-32" transform="translate(153.851719 70.6875)scale(0.7)"/>
       <use xlink:href="#ArialMT-30" transform="translate(192.782383 70.6875)scale(0.7)"/>
      </g>
     </g>
    </g>
    <g id="ytick_85">
     <g id="line2d_121"/>
     <g id="text_33">
      <!-- $\mathdefault{10^{-16}}$ -->
      <g transform="translate(24.061563 525.225995)scale(0.165 -0.165)">
       <defs>
        <path id="ArialMT-36" d="M 3184 3459 
L 2625 3416 
Q 2550 3747 2413 3897 
Q 2184 4138 1850 4138 
Q 1581 4138 1378 3988 
Q 1113 3794 959 3422 
Q 806 3050 800 2363 
Q 1003 2672 1297 2822 
Q 1591 2972 1913 2972 
Q 2475 2972 2870 2558 
Q 3266 2144 3266 1488 
Q 3266 1056 3080 686 
Q 2894 316 2569 119 
Q 2244 -78 1831 -78 
Q 1128 -78 684 439 
Q 241 956 241 2144 
Q 241 3472 731 4075 
Q 1159 4600 1884 4600 
Q 2425 4600 2770 4297 
Q 3116 3994 3184 3459 
z
M 888 1484 
Q 888 1194 1011 928 
Q 1134 663 1356 523 
Q 1578 384 1822 384 
Q 2178 384 2434 671 
Q 2691 959 2691 1453 
Q 2691 1928 2437 2201 
Q 2184 2475 1800 2475 
Q 1419 2475 1153 2201 
Q 888 1928 888 1484 
z
" transform="scale(0.015625)"/>
       </defs>
       <use xlink:href="#ArialMT-31" transform="translate(0 0.99375)"/>
       <use xlink:href="#ArialMT-30" transform="translate(55.615234 0.99375)"/>
       <use xlink:href="#ArialMT-2212" transform="translate(112.972813 70.6875)scale(0.7)"/>
       <use xlink:href="#ArialMT-31" transform="translate(153.851719 70.6875)scale(0.7)"/>
       <use xlink:href="#ArialMT-36" transform="translate(192.782383 70.6875)scale(0.7)"/>
      </g>
     </g>
    </g>
    <g id="ytick_86">
     <g id="line2d_122"/>
     <g id="text_34">
      <!-- $\mathdefault{10^{-12}}$ -->
      <g transform="translate(24.061563 475.860114)scale(0.165 -0.165)">
       <use xlink:href="#ArialMT-31" transform="translate(0 0.99375)"/>
       <use xlink:href="#ArialMT-30" transform="translate(55.615234 0.99375)"/>
       <use xlink:href="#ArialMT-2212" transform="translate(112.972813 70.6875)scale(0.7)"/>
       <use xlink:href="#ArialMT-31" transform="translate(153.851719 70.6875)scale(0.7)"/>
       <use xlink:href="#ArialMT-32" transform="translate(192.782383 70.6875)scale(0.7)"/>
      </g>
     </g>
    </g>
    <g id="ytick_87">
     <g id="line2d_123"/>
     <g id="text_35">
      <!-- $\mathdefault{10^{-8}}$ -->
      <g transform="translate(30.496563 426.494234)scale(0.165 -0.165)">
       <use xlink:href="#ArialMT-31" transform="translate(0 0.99375)"/>
       <use xlink:href="#ArialMT-30" transform="translate(55.615234 0.99375)"/>
       <use xlink:href="#ArialMT-2212" transform="translate(112.972813 70.6875)scale(0.7)"/>
       <use xlink:href="#ArialMT-38" transform="translate(153.851719 70.6875)scale(0.7)"/>
      </g>
     </g>
    </g>
    <g id="ytick_88">
     <g id="line2d_124"/>
     <g id="text_36">
      <!-- $\mathdefault{10^{-4}}$ -->
      <g transform="translate(30.496563 377.045853)scale(0.165 -0.165)">
       <use xlink:href="#ArialMT-31" transform="translate(0 0.201563)"/>
       <use xlink:href="#ArialMT-30" transform="translate(55.615234 0.201563)"/>
       <use xlink:href="#ArialMT-2212" transform="translate(112.972813 69.895313)scale(0.7)"/>
       <use xlink:href="#ArialMT-34" transform="translate(153.851719 69.895313)scale(0.7)"/>
      </g>
     </g>
    </g>
    <g id="ytick_89">
     <g id="line2d_125"/>
     <g id="text_37">
      <!-- $\mathdefault{10^{0}}$ -->
      <g transform="translate(37.261563 327.762473)scale(0.165 -0.165)">
       <use xlink:href="#ArialMT-31" transform="translate(0 0.99375)"/>
       <use xlink:href="#ArialMT-30" transform="translate(55.615234 0.99375)"/>
       <use xlink:href="#ArialMT-30" transform="translate(112.972813 70.6875)scale(0.7)"/>
      </g>
     </g>
    </g>
    <g id="text_38">
     <!-- p-value -->
     <g transform="translate(16.484063 472.054389)rotate(-90)scale(0.18 -0.18)">
      <use xlink:href="#ArialMT-70"/>
      <use xlink:href="#ArialMT-2d" x="55.615234"/>
      <use xlink:href="#ArialMT-76" x="88.916016"/>
      <use xlink:href="#ArialMT-61" x="138.916016"/>
      <use xlink:href="#ArialMT-6c" x="194.53125"/>
      <use xlink:href="#ArialMT-75" x="216.748047"/>
      <use xlink:href="#ArialMT-65" x="272.363281"/>
     </g>
    </g>
   </g>
   <g id="PolyCollection_10">
    <defs>
     <path id="mf094e08b37" d="M 77.856402 -288.795772 
L 77.856402 -288.209253 
L 122.61576 -270.18201 
L 167.375119 -216.104511 
L 212.134477 -101.639511 
L 256.893835 -27.56006 
L 301.653194 53.115087 
L 301.653194 -65.853697 
L 301.653194 -65.853697 
L 256.893835 -182.914716 
L 212.134477 -130.488141 
L 167.375119 -248.026449 
L 122.61576 -276.5032 
L 77.856402 -288.795772 
z
" style="stroke: #1f77b4; stroke-opacity: 0.2; stroke-width: 1.5"/>
    </defs>
    <g clip-path="url(#pe4cc167fb1)">
     <use xlink:href="#mf094e08b37" x="0" y="608.735391" style="fill: #1f77b4; fill-opacity: 0.2; stroke: #1f77b4; stroke-opacity: 0.2; stroke-width: 1.5"/>
    </g>
   </g>
   <g id="PolyCollection_11">
    <defs>
     <path id="m816a84ca2a" d="M 77.856402 -287.451436 
L 77.856402 -286.571165 
L 122.61576 -245.11368 
L 167.375119 -173.660847 
L 212.134477 -102.302061 
L 256.893835 -29.93904 
L 301.653194 27.234112 
L 301.653194 -66.765873 
L 301.653194 -66.765873 
L 256.893835 -183.153867 
L 212.134477 -130.782591 
L 167.375119 -204.378897 
L 122.61576 -261.324352 
L 77.856402 -287.451436 
z
" style="stroke: #ff7f0e; stroke-opacity: 0.2; stroke-width: 1.5"/>
    </defs>
    <g clip-path="url(#pe4cc167fb1)">
     <use xlink:href="#m816a84ca2a" x="0" y="608.735391" style="fill: #ff7f0e; fill-opacity: 0.2; stroke: #ff7f0e; stroke-opacity: 0.2; stroke-width: 1.5"/>
    </g>
   </g>
   <g id="PolyCollection_12">
    <defs>
     <path id="ma1499fea53" d="M 77.856402 -285.755924 
L 77.856402 -283.883167 
L 122.61576 -280.713646 
L 167.375119 -278.183873 
L 212.134477 -275.645227 
L 256.893835 -277.979173 
L 301.653194 -271.927508 
L 301.653194 -280.225263 
L 301.653194 -280.225263 
L 256.893835 -282.667112 
L 212.134477 -280.564546 
L 167.375119 -282.579551 
L 122.61576 -283.991308 
L 77.856402 -285.755924 
z
" style="stroke: #2ca02c; stroke-opacity: 0.2; stroke-width: 1.5"/>
    </defs>
    <g clip-path="url(#pe4cc167fb1)">
     <use xlink:href="#ma1499fea53" x="0" y="608.735391" style="fill: #2ca02c; fill-opacity: 0.2; stroke: #2ca02c; stroke-opacity: 0.2; stroke-width: 1.5"/>
    </g>
   </g>
   <g id="line2d_126">
    <path d="M 77.856402 320.207719 
L 122.61576 334.725601 
L 167.375119 366.38513 
L 212.134477 483.7704 
L 256.893835 431.709049 
L 301.653194 548.763246 
" clip-path="url(#pe4cc167fb1)" style="fill: none; stroke: #1f77b4; stroke-width: 2.25; stroke-linecap: round"/>
   </g>
   <g id="line2d_127">
    <path d="M 77.856402 321.712294 
L 122.61576 352.601496 
L 167.375119 409.831562 
L 212.134477 483.470444 
L 256.893835 431.469901 
L 301.653194 549.366492 
" clip-path="url(#pe4cc167fb1)" style="fill: none; stroke-dasharray: 9,3.375; stroke-dashoffset: 0; stroke: #ff7f0e; stroke-width: 2.25"/>
   </g>
   <g id="line2d_128">
    <path d="M 77.856402 323.843001 
L 122.61576 326.143296 
L 167.375119 328.023371 
L 212.134477 330.090238 
L 256.893835 328.098091 
L 301.653194 331.465004 
" clip-path="url(#pe4cc167fb1)" style="fill: none; stroke-dasharray: 2.25,2.25; stroke-dashoffset: 0; stroke: #2ca02c; stroke-width: 2.25"/>
   </g>
   <g id="line2d_129"/>
   <g id="line2d_130"/>
   <g id="line2d_131"/>
   <g id="line2d_132">
    <path d="M 66.666563 335.311283 
L 312.843033 335.311283 
" clip-path="url(#pe4cc167fb1)" style="fill: none; stroke-dasharray: 2.25,3.7125; stroke-dashoffset: 0; stroke: #696969; stroke-width: 2.25"/>
   </g>
   <g id="line2d_133">
    <path d="M 66.666563 347.652753 
L 312.843033 347.652753 
" clip-path="url(#pe4cc167fb1)" style="fill: none; stroke-dasharray: 8.325,3.6; stroke-dashoffset: 0; stroke: #696969; stroke-width: 2.25"/>
   </g>
   <g id="patch_12">
    <path d="M 66.666563 566.084063 
L 66.666563 318.993153 
" style="fill: none; stroke: #000000; stroke-width: 1.875; stroke-linejoin: miter; stroke-linecap: square"/>
   </g>
   <g id="patch_13">
    <path d="M 66.666563 566.084063 
L 312.843033 566.084063 
" style="fill: none; stroke: #000000; stroke-width: 1.875; stroke-linejoin: miter; stroke-linecap: square"/>
   </g>
   <g id="text_39">
    <!-- 0.4 -->
    <g transform="translate(177.244798 312.993153)scale(0.18 -0.18)">
     <use xlink:href="#ArialMT-30"/>
     <use xlink:href="#ArialMT-2e" x="55.615234"/>
     <use xlink:href="#ArialMT-34" x="83.398438"/>
    </g>
   </g>
  </g>
  <g id="axes_5">
   <g id="patch_14">
    <path d="M 362.078327 566.084063 
L 608.254798 566.084063 
L 608.254798 318.993153 
L 362.078327 318.993153 
z
" style="fill: #ffffff"/>
   </g>
   <g id="matplotlib.axis_9">
    <g id="xtick_13">
     <g id="line2d_134"/>
     <g id="text_40">
      <!-- 0 -->
      <g transform="translate(368.680393 581.394453)scale(0.165 -0.165)">
       <use xlink:href="#ArialMT-30"/>
      </g>
     </g>
    </g>
    <g id="xtick_14">
     <g id="line2d_135"/>
     <g id="text_41">
      <!-- 50 -->
      <g transform="translate(453.611336 581.394453)scale(0.165 -0.165)">
       <use xlink:href="#ArialMT-35"/>
       <use xlink:href="#ArialMT-30" x="55.615234"/>
      </g>
     </g>
    </g>
    <g id="xtick_15">
     <g id="line2d_136"/>
     <g id="text_42">
      <!-- 100 -->
      <g transform="translate(538.54228 581.394453)scale(0.165 -0.165)">
       <use xlink:href="#ArialMT-31"/>
       <use xlink:href="#ArialMT-30" x="55.615234"/>
       <use xlink:href="#ArialMT-30" x="111.230469"/>
      </g>
     </g>
    </g>
    <g id="text_43">
     <!-- Number perturbed -->
     <g transform="translate(412.135781 601.557891)scale(0.18 -0.18)">
      <use xlink:href="#ArialMT-4e"/>
      <use xlink:href="#ArialMT-75" x="72.216797"/>
      <use xlink:href="#ArialMT-6d" x="127.832031"/>
      <use xlink:href="#ArialMT-62" x="211.132812"/>
      <use xlink:href="#ArialMT-65" x="266.748047"/>
      <use xlink:href="#ArialMT-72" x="322.363281"/>
      <use xlink:href="#ArialMT-20" x="355.664062"/>
      <use xlink:href="#ArialMT-70" x="383.447266"/>
      <use xlink:href="#ArialMT-65" x="439.0625"/>
      <use xlink:href="#ArialMT-72" x="494.677734"/>
      <use xlink:href="#ArialMT-74" x="527.978516"/>
      <use xlink:href="#ArialMT-75" x="555.761719"/>
      <use xlink:href="#ArialMT-72" x="611.376953"/>
      <use xlink:href="#ArialMT-62" x="644.677734"/>
      <use xlink:href="#ArialMT-65" x="700.292969"/>
      <use xlink:href="#ArialMT-64" x="755.908203"/>
     </g>
    </g>
   </g>
   <g id="matplotlib.axis_10">
    <g id="ytick_90">
     <g id="line2d_137"/>
     <g id="text_44">
      <!-- $\mathdefault{10^{-20}}$ -->
      <g transform="translate(319.473327 574.591875)scale(0.165 -0.165)">
       <use xlink:href="#ArialMT-31" transform="translate(0 0.99375)"/>
       <use xlink:href="#ArialMT-30" transform="translate(55.615234 0.99375)"/>
       <use xlink:href="#ArialMT-2212" transform="translate(112.972813 70.6875)scale(0.7)"/>
       <use xlink:href="#ArialMT-32" transform="translate(153.851719 70.6875)scale(0.7)"/>
       <use xlink:href="#ArialMT-30" transform="translate(192.782383 70.6875)scale(0.7)"/>
      </g>
     </g>
    </g>
    <g id="ytick_91">
     <g id="line2d_138"/>
     <g id="text_45">
      <!-- $\mathdefault{10^{-16}}$ -->
      <g transform="translate(319.473327 525.225995)scale(0.165 -0.165)">
       <use xlink:href="#ArialMT-31" transform="translate(0 0.99375)"/>
       <use xlink:href="#ArialMT-30" transform="translate(55.615234 0.99375)"/>
       <use xlink:href="#ArialMT-2212" transform="translate(112.972813 70.6875)scale(0.7)"/>
       <use xlink:href="#ArialMT-31" transform="translate(153.851719 70.6875)scale(0.7)"/>
       <use xlink:href="#ArialMT-36" transform="translate(192.782383 70.6875)scale(0.7)"/>
      </g>
     </g>
    </g>
    <g id="ytick_92">
     <g id="line2d_139"/>
     <g id="text_46">
      <!-- $\mathdefault{10^{-12}}$ -->
      <g transform="translate(319.473327 475.860114)scale(0.165 -0.165)">
       <use xlink:href="#ArialMT-31" transform="translate(0 0.99375)"/>
       <use xlink:href="#ArialMT-30" transform="translate(55.615234 0.99375)"/>
       <use xlink:href="#ArialMT-2212" transform="translate(112.972813 70.6875)scale(0.7)"/>
       <use xlink:href="#ArialMT-31" transform="translate(153.851719 70.6875)scale(0.7)"/>
       <use xlink:href="#ArialMT-32" transform="translate(192.782383 70.6875)scale(0.7)"/>
      </g>
     </g>
    </g>
    <g id="ytick_93">
     <g id="line2d_140"/>
     <g id="text_47">
      <!-- $\mathdefault{10^{-8}}$ -->
      <g transform="translate(325.908327 426.494234)scale(0.165 -0.165)">
       <use xlink:href="#ArialMT-31" transform="translate(0 0.99375)"/>
       <use xlink:href="#ArialMT-30" transform="translate(55.615234 0.99375)"/>
       <use xlink:href="#ArialMT-2212" transform="translate(112.972813 70.6875)scale(0.7)"/>
       <use xlink:href="#ArialMT-38" transform="translate(153.851719 70.6875)scale(0.7)"/>
      </g>
     </g>
    </g>
    <g id="ytick_94">
     <g id="line2d_141"/>
     <g id="text_48">
      <!-- $\mathdefault{10^{-4}}$ -->
      <g transform="translate(325.908327 377.045853)scale(0.165 -0.165)">
       <use xlink:href="#ArialMT-31" transform="translate(0 0.201563)"/>
       <use xlink:href="#ArialMT-30" transform="translate(55.615234 0.201563)"/>
       <use xlink:href="#ArialMT-2212" transform="translate(112.972813 69.895313)scale(0.7)"/>
       <use xlink:href="#ArialMT-34" transform="translate(153.851719 69.895313)scale(0.7)"/>
      </g>
     </g>
    </g>
    <g id="ytick_95">
     <g id="line2d_142"/>
     <g id="text_49">
      <!-- $\mathdefault{10^{0}}$ -->
      <g transform="translate(332.673327 327.762473)scale(0.165 -0.165)">
       <use xlink:href="#ArialMT-31" transform="translate(0 0.99375)"/>
       <use xlink:href="#ArialMT-30" transform="translate(55.615234 0.99375)"/>
       <use xlink:href="#ArialMT-30" transform="translate(112.972813 70.6875)scale(0.7)"/>
      </g>
     </g>
    </g>
   </g>
   <g id="PolyCollection_13">
    <defs>
     <path id="m939f0f58cc" d="M 373.268167 -288.59386 
L 373.268167 -287.777601 
L 418.027525 -266.491952 
L 462.786883 -94.79248 
L 507.546242 25.459491 
L 552.3056 12.419779 
L 597.064958 114.990409 
L 597.064958 -73.927314 
L 597.064958 -73.927314 
L 552.3056 -80.48061 
L 507.546242 -70.716189 
L 462.786883 -170.467212 
L 418.027525 -275.860414 
L 373.268167 -288.59386 
z
" style="stroke: #1f77b4; stroke-opacity: 0.2; stroke-width: 1.5"/>
    </defs>
    <g clip-path="url(#p0c79475ae9)">
     <use xlink:href="#m939f0f58cc" x="0" y="608.735391" style="fill: #1f77b4; fill-opacity: 0.2; stroke: #1f77b4; stroke-opacity: 0.2; stroke-width: 1.5"/>
    </g>
   </g>
   <g id="PolyCollection_14">
    <defs>
     <path id="md6eda47833" d="M 373.268167 -287.092496 
L 373.268167 -286.001896 
L 418.027525 -246.702998 
L 462.786883 -86.398226 
L 507.546242 6.57364 
L 552.3056 9.094061 
L 597.064958 110.156206 
L 597.064958 -74.612676 
L 597.064958 -74.612676 
L 552.3056 -83.301937 
L 507.546242 -71.65856 
L 462.786883 -114.84942 
L 418.027525 -262.368757 
L 373.268167 -287.092496 
z
" style="stroke: #ff7f0e; stroke-opacity: 0.2; stroke-width: 1.5"/>
    </defs>
    <g clip-path="url(#p0c79475ae9)">
     <use xlink:href="#md6eda47833" x="0" y="608.735391" style="fill: #ff7f0e; fill-opacity: 0.2; stroke: #ff7f0e; stroke-opacity: 0.2; stroke-width: 1.5"/>
    </g>
   </g>
   <g id="PolyCollection_15">
    <defs>
     <path id="m2990e9d100" d="M 373.268167 -286.420127 
L 373.268167 -284.807638 
L 418.027525 -280.891691 
L 462.786883 -276.94635 
L 507.546242 -276.97377 
L 552.3056 -277.171293 
L 597.064958 -273.023561 
L 597.064958 -280.653849 
L 597.064958 -280.653849 
L 552.3056 -282.149588 
L 507.546242 -282.087155 
L 462.786883 -281.849525 
L 418.027525 -284.175565 
L 373.268167 -286.420127 
z
" style="stroke: #2ca02c; stroke-opacity: 0.2; stroke-width: 1.5"/>
    </defs>
    <g clip-path="url(#p0c79475ae9)">
     <use xlink:href="#m2990e9d100" x="0" y="608.735391" style="fill: #2ca02c; fill-opacity: 0.2; stroke: #2ca02c; stroke-opacity: 0.2; stroke-width: 1.5"/>
    </g>
   </g>
   <g id="line2d_143">
    <path d="M 373.268167 320.525928 
L 418.027525 336.251845 
L 462.786883 444.156299 
L 507.546242 543.07051 
L 552.3056 534.143154 
L 597.064958 540.69643 
" clip-path="url(#p0c79475ae9)" style="fill: none; stroke: #1f77b4; stroke-width: 2.25; stroke-linecap: round"/>
   </g>
   <g id="line2d_144">
    <path d="M 373.268167 322.171538 
L 418.027525 351.073931 
L 462.786883 498.993227 
L 507.546242 542.081131 
L 552.3056 531.321825 
L 597.064958 540.011081 
" clip-path="url(#p0c79475ae9)" style="fill: none; stroke-dasharray: 9,3.375; stroke-dashoffset: 0; stroke: #ff7f0e; stroke-width: 2.25"/>
   </g>
   <g id="line2d_145">
    <path d="M 373.268167 323.054453 
L 418.027525 325.961511 
L 462.786883 328.926359 
L 507.546242 328.795364 
L 552.3056 328.587226 
L 597.064958 330.88307 
" clip-path="url(#p0c79475ae9)" style="fill: none; stroke-dasharray: 2.25,2.25; stroke-dashoffset: 0; stroke: #2ca02c; stroke-width: 2.25"/>
   </g>
   <g id="line2d_146"/>
   <g id="line2d_147"/>
   <g id="line2d_148"/>
   <g id="line2d_149">
    <path d="M 362.078327 335.311283 
L 608.254798 335.311283 
" clip-path="url(#p0c79475ae9)" style="fill: none; stroke-dasharray: 2.25,3.7125; stroke-dashoffset: 0; stroke: #696969; stroke-width: 2.25"/>
   </g>
   <g id="line2d_150">
    <path d="M 362.078327 347.652753 
L 608.254798 347.652753 
" clip-path="url(#p0c79475ae9)" style="fill: none; stroke-dasharray: 8.325,3.6; stroke-dashoffset: 0; stroke: #696969; stroke-width: 2.25"/>
   </g>
   <g id="patch_15">
    <path d="M 362.078327 566.084063 
L 362.078327 318.993153 
" style="fill: none; stroke: #000000; stroke-width: 1.875; stroke-linejoin: miter; stroke-linecap: square"/>
   </g>
   <g id="patch_16">
    <path d="M 362.078327 566.084063 
L 608.254798 566.084063 
" style="fill: none; stroke: #000000; stroke-width: 1.875; stroke-linejoin: miter; stroke-linecap: square"/>
   </g>
   <g id="patch_17">
    <path d="M 634.34437 327.265422 
Q 622.256605 330.993213 610.16884 334.721005 
" style="fill: none; stroke: #000000; stroke-width: 1.5; stroke-linecap: round"/>
   </g>
   <g id="text_50">
    <!-- 0.05 -->
    <g transform="translate(638.254798 325.311283)scale(0.18 -0.18)">
     <use xlink:href="#ArialMT-30"/>
     <use xlink:href="#ArialMT-2e" x="55.615234"/>
     <use xlink:href="#ArialMT-30" x="83.398438"/>
     <use xlink:href="#ArialMT-35" x="139.013672"/>
    </g>
   </g>
   <g id="patch_18">
    <path d="M 643.910223 371.649512 
Q 626.912744 360.209895 609.915265 348.770278 
" style="fill: none; stroke: #000000; stroke-width: 1.5; stroke-linecap: round"/>
   </g>
   <g id="text_51">
    <!-- 0.005 -->
    <g transform="translate(638.254798 387.652753)scale(0.18 -0.18)">
     <use xlink:href="#ArialMT-30"/>
     <use xlink:href="#ArialMT-2e" x="55.615234"/>
     <use xlink:href="#ArialMT-30" x="83.398438"/>
     <use xlink:href="#ArialMT-30" x="139.013672"/>
     <use xlink:href="#ArialMT-35" x="194.628906"/>
    </g>
   </g>
   <g id="text_52">
    <!-- 0.5 -->
    <g transform="translate(472.656563 312.993153)scale(0.18 -0.18)">
     <use xlink:href="#ArialMT-30"/>
     <use xlink:href="#ArialMT-2e" x="55.615234"/>
     <use xlink:href="#ArialMT-35" x="83.398438"/>
    </g>
   </g>
  </g>
  <g id="axes_6">
   <g id="legend_1">
    <g id="text_53">
     <!-- Method -->
     <g transform="translate(812.780625 346.727216)scale(0.18 -0.18)">
      <defs>
       <path id="ArialMT-4d" d="M 475 0 
L 475 4581 
L 1388 4581 
L 2472 1338 
Q 2622 884 2691 659 
Q 2769 909 2934 1394 
L 4031 4581 
L 4847 4581 
L 4847 0 
L 4263 0 
L 4263 3834 
L 2931 0 
L 2384 0 
L 1059 3900 
L 1059 0 
L 475 0 
z
" transform="scale(0.015625)"/>
       <path id="ArialMT-68" d="M 422 0 
L 422 4581 
L 984 4581 
L 984 2938 
Q 1378 3394 1978 3394 
Q 2347 3394 2619 3248 
Q 2891 3103 3008 2847 
Q 3125 2591 3125 2103 
L 3125 0 
L 2563 0 
L 2563 2103 
Q 2563 2525 2380 2717 
Q 2197 2909 1863 2909 
Q 1613 2909 1392 2779 
Q 1172 2650 1078 2428 
Q 984 2206 984 1816 
L 984 0 
L 422 0 
z
" transform="scale(0.015625)"/>
      </defs>
      <use xlink:href="#ArialMT-4d"/>
      <use xlink:href="#ArialMT-65" x="83.300781"/>
      <use xlink:href="#ArialMT-74" x="138.916016"/>
      <use xlink:href="#ArialMT-68" x="166.699219"/>
      <use xlink:href="#ArialMT-6f" x="222.314453"/>
      <use xlink:href="#ArialMT-64" x="277.929688"/>
     </g>
    </g>
    <g id="line2d_151">
     <path d="M 796.7775 364.590107 
L 813.2775 364.590107 
L 829.7775 364.590107 
" style="fill: none; stroke: #1f77b4; stroke-width: 2.25; stroke-linecap: round"/>
    </g>
    <g id="text_54">
     <!-- Fisher -->
     <g transform="translate(842.9775 370.365107)scale(0.165 -0.165)">
      <defs>
       <path id="ArialMT-46" d="M 525 0 
L 525 4581 
L 3616 4581 
L 3616 4041 
L 1131 4041 
L 1131 2622 
L 3281 2622 
L 3281 2081 
L 1131 2081 
L 1131 0 
L 525 0 
z
" transform="scale(0.015625)"/>
      </defs>
      <use xlink:href="#ArialMT-46"/>
      <use xlink:href="#ArialMT-69" x="61.083984"/>
      <use xlink:href="#ArialMT-73" x="83.300781"/>
      <use xlink:href="#ArialMT-68" x="133.300781"/>
      <use xlink:href="#ArialMT-65" x="188.916016"/>
      <use xlink:href="#ArialMT-72" x="244.53125"/>
     </g>
    </g>
    <g id="line2d_152">
     <path d="M 796.7775 387.929872 
L 813.2775 387.929872 
L 829.7775 387.929872 
" style="fill: none; stroke-dasharray: 9,3.375; stroke-dashoffset: 0; stroke: #ff7f0e; stroke-width: 2.25"/>
    </g>
    <g id="text_55">
     <!-- Score -->
     <g transform="translate(842.9775 393.704872)scale(0.165 -0.165)">
      <defs>
       <path id="ArialMT-53" d="M 288 1472 
L 859 1522 
Q 900 1178 1048 958 
Q 1197 738 1509 602 
Q 1822 466 2213 466 
Q 2559 466 2825 569 
Q 3091 672 3220 851 
Q 3350 1031 3350 1244 
Q 3350 1459 3225 1620 
Q 3100 1781 2813 1891 
Q 2628 1963 1997 2114 
Q 1366 2266 1113 2400 
Q 784 2572 623 2826 
Q 463 3081 463 3397 
Q 463 3744 659 4045 
Q 856 4347 1234 4503 
Q 1613 4659 2075 4659 
Q 2584 4659 2973 4495 
Q 3363 4331 3572 4012 
Q 3781 3694 3797 3291 
L 3216 3247 
Q 3169 3681 2898 3903 
Q 2628 4125 2100 4125 
Q 1550 4125 1298 3923 
Q 1047 3722 1047 3438 
Q 1047 3191 1225 3031 
Q 1400 2872 2139 2705 
Q 2878 2538 3153 2413 
Q 3553 2228 3743 1945 
Q 3934 1663 3934 1294 
Q 3934 928 3725 604 
Q 3516 281 3123 101 
Q 2731 -78 2241 -78 
Q 1619 -78 1198 103 
Q 778 284 539 648 
Q 300 1013 288 1472 
z
" transform="scale(0.015625)"/>
       <path id="ArialMT-63" d="M 2588 1216 
L 3141 1144 
Q 3050 572 2676 248 
Q 2303 -75 1759 -75 
Q 1078 -75 664 370 
Q 250 816 250 1647 
Q 250 2184 428 2587 
Q 606 2991 970 3192 
Q 1334 3394 1763 3394 
Q 2303 3394 2647 3120 
Q 2991 2847 3088 2344 
L 2541 2259 
Q 2463 2594 2264 2762 
Q 2066 2931 1784 2931 
Q 1359 2931 1093 2626 
Q 828 2322 828 1663 
Q 828 994 1084 691 
Q 1341 388 1753 388 
Q 2084 388 2306 591 
Q 2528 794 2588 1216 
z
" transform="scale(0.015625)"/>
      </defs>
      <use xlink:href="#ArialMT-53"/>
      <use xlink:href="#ArialMT-63" x="66.699219"/>
      <use xlink:href="#ArialMT-6f" x="116.699219"/>
      <use xlink:href="#ArialMT-72" x="172.314453"/>
      <use xlink:href="#ArialMT-65" x="205.615234"/>
     </g>
    </g>
    <g id="line2d_153">
     <path d="M 796.7775 411.269638 
L 813.2775 411.269638 
L 829.7775 411.269638 
" style="fill: none; stroke-dasharray: 2.25,2.25; stroke-dashoffset: 0; stroke: #2ca02c; stroke-width: 2.25"/>
    </g>
    <g id="text_56">
     <!-- Cmh -->
     <g transform="translate(842.9775 417.044638)scale(0.165 -0.165)">
      <defs>
       <path id="ArialMT-43" d="M 3763 1606 
L 4369 1453 
Q 4178 706 3683 314 
Q 3188 -78 2472 -78 
Q 1731 -78 1267 223 
Q 803 525 561 1097 
Q 319 1669 319 2325 
Q 319 3041 592 3573 
Q 866 4106 1370 4382 
Q 1875 4659 2481 4659 
Q 3169 4659 3637 4309 
Q 4106 3959 4291 3325 
L 3694 3184 
Q 3534 3684 3231 3912 
Q 2928 4141 2469 4141 
Q 1941 4141 1586 3887 
Q 1231 3634 1087 3207 
Q 944 2781 944 2328 
Q 944 1744 1114 1308 
Q 1284 872 1643 656 
Q 2003 441 2422 441 
Q 2931 441 3284 734 
Q 3638 1028 3763 1606 
z
" transform="scale(0.015625)"/>
      </defs>
      <use xlink:href="#ArialMT-43"/>
      <use xlink:href="#ArialMT-6d" x="72.216797"/>
      <use xlink:href="#ArialMT-68" x="155.517578"/>
     </g>
    </g>
   </g>
  </g>
 </g>
 <defs>
  <clipPath id="p6d589f4304">
   <rect x="66.666563" y="22.484063" width="246.176471" height="247.090909"/>
  </clipPath>
  <clipPath id="p177da9567b">
   <rect x="362.078327" y="22.484063" width="246.176471" height="247.090909"/>
  </clipPath>
  <clipPath id="pbbd7ba28fd">
   <rect x="657.490092" y="22.484063" width="246.176471" height="247.090909"/>
  </clipPath>
  <clipPath id="pe4cc167fb1">
   <rect x="66.666563" y="318.993153" width="246.176471" height="247.090909"/>
  </clipPath>
  <clipPath id="p0c79475ae9">
   <rect x="362.078327" y="318.993153" width="246.176471" height="247.090909"/>
  </clipPath>
 </defs>
</svg>
