<?xml version="1.0" encoding="utf-8" standalone="no"?>
<!DOCTYPE svg PUBLIC "-//W3C//DTD SVG 1.1//EN"
  "http://www.w3.org/Graphics/SVG/1.1/DTD/svg11.dtd">
<svg xmlns:xlink="http://www.w3.org/1999/xlink" width="1123.2pt" height="306.415406pt" viewBox="0 0 1123.2 306.415406" xmlns="http://www.w3.org/2000/svg" version="1.1">
 <metadata>
  <rdf:RDF xmlns:dc="http://purl.org/dc/elements/1.1/" xmlns:cc="http://creativecommons.org/ns#" xmlns:rdf="http://www.w3.org/1999/02/22-rdf-syntax-ns#">
   <cc:Work>
    <dc:type rdf:resource="http://purl.org/dc/dcmitype/StillImage"/>
    <dc:date>2023-04-03T19:51:06.128434</dc:date>
    <dc:format>image/svg+xml</dc:format>
    <dc:creator>
     <cc:Agent>
      <dc:title>Matplotlib v3.5.1, https://matplotlib.org/</dc:title>
     </cc:Agent>
    </dc:creator>
   </cc:Work>
  </rdf:RDF>
 </metadata>
 <defs>
  <style type="text/css">*{stroke-linejoin: round; stroke-linecap: butt}</style>
 </defs>
 <g id="figure_1">
  <g id="patch_1">
   <path d="M 0 306.415406 
L 1123.2 306.415406 
L 1123.2 0 
L 0 0 
z
" style="fill: #ffffff"/>
  </g>
  <g id="axes_1">
   <g id="LineCollection_1">
    <path d="M 203.258196 158.437762 
L 142.668959 218.803092 
" clip-path="url(#peb544621de)" style="fill: none; stroke: #66c2a5"/>
    <path d="M 203.258196 158.437762 
L 237.680659 81.592482 
" clip-path="url(#peb544621de)" style="fill: none; stroke: #66c2a5"/>
    <path d="M 203.258196 158.437762 
L 190.160734 53.530552 
" clip-path="url(#peb544621de)" style="fill: none; stroke: #66c2a5"/>
    <path d="M 203.258196 158.437762 
L 99.302119 181.718843 
" clip-path="url(#peb544621de)" style="fill: none; stroke: #66c2a5"/>
    <path d="M 203.258196 158.437762 
L 163.188012 122.484363 
" clip-path="url(#peb544621de)" style="fill: none; stroke: #66c2a5"/>
    <path d="M 203.258196 158.437762 
L 237.166407 262.794409 
" clip-path="url(#peb544621de)" style="fill: none; stroke: #66c2a5"/>
    <path d="M 142.668959 218.803092 
L 184.241308 224.363405 
" clip-path="url(#peb544621de)" style="fill: none; stroke: #66c2a5"/>
    <path d="M 142.668959 218.803092 
L 126.329733 148.247688 
" clip-path="url(#peb544621de)" style="fill: none; stroke: #66c2a5"/>
    <path d="M 142.668959 218.803092 
L 139.49184 278.760861 
" clip-path="url(#peb544621de)" style="fill: none; stroke: #66c2a5"/>
    <path d="M 142.668959 218.803092 
L 48.224369 192.184544 
" clip-path="url(#peb544621de)" style="fill: none; stroke: #66c2a5"/>
    <path d="M 142.668959 218.803092 
L 99.302119 181.718843 
" clip-path="url(#peb544621de)" style="fill: none; stroke: #66c2a5"/>
    <path d="M 142.668959 218.803092 
L 163.188012 122.484363 
" clip-path="url(#peb544621de)" style="fill: none; stroke: #66c2a5"/>
    <path d="M 142.668959 218.803092 
L 237.166407 262.794409 
" clip-path="url(#peb544621de)" style="fill: none; stroke: #66c2a5"/>
    <path d="M 142.668959 218.803092 
L 235.859272 199.538025 
" clip-path="url(#peb544621de)" style="fill: none; stroke: #66c2a5"/>
    <path d="M 184.241308 224.363405 
L 126.329733 148.247688 
" clip-path="url(#peb544621de)" style="fill: none; stroke: #66c2a5"/>
    <path d="M 184.241308 224.363405 
L 139.49184 278.760861 
" clip-path="url(#peb544621de)" style="fill: none; stroke: #66c2a5"/>
    <path d="M 184.241308 224.363405 
L 99.302119 181.718843 
" clip-path="url(#peb544621de)" style="fill: none; stroke: #66c2a5"/>
    <path d="M 184.241308 224.363405 
L 237.166407 262.794409 
" clip-path="url(#peb544621de)" style="fill: none; stroke: #66c2a5"/>
    <path d="M 184.241308 224.363405 
L 246.256434 135.590292 
" clip-path="url(#peb544621de)" style="fill: none; stroke: #66c2a5"/>
    <path d="M 26.657851 103.188264 
L 123.347287 49.669952 
" clip-path="url(#peb544621de)" style="fill: none; stroke: #66c2a5"/>
    <path d="M 26.657851 103.188264 
L 99.302119 181.718843 
" clip-path="url(#peb544621de)" style="fill: none; stroke: #66c2a5"/>
    <path d="M 126.329733 148.247688 
L 123.347287 49.669952 
" clip-path="url(#peb544621de)" style="fill: none; stroke: #66c2a5"/>
    <path d="M 126.329733 148.247688 
L 48.224369 192.184544 
" clip-path="url(#peb544621de)" style="fill: none; stroke: #66c2a5"/>
    <path d="M 126.329733 148.247688 
L 163.188012 122.484363 
" clip-path="url(#peb544621de)" style="fill: none; stroke: #66c2a5"/>
    <path d="M 126.329733 148.247688 
L 246.256434 135.590292 
" clip-path="url(#peb544621de)" style="fill: none; stroke: #66c2a5"/>
    <path d="M 237.680659 81.592482 
L 123.347287 49.669952 
" clip-path="url(#peb544621de)" style="fill: none; stroke: #66c2a5"/>
    <path d="M 237.680659 81.592482 
L 235.859272 199.538025 
" clip-path="url(#peb544621de)" style="fill: none; stroke: #66c2a5"/>
    <path d="M 237.680659 81.592482 
L 246.256434 135.590292 
" clip-path="url(#peb544621de)" style="fill: none; stroke: #66c2a5"/>
    <path d="M 123.347287 49.669952 
L 75.947936 88.165621 
" clip-path="url(#peb544621de)" style="fill: none; stroke: #66c2a5"/>
    <path d="M 123.347287 49.669952 
L 163.188012 122.484363 
" clip-path="url(#peb544621de)" style="fill: none; stroke: #66c2a5"/>
    <path d="M 75.947936 88.165621 
L 190.160734 53.530552 
" clip-path="url(#peb544621de)" style="fill: none; stroke: #66c2a5"/>
    <path d="M 75.947936 88.165621 
L 48.224369 192.184544 
" clip-path="url(#peb544621de)" style="fill: none; stroke: #66c2a5"/>
    <path d="M 75.947936 88.165621 
L 99.302119 181.718843 
" clip-path="url(#peb544621de)" style="fill: none; stroke: #66c2a5"/>
    <path d="M 190.160734 53.530552 
L 246.256434 135.590292 
" clip-path="url(#peb544621de)" style="fill: none; stroke: #66c2a5"/>
    <path d="M 139.49184 278.760861 
L 99.302119 181.718843 
" clip-path="url(#peb544621de)" style="fill: none; stroke: #66c2a5"/>
    <path d="M 139.49184 278.760861 
L 235.859272 199.538025 
" clip-path="url(#peb544621de)" style="fill: none; stroke: #66c2a5"/>
    <path d="M 48.224369 192.184544 
L 99.302119 181.718843 
" clip-path="url(#peb544621de)" style="fill: none; stroke: #66c2a5"/>
    <path d="M 99.302119 181.718843 
L 163.188012 122.484363 
" clip-path="url(#peb544621de)" style="fill: none; stroke: #66c2a5"/>
    <path d="M 163.188012 122.484363 
L 235.859272 199.538025 
" clip-path="url(#peb544621de)" style="fill: none; stroke: #66c2a5"/>
    <path d="M 237.166407 262.794409 
L 235.859272 199.538025 
" clip-path="url(#peb544621de)" style="fill: none; stroke: #66c2a5"/>
    <path d="M 235.859272 199.538025 
L 246.256434 135.590292 
" clip-path="url(#peb544621de)" style="fill: none; stroke: #66c2a5"/>
   </g>
   <g id="PathCollection_1">
    <defs>
     <path id="mb8c1a4445a" d="M 0 5 
C 1.326016 5 2.597899 4.473168 3.535534 3.535534 
C 4.473168 2.597899 5 1.326016 5 0 
C 5 -1.326016 4.473168 -2.597899 3.535534 -3.535534 
C 2.597899 -4.473168 1.326016 -5 0 -5 
C -1.326016 -5 -2.597899 -4.473168 -3.535534 -3.535534 
C -4.473168 -2.597899 -5 -1.326016 -5 0 
C -5 1.326016 -4.473168 2.597899 -3.535534 3.535534 
C -2.597899 4.473168 -1.326016 5 0 5 
z
" style="stroke: #66c2a5; stroke-width: 1.5"/>
    </defs>
    <g clip-path="url(#peb544621de)">
     <use xlink:href="#mb8c1a4445a" x="203.258196" y="158.437762" style="fill: #66c2a5; stroke: #66c2a5; stroke-width: 1.5"/>
     <use xlink:href="#mb8c1a4445a" x="142.668959" y="218.803092" style="fill: #66c2a5; stroke: #66c2a5; stroke-width: 1.5"/>
     <use xlink:href="#mb8c1a4445a" x="184.241308" y="224.363405" style="fill: #66c2a5; stroke: #66c2a5; stroke-width: 1.5"/>
     <use xlink:href="#mb8c1a4445a" x="26.657851" y="103.188264" style="fill: #66c2a5; stroke: #66c2a5; stroke-width: 1.5"/>
     <use xlink:href="#mb8c1a4445a" x="126.329733" y="148.247688" style="fill: #66c2a5; stroke: #66c2a5; stroke-width: 1.5"/>
     <use xlink:href="#mb8c1a4445a" x="237.680659" y="81.592482" style="fill: #66c2a5; stroke: #66c2a5; stroke-width: 1.5"/>
     <use xlink:href="#mb8c1a4445a" x="123.347287" y="49.669952" style="fill: #66c2a5; stroke: #66c2a5; stroke-width: 1.5"/>
     <use xlink:href="#mb8c1a4445a" x="75.947936" y="88.165621" style="fill: #66c2a5; stroke: #66c2a5; stroke-width: 1.5"/>
     <use xlink:href="#mb8c1a4445a" x="190.160734" y="53.530552" style="fill: #66c2a5; stroke: #66c2a5; stroke-width: 1.5"/>
     <use xlink:href="#mb8c1a4445a" x="139.49184" y="278.760861" style="fill: #66c2a5; stroke: #66c2a5; stroke-width: 1.5"/>
     <use xlink:href="#mb8c1a4445a" x="48.224369" y="192.184544" style="fill: #66c2a5; stroke: #66c2a5; stroke-width: 1.5"/>
     <use xlink:href="#mb8c1a4445a" x="99.302119" y="181.718843" style="fill: #66c2a5; stroke: #66c2a5; stroke-width: 1.5"/>
     <use xlink:href="#mb8c1a4445a" x="163.188012" y="122.484363" style="fill: #66c2a5; stroke: #66c2a5; stroke-width: 1.5"/>
     <use xlink:href="#mb8c1a4445a" x="237.166407" y="262.794409" style="fill: #66c2a5; stroke: #66c2a5; stroke-width: 1.5"/>
     <use xlink:href="#mb8c1a4445a" x="235.859272" y="199.538025" style="fill: #66c2a5; stroke: #66c2a5; stroke-width: 1.5"/>
     <use xlink:href="#mb8c1a4445a" x="246.256434" y="135.590292" style="fill: #66c2a5; stroke: #66c2a5; stroke-width: 1.5"/>
    </g>
   </g>
  </g>
  <g id="axes_2">
   <g id="LineCollection_2">
    <path d="M 446.45987 223.52424 
L 442.259925 131.942072 
" clip-path="url(#pb7370dd706)" style="fill: none; stroke: #fc8d62"/>
    <path d="M 446.45987 223.52424 
L 391.437679 210.034664 
" clip-path="url(#pb7370dd706)" style="fill: none; stroke: #fc8d62"/>
    <path d="M 446.45987 223.52424 
L 376.763133 159.57913 
" clip-path="url(#pb7370dd706)" style="fill: none; stroke: #fc8d62"/>
    <path d="M 446.45987 223.52424 
L 511.97072 178.01584 
" clip-path="url(#pb7370dd706)" style="fill: none; stroke: #fc8d62"/>
    <path d="M 507.86842 67.292627 
L 421.171447 72.248517 
" clip-path="url(#pb7370dd706)" style="fill: none; stroke: #fc8d62"/>
    <path d="M 507.86842 67.292627 
L 511.97072 178.01584 
" clip-path="url(#pb7370dd706)" style="fill: none; stroke: #fc8d62"/>
    <path d="M 421.171447 72.248517 
L 442.259925 131.942072 
" clip-path="url(#pb7370dd706)" style="fill: none; stroke: #fc8d62"/>
    <path d="M 421.171447 72.248517 
L 391.437679 210.034664 
" clip-path="url(#pb7370dd706)" style="fill: none; stroke: #fc8d62"/>
    <path d="M 421.171447 72.248517 
L 376.763133 159.57913 
" clip-path="url(#pb7370dd706)" style="fill: none; stroke: #fc8d62"/>
    <path d="M 421.171447 72.248517 
L 361.366658 96.003714 
" clip-path="url(#pb7370dd706)" style="fill: none; stroke: #fc8d62"/>
    <path d="M 442.259925 131.942072 
L 376.763133 159.57913 
" clip-path="url(#pb7370dd706)" style="fill: none; stroke: #fc8d62"/>
    <path d="M 442.259925 131.942072 
L 511.97072 178.01584 
" clip-path="url(#pb7370dd706)" style="fill: none; stroke: #fc8d62"/>
    <path d="M 442.259925 131.942072 
L 361.366658 96.003714 
" clip-path="url(#pb7370dd706)" style="fill: none; stroke: #fc8d62"/>
    <path d="M 391.437679 210.034664 
L 474.749222 278.760861 
" clip-path="url(#pb7370dd706)" style="fill: none; stroke: #fc8d62"/>
    <path d="M 391.437679 210.034664 
L 361.366658 96.003714 
" clip-path="url(#pb7370dd706)" style="fill: none; stroke: #fc8d62"/>
    <path d="M 292.372137 49.669952 
L 361.366658 96.003714 
" clip-path="url(#pb7370dd706)" style="fill: none; stroke: #fc8d62"/>
    <path d="M 376.763133 159.57913 
L 361.366658 96.003714 
" clip-path="url(#pb7370dd706)" style="fill: none; stroke: #fc8d62"/>
    <path d="M 511.97072 178.01584 
L 474.749222 278.760861 
" clip-path="url(#pb7370dd706)" style="fill: none; stroke: #fc8d62"/>
   </g>
   <g id="PathCollection_2">
    <defs>
     <path id="m005a58cb31" d="M 0 5 
C 1.326016 5 2.597899 4.473168 3.535534 3.535534 
C 4.473168 2.597899 5 1.326016 5 0 
C 5 -1.326016 4.473168 -2.597899 3.535534 -3.535534 
C 2.597899 -4.473168 1.326016 -5 0 -5 
C -1.326016 -5 -2.597899 -4.473168 -3.535534 -3.535534 
C -4.473168 -2.597899 -5 -1.326016 -5 0 
C -5 1.326016 -4.473168 2.597899 -3.535534 3.535534 
C -2.597899 4.473168 -1.326016 5 0 5 
z
" style="stroke: #fc8d62; stroke-width: 1.5"/>
    </defs>
    <g clip-path="url(#pb7370dd706)">
     <use xlink:href="#m005a58cb31" x="446.45987" y="223.52424" style="fill: #fc8d62; stroke: #fc8d62; stroke-width: 1.5"/>
     <use xlink:href="#m005a58cb31" x="507.86842" y="67.292627" style="fill: #fc8d62; stroke: #fc8d62; stroke-width: 1.5"/>
     <use xlink:href="#m005a58cb31" x="421.171447" y="72.248517" style="fill: #fc8d62; stroke: #fc8d62; stroke-width: 1.5"/>
     <use xlink:href="#m005a58cb31" x="442.259925" y="131.942072" style="fill: #fc8d62; stroke: #fc8d62; stroke-width: 1.5"/>
     <use xlink:href="#m005a58cb31" x="391.437679" y="210.034664" style="fill: #fc8d62; stroke: #fc8d62; stroke-width: 1.5"/>
     <use xlink:href="#m005a58cb31" x="292.372137" y="49.669952" style="fill: #fc8d62; stroke: #fc8d62; stroke-width: 1.5"/>
     <use xlink:href="#m005a58cb31" x="376.763133" y="159.57913" style="fill: #fc8d62; stroke: #fc8d62; stroke-width: 1.5"/>
     <use xlink:href="#m005a58cb31" x="511.97072" y="178.01584" style="fill: #fc8d62; stroke: #fc8d62; stroke-width: 1.5"/>
     <use xlink:href="#m005a58cb31" x="474.749222" y="278.760861" style="fill: #fc8d62; stroke: #fc8d62; stroke-width: 1.5"/>
     <use xlink:href="#m005a58cb31" x="361.366658" y="96.003714" style="fill: #fc8d62; stroke: #fc8d62; stroke-width: 1.5"/>
    </g>
   </g>
  </g>
  <g id="axes_3">
   <g id="patch_2">
    <path d="M 770.601135 228.81734 
Q 903.458278 228.81734 1036.315421 228.81734 
" style="fill: none; opacity: 0.3; stroke: #696969; stroke-width: 1.5; stroke-linecap: round"/>
   </g>
   <g id="patch_3">
    <path d="M 801.27806 181.662655 
Q 934.135203 181.662655 1066.992345 181.662655 
" style="fill: none; opacity: 0.3; stroke: #696969; stroke-width: 1.5; stroke-linecap: round"/>
   </g>
   <g id="patch_4">
    <path d="M 745.838902 135.710301 
Q 878.696045 135.710301 1011.553188 135.710301 
" style="fill: none; opacity: 0.3; stroke: #696969; stroke-width: 1.5; stroke-linecap: round"/>
   </g>
   <g id="patch_5">
    <path d="M 786.091657 82.37985 
Q 918.9488 82.37985 1051.805943 82.37985 
" style="fill: none; opacity: 0.3; stroke: #696969; stroke-width: 1.5; stroke-linecap: round"/>
   </g>
   <g id="patch_6">
    <path d="M 747.113259 49.669952 
Q 879.970402 49.669952 1012.827545 49.669952 
" style="fill: none; opacity: 0.3; stroke: #696969; stroke-width: 1.5; stroke-linecap: round"/>
   </g>
   <g id="patch_7">
    <path d="M 760.045849 181.203474 
Q 892.902992 181.203474 1025.760134 181.203474 
" style="fill: none; opacity: 0.3; stroke: #696969; stroke-width: 1.5; stroke-linecap: round"/>
   </g>
   <g id="patch_8">
    <path d="M 812.67394 225.056428 
Q 945.531082 225.056428 1078.388225 225.056428 
" style="fill: none; opacity: 0.3; stroke: #696969; stroke-width: 1.5; stroke-linecap: round"/>
   </g>
   <g id="patch_9">
    <path d="M 637.373751 112.534525 
Q 770.230894 112.534525 903.088037 112.534525 
" style="fill: none; opacity: 0.3; stroke: #696969; stroke-width: 1.5; stroke-linecap: round"/>
   </g>
   <g id="patch_10">
    <path d="M 657.390572 233.194634 
Q 790.247715 233.194634 923.104857 233.194634 
" style="fill: none; opacity: 0.3; stroke: #696969; stroke-width: 1.5; stroke-linecap: round"/>
   </g>
   <g id="patch_11">
    <path d="M 676.310993 163.07125 
Q 809.168136 163.07125 942.025279 163.07125 
" style="fill: none; opacity: 0.3; stroke: #696969; stroke-width: 1.5; stroke-linecap: round"/>
   </g>
   <g id="patch_12">
    <path d="M 611.22928 178.28948 
Q 744.086423 178.28948 876.943566 178.28948 
" style="fill: none; opacity: 0.3; stroke: #696969; stroke-width: 1.5; stroke-linecap: round"/>
   </g>
   <g id="patch_13">
    <path d="M 770.549303 278.760861 
Q 903.406446 278.760861 1036.263589 278.760861 
" style="fill: none; opacity: 0.3; stroke: #696969; stroke-width: 1.5; stroke-linecap: round"/>
   </g>
   <g id="patch_14">
    <path d="M 720.304076 237.014362 
Q 853.161219 237.014362 986.018362 237.014362 
" style="fill: none; opacity: 0.3; stroke: #696969; stroke-width: 1.5; stroke-linecap: round"/>
   </g>
   <g id="patch_15">
    <path d="M 720.768972 199.799084 
Q 853.626115 199.799084 986.483258 199.799084 
" style="fill: none; opacity: 0.3; stroke: #696969; stroke-width: 1.5; stroke-linecap: round"/>
   </g>
   <g id="patch_16">
    <path d="M 830.827863 143.485947 
Q 963.685006 143.485947 1096.542149 143.485947 
" style="fill: none; opacity: 0.3; stroke: #696969; stroke-width: 1.5; stroke-linecap: round"/>
   </g>
   <g id="patch_17">
    <path d="M 710.798736 133.575127 
Q 843.655879 133.575127 976.513021 133.575127 
" style="fill: none; opacity: 0.3; stroke: #696969; stroke-width: 1.5; stroke-linecap: round"/>
   </g>
  </g>
  <g id="axes_4">
   <g id="LineCollection_3">
    <path d="M 770.601135 228.81734 
L 801.27806 181.662655 
" clip-path="url(#pa46cb71063)" style="fill: none; stroke: #66c2a5"/>
    <path d="M 770.601135 228.81734 
L 745.838902 135.710301 
" clip-path="url(#pa46cb71063)" style="fill: none; stroke: #66c2a5"/>
    <path d="M 770.601135 228.81734 
L 720.304076 237.014362 
" clip-path="url(#pa46cb71063)" style="fill: none; stroke: #66c2a5"/>
    <path d="M 770.601135 228.81734 
L 720.768972 199.799084 
" clip-path="url(#pa46cb71063)" style="fill: none; stroke: #66c2a5"/>
    <path d="M 801.27806 181.662655 
L 745.838902 135.710301 
" clip-path="url(#pa46cb71063)" style="fill: none; stroke: #66c2a5"/>
    <path d="M 801.27806 181.662655 
L 812.67394 225.056428 
" clip-path="url(#pa46cb71063)" style="fill: none; stroke: #66c2a5"/>
    <path d="M 801.27806 181.662655 
L 720.304076 237.014362 
" clip-path="url(#pa46cb71063)" style="fill: none; stroke: #66c2a5"/>
    <path d="M 801.27806 181.662655 
L 830.827863 143.485947 
" clip-path="url(#pa46cb71063)" style="fill: none; stroke: #66c2a5"/>
    <path d="M 745.838902 135.710301 
L 747.113259 49.669952 
" clip-path="url(#pa46cb71063)" style="fill: none; stroke: #66c2a5"/>
    <path d="M 745.838902 135.710301 
L 760.045849 181.203474 
" clip-path="url(#pa46cb71063)" style="fill: none; stroke: #66c2a5"/>
    <path d="M 745.838902 135.710301 
L 676.310993 163.07125 
" clip-path="url(#pa46cb71063)" style="fill: none; stroke: #66c2a5"/>
    <path d="M 745.838902 135.710301 
L 720.768972 199.799084 
" clip-path="url(#pa46cb71063)" style="fill: none; stroke: #66c2a5"/>
    <path d="M 786.091657 82.37985 
L 747.113259 49.669952 
" clip-path="url(#pa46cb71063)" style="fill: none; stroke: #66c2a5"/>
    <path d="M 786.091657 82.37985 
L 830.827863 143.485947 
" clip-path="url(#pa46cb71063)" style="fill: none; stroke: #66c2a5"/>
    <path d="M 786.091657 82.37985 
L 710.798736 133.575127 
" clip-path="url(#pa46cb71063)" style="fill: none; stroke: #66c2a5"/>
    <path d="M 760.045849 181.203474 
L 812.67394 225.056428 
" clip-path="url(#pa46cb71063)" style="fill: none; stroke: #66c2a5"/>
    <path d="M 760.045849 181.203474 
L 676.310993 163.07125 
" clip-path="url(#pa46cb71063)" style="fill: none; stroke: #66c2a5"/>
    <path d="M 760.045849 181.203474 
L 770.549303 278.760861 
" clip-path="url(#pa46cb71063)" style="fill: none; stroke: #66c2a5"/>
    <path d="M 760.045849 181.203474 
L 720.768972 199.799084 
" clip-path="url(#pa46cb71063)" style="fill: none; stroke: #66c2a5"/>
    <path d="M 760.045849 181.203474 
L 830.827863 143.485947 
" clip-path="url(#pa46cb71063)" style="fill: none; stroke: #66c2a5"/>
    <path d="M 760.045849 181.203474 
L 710.798736 133.575127 
" clip-path="url(#pa46cb71063)" style="fill: none; stroke: #66c2a5"/>
    <path d="M 812.67394 225.056428 
L 770.549303 278.760861 
" clip-path="url(#pa46cb71063)" style="fill: none; stroke: #66c2a5"/>
    <path d="M 812.67394 225.056428 
L 720.768972 199.799084 
" clip-path="url(#pa46cb71063)" style="fill: none; stroke: #66c2a5"/>
    <path d="M 812.67394 225.056428 
L 830.827863 143.485947 
" clip-path="url(#pa46cb71063)" style="fill: none; stroke: #66c2a5"/>
    <path d="M 637.373751 112.534525 
L 676.310993 163.07125 
" clip-path="url(#pa46cb71063)" style="fill: none; stroke: #66c2a5"/>
    <path d="M 637.373751 112.534525 
L 611.22928 178.28948 
" clip-path="url(#pa46cb71063)" style="fill: none; stroke: #66c2a5"/>
    <path d="M 637.373751 112.534525 
L 710.798736 133.575127 
" clip-path="url(#pa46cb71063)" style="fill: none; stroke: #66c2a5"/>
    <path d="M 657.390572 233.194634 
L 676.310993 163.07125 
" clip-path="url(#pa46cb71063)" style="fill: none; stroke: #66c2a5"/>
    <path d="M 657.390572 233.194634 
L 611.22928 178.28948 
" clip-path="url(#pa46cb71063)" style="fill: none; stroke: #66c2a5"/>
    <path d="M 657.390572 233.194634 
L 720.304076 237.014362 
" clip-path="url(#pa46cb71063)" style="fill: none; stroke: #66c2a5"/>
    <path d="M 657.390572 233.194634 
L 720.768972 199.799084 
" clip-path="url(#pa46cb71063)" style="fill: none; stroke: #66c2a5"/>
    <path d="M 676.310993 163.07125 
L 611.22928 178.28948 
" clip-path="url(#pa46cb71063)" style="fill: none; stroke: #66c2a5"/>
    <path d="M 676.310993 163.07125 
L 710.798736 133.575127 
" clip-path="url(#pa46cb71063)" style="fill: none; stroke: #66c2a5"/>
    <path d="M 770.549303 278.760861 
L 720.304076 237.014362 
" clip-path="url(#pa46cb71063)" style="fill: none; stroke: #66c2a5"/>
    <path d="M 720.304076 237.014362 
L 710.798736 133.575127 
" clip-path="url(#pa46cb71063)" style="fill: none; stroke: #66c2a5"/>
    <path d="M 720.768972 199.799084 
L 710.798736 133.575127 
" clip-path="url(#pa46cb71063)" style="fill: none; stroke: #66c2a5"/>
   </g>
   <g id="PathCollection_3">
    <g clip-path="url(#pa46cb71063)">
     <use xlink:href="#mb8c1a4445a" x="770.601135" y="228.81734" style="fill: #66c2a5; stroke: #66c2a5; stroke-width: 1.5"/>
     <use xlink:href="#mb8c1a4445a" x="801.27806" y="181.662655" style="fill: #66c2a5; stroke: #66c2a5; stroke-width: 1.5"/>
     <use xlink:href="#mb8c1a4445a" x="745.838902" y="135.710301" style="fill: #66c2a5; stroke: #66c2a5; stroke-width: 1.5"/>
     <use xlink:href="#mb8c1a4445a" x="786.091657" y="82.37985" style="fill: #66c2a5; stroke: #66c2a5; stroke-width: 1.5"/>
     <use xlink:href="#mb8c1a4445a" x="747.113259" y="49.669952" style="fill: #66c2a5; stroke: #66c2a5; stroke-width: 1.5"/>
     <use xlink:href="#mb8c1a4445a" x="760.045849" y="181.203474" style="fill: #66c2a5; stroke: #66c2a5; stroke-width: 1.5"/>
     <use xlink:href="#mb8c1a4445a" x="812.67394" y="225.056428" style="fill: #66c2a5; stroke: #66c2a5; stroke-width: 1.5"/>
     <use xlink:href="#mb8c1a4445a" x="637.373751" y="112.534525" style="fill: #66c2a5; stroke: #66c2a5; stroke-width: 1.5"/>
     <use xlink:href="#mb8c1a4445a" x="657.390572" y="233.194634" style="fill: #66c2a5; stroke: #66c2a5; stroke-width: 1.5"/>
     <use xlink:href="#mb8c1a4445a" x="676.310993" y="163.07125" style="fill: #66c2a5; stroke: #66c2a5; stroke-width: 1.5"/>
     <use xlink:href="#mb8c1a4445a" x="611.22928" y="178.28948" style="fill: #66c2a5; stroke: #66c2a5; stroke-width: 1.5"/>
     <use xlink:href="#mb8c1a4445a" x="770.549303" y="278.760861" style="fill: #66c2a5; stroke: #66c2a5; stroke-width: 1.5"/>
     <use xlink:href="#mb8c1a4445a" x="720.304076" y="237.014362" style="fill: #66c2a5; stroke: #66c2a5; stroke-width: 1.5"/>
     <use xlink:href="#mb8c1a4445a" x="720.768972" y="199.799084" style="fill: #66c2a5; stroke: #66c2a5; stroke-width: 1.5"/>
     <use xlink:href="#mb8c1a4445a" x="830.827863" y="143.485947" style="fill: #66c2a5; stroke: #66c2a5; stroke-width: 1.5"/>
     <use xlink:href="#mb8c1a4445a" x="710.798736" y="133.575127" style="fill: #66c2a5; stroke: #66c2a5; stroke-width: 1.5"/>
    </g>
   </g>
  </g>
  <g id="axes_5">
   <g id="LineCollection_4">
    <path d="M 1036.315421 228.81734 
L 1066.992345 181.662655 
" clip-path="url(#p0b86509f77)" style="fill: none; stroke: #fc8d62"/>
    <path d="M 1036.315421 228.81734 
L 1011.553188 135.710301 
" clip-path="url(#p0b86509f77)" style="fill: none; stroke: #fc8d62"/>
    <path d="M 1036.315421 228.81734 
L 986.018362 237.014362 
" clip-path="url(#p0b86509f77)" style="fill: none; stroke: #fc8d62"/>
    <path d="M 1036.315421 228.81734 
L 986.483258 199.799084 
" clip-path="url(#p0b86509f77)" style="fill: none; stroke: #fc8d62"/>
    <path d="M 1066.992345 181.662655 
L 1011.553188 135.710301 
" clip-path="url(#p0b86509f77)" style="fill: none; stroke: #fc8d62"/>
    <path d="M 1066.992345 181.662655 
L 1078.388225 225.056428 
" clip-path="url(#p0b86509f77)" style="fill: none; stroke: #fc8d62"/>
    <path d="M 1066.992345 181.662655 
L 986.018362 237.014362 
" clip-path="url(#p0b86509f77)" style="fill: none; stroke: #fc8d62"/>
    <path d="M 1066.992345 181.662655 
L 1096.542149 143.485947 
" clip-path="url(#p0b86509f77)" style="fill: none; stroke: #fc8d62"/>
    <path d="M 1011.553188 135.710301 
L 1012.827545 49.669952 
" clip-path="url(#p0b86509f77)" style="fill: none; stroke: #fc8d62"/>
    <path d="M 1011.553188 135.710301 
L 942.025279 163.07125 
" clip-path="url(#p0b86509f77)" style="fill: none; stroke: #fc8d62"/>
    <path d="M 1011.553188 135.710301 
L 986.483258 199.799084 
" clip-path="url(#p0b86509f77)" style="fill: none; stroke: #fc8d62"/>
    <path d="M 1051.805943 82.37985 
L 1012.827545 49.669952 
" clip-path="url(#p0b86509f77)" style="fill: none; stroke: #fc8d62"/>
    <path d="M 1051.805943 82.37985 
L 1096.542149 143.485947 
" clip-path="url(#p0b86509f77)" style="fill: none; stroke: #fc8d62"/>
    <path d="M 1025.760134 181.203474 
L 1078.388225 225.056428 
" clip-path="url(#p0b86509f77)" style="fill: none; stroke: #fc8d62"/>
    <path d="M 1025.760134 181.203474 
L 942.025279 163.07125 
" clip-path="url(#p0b86509f77)" style="fill: none; stroke: #fc8d62"/>
    <path d="M 1025.760134 181.203474 
L 1036.263589 278.760861 
" clip-path="url(#p0b86509f77)" style="fill: none; stroke: #fc8d62"/>
    <path d="M 1025.760134 181.203474 
L 1096.542149 143.485947 
" clip-path="url(#p0b86509f77)" style="fill: none; stroke: #fc8d62"/>
    <path d="M 1078.388225 225.056428 
L 1036.263589 278.760861 
" clip-path="url(#p0b86509f77)" style="fill: none; stroke: #fc8d62"/>
    <path d="M 1078.388225 225.056428 
L 1096.542149 143.485947 
" clip-path="url(#p0b86509f77)" style="fill: none; stroke: #fc8d62"/>
    <path d="M 903.088037 112.534525 
L 942.025279 163.07125 
" clip-path="url(#p0b86509f77)" style="fill: none; stroke: #fc8d62"/>
    <path d="M 903.088037 112.534525 
L 876.943566 178.28948 
" clip-path="url(#p0b86509f77)" style="fill: none; stroke: #fc8d62"/>
    <path d="M 903.088037 112.534525 
L 976.513021 133.575127 
" clip-path="url(#p0b86509f77)" style="fill: none; stroke: #fc8d62"/>
    <path d="M 923.104857 233.194634 
L 942.025279 163.07125 
" clip-path="url(#p0b86509f77)" style="fill: none; stroke: #fc8d62"/>
    <path d="M 923.104857 233.194634 
L 876.943566 178.28948 
" clip-path="url(#p0b86509f77)" style="fill: none; stroke: #fc8d62"/>
    <path d="M 923.104857 233.194634 
L 986.018362 237.014362 
" clip-path="url(#p0b86509f77)" style="fill: none; stroke: #fc8d62"/>
    <path d="M 923.104857 233.194634 
L 986.483258 199.799084 
" clip-path="url(#p0b86509f77)" style="fill: none; stroke: #fc8d62"/>
    <path d="M 942.025279 163.07125 
L 876.943566 178.28948 
" clip-path="url(#p0b86509f77)" style="fill: none; stroke: #fc8d62"/>
    <path d="M 942.025279 163.07125 
L 976.513021 133.575127 
" clip-path="url(#p0b86509f77)" style="fill: none; stroke: #fc8d62"/>
    <path d="M 1036.263589 278.760861 
L 986.018362 237.014362 
" clip-path="url(#p0b86509f77)" style="fill: none; stroke: #fc8d62"/>
    <path d="M 986.018362 237.014362 
L 976.513021 133.575127 
" clip-path="url(#p0b86509f77)" style="fill: none; stroke: #fc8d62"/>
    <path d="M 986.483258 199.799084 
L 1096.542149 143.485947 
" clip-path="url(#p0b86509f77)" style="fill: none; stroke: #fc8d62"/>
    <path d="M 986.483258 199.799084 
L 976.513021 133.575127 
" clip-path="url(#p0b86509f77)" style="fill: none; stroke: #fc8d62"/>
   </g>
   <g id="PathCollection_4">
    <g clip-path="url(#p0b86509f77)">
     <use xlink:href="#m005a58cb31" x="1036.315421" y="228.81734" style="fill: #fc8d62; stroke: #fc8d62; stroke-width: 1.5"/>
     <use xlink:href="#m005a58cb31" x="1066.992345" y="181.662655" style="fill: #fc8d62; stroke: #fc8d62; stroke-width: 1.5"/>
     <use xlink:href="#m005a58cb31" x="1011.553188" y="135.710301" style="fill: #fc8d62; stroke: #fc8d62; stroke-width: 1.5"/>
     <use xlink:href="#m005a58cb31" x="1051.805943" y="82.37985" style="fill: #fc8d62; stroke: #fc8d62; stroke-width: 1.5"/>
     <use xlink:href="#m005a58cb31" x="1012.827545" y="49.669952" style="fill: #fc8d62; stroke: #fc8d62; stroke-width: 1.5"/>
     <use xlink:href="#m005a58cb31" x="1025.760134" y="181.203474" style="fill: #fc8d62; stroke: #fc8d62; stroke-width: 1.5"/>
     <use xlink:href="#m005a58cb31" x="1078.388225" y="225.056428" style="fill: #fc8d62; stroke: #fc8d62; stroke-width: 1.5"/>
     <use xlink:href="#m005a58cb31" x="903.088037" y="112.534525" style="fill: #fc8d62; stroke: #fc8d62; stroke-width: 1.5"/>
     <use xlink:href="#m005a58cb31" x="923.104857" y="233.194634" style="fill: #fc8d62; stroke: #fc8d62; stroke-width: 1.5"/>
     <use xlink:href="#m005a58cb31" x="942.025279" y="163.07125" style="fill: #fc8d62; stroke: #fc8d62; stroke-width: 1.5"/>
     <use xlink:href="#m005a58cb31" x="876.943566" y="178.28948" style="fill: #fc8d62; stroke: #fc8d62; stroke-width: 1.5"/>
     <use xlink:href="#m005a58cb31" x="1036.263589" y="278.760861" style="fill: #fc8d62; stroke: #fc8d62; stroke-width: 1.5"/>
     <use xlink:href="#m005a58cb31" x="986.018362" y="237.014362" style="fill: #fc8d62; stroke: #fc8d62; stroke-width: 1.5"/>
     <use xlink:href="#m005a58cb31" x="986.483258" y="199.799084" style="fill: #fc8d62; stroke: #fc8d62; stroke-width: 1.5"/>
     <use xlink:href="#m005a58cb31" x="1096.542149" y="143.485947" style="fill: #fc8d62; stroke: #fc8d62; stroke-width: 1.5"/>
     <use xlink:href="#m005a58cb31" x="976.513021" y="133.575127" style="fill: #fc8d62; stroke: #fc8d62; stroke-width: 1.5"/>
    </g>
   </g>
  </g>
  <g id="text_1">
   <!-- Unmatched -->
   <g transform="translate(183.6 26.791312)scale(0.324 -0.324)">
    <defs>
     <path id="ArialMT-55" d="M 3500 4581 
L 4106 4581 
L 4106 1934 
Q 4106 1244 3950 837 
Q 3794 431 3386 176 
Q 2978 -78 2316 -78 
Q 1672 -78 1262 144 
Q 853 366 678 786 
Q 503 1206 503 1934 
L 503 4581 
L 1109 4581 
L 1109 1938 
Q 1109 1341 1220 1058 
Q 1331 775 1601 622 
Q 1872 469 2263 469 
Q 2931 469 3215 772 
Q 3500 1075 3500 1938 
L 3500 4581 
z
" transform="scale(0.015625)"/>
     <path id="ArialMT-6e" d="M 422 0 
L 422 3319 
L 928 3319 
L 928 2847 
Q 1294 3394 1984 3394 
Q 2284 3394 2536 3286 
Q 2788 3178 2913 3003 
Q 3038 2828 3088 2588 
Q 3119 2431 3119 2041 
L 3119 0 
L 2556 0 
L 2556 2019 
Q 2556 2363 2490 2533 
Q 2425 2703 2258 2804 
Q 2091 2906 1866 2906 
Q 1506 2906 1245 2678 
Q 984 2450 984 1813 
L 984 0 
L 422 0 
z
" transform="scale(0.015625)"/>
     <path id="ArialMT-6d" d="M 422 0 
L 422 3319 
L 925 3319 
L 925 2853 
Q 1081 3097 1340 3245 
Q 1600 3394 1931 3394 
Q 2300 3394 2536 3241 
Q 2772 3088 2869 2813 
Q 3263 3394 3894 3394 
Q 4388 3394 4653 3120 
Q 4919 2847 4919 2278 
L 4919 0 
L 4359 0 
L 4359 2091 
Q 4359 2428 4304 2576 
Q 4250 2725 4106 2815 
Q 3963 2906 3769 2906 
Q 3419 2906 3187 2673 
Q 2956 2441 2956 1928 
L 2956 0 
L 2394 0 
L 2394 2156 
Q 2394 2531 2256 2718 
Q 2119 2906 1806 2906 
Q 1569 2906 1367 2781 
Q 1166 2656 1075 2415 
Q 984 2175 984 1722 
L 984 0 
L 422 0 
z
" transform="scale(0.015625)"/>
     <path id="ArialMT-61" d="M 2588 409 
Q 2275 144 1986 34 
Q 1697 -75 1366 -75 
Q 819 -75 525 192 
Q 231 459 231 875 
Q 231 1119 342 1320 
Q 453 1522 633 1644 
Q 813 1766 1038 1828 
Q 1203 1872 1538 1913 
Q 2219 1994 2541 2106 
Q 2544 2222 2544 2253 
Q 2544 2597 2384 2738 
Q 2169 2928 1744 2928 
Q 1347 2928 1158 2789 
Q 969 2650 878 2297 
L 328 2372 
Q 403 2725 575 2942 
Q 747 3159 1072 3276 
Q 1397 3394 1825 3394 
Q 2250 3394 2515 3294 
Q 2781 3194 2906 3042 
Q 3031 2891 3081 2659 
Q 3109 2516 3109 2141 
L 3109 1391 
Q 3109 606 3145 398 
Q 3181 191 3288 0 
L 2700 0 
Q 2613 175 2588 409 
z
M 2541 1666 
Q 2234 1541 1622 1453 
Q 1275 1403 1131 1340 
Q 988 1278 909 1158 
Q 831 1038 831 891 
Q 831 666 1001 516 
Q 1172 366 1500 366 
Q 1825 366 2078 508 
Q 2331 650 2450 897 
Q 2541 1088 2541 1459 
L 2541 1666 
z
" transform="scale(0.015625)"/>
     <path id="ArialMT-74" d="M 1650 503 
L 1731 6 
Q 1494 -44 1306 -44 
Q 1000 -44 831 53 
Q 663 150 594 308 
Q 525 466 525 972 
L 525 2881 
L 113 2881 
L 113 3319 
L 525 3319 
L 525 4141 
L 1084 4478 
L 1084 3319 
L 1650 3319 
L 1650 2881 
L 1084 2881 
L 1084 941 
Q 1084 700 1114 631 
Q 1144 563 1211 522 
Q 1278 481 1403 481 
Q 1497 481 1650 503 
z
" transform="scale(0.015625)"/>
     <path id="ArialMT-63" d="M 2588 1216 
L 3141 1144 
Q 3050 572 2676 248 
Q 2303 -75 1759 -75 
Q 1078 -75 664 370 
Q 250 816 250 1647 
Q 250 2184 428 2587 
Q 606 2991 970 3192 
Q 1334 3394 1763 3394 
Q 2303 3394 2647 3120 
Q 2991 2847 3088 2344 
L 2541 2259 
Q 2463 2594 2264 2762 
Q 2066 2931 1784 2931 
Q 1359 2931 1093 2626 
Q 828 2322 828 1663 
Q 828 994 1084 691 
Q 1341 388 1753 388 
Q 2084 388 2306 591 
Q 2528 794 2588 1216 
z
" transform="scale(0.015625)"/>
     <path id="ArialMT-68" d="M 422 0 
L 422 4581 
L 984 4581 
L 984 2938 
Q 1378 3394 1978 3394 
Q 2347 3394 2619 3248 
Q 2891 3103 3008 2847 
Q 3125 2591 3125 2103 
L 3125 0 
L 2563 0 
L 2563 2103 
Q 2563 2525 2380 2717 
Q 2197 2909 1863 2909 
Q 1613 2909 1392 2779 
Q 1172 2650 1078 2428 
Q 984 2206 984 1816 
L 984 0 
L 422 0 
z
" transform="scale(0.015625)"/>
     <path id="ArialMT-65" d="M 2694 1069 
L 3275 997 
Q 3138 488 2766 206 
Q 2394 -75 1816 -75 
Q 1088 -75 661 373 
Q 234 822 234 1631 
Q 234 2469 665 2931 
Q 1097 3394 1784 3394 
Q 2450 3394 2872 2941 
Q 3294 2488 3294 1666 
Q 3294 1616 3291 1516 
L 816 1516 
Q 847 969 1125 678 
Q 1403 388 1819 388 
Q 2128 388 2347 550 
Q 2566 713 2694 1069 
z
M 847 1978 
L 2700 1978 
Q 2663 2397 2488 2606 
Q 2219 2931 1791 2931 
Q 1403 2931 1139 2672 
Q 875 2413 847 1978 
z
" transform="scale(0.015625)"/>
     <path id="ArialMT-64" d="M 2575 0 
L 2575 419 
Q 2259 -75 1647 -75 
Q 1250 -75 917 144 
Q 584 363 401 755 
Q 219 1147 219 1656 
Q 219 2153 384 2558 
Q 550 2963 881 3178 
Q 1213 3394 1622 3394 
Q 1922 3394 2156 3267 
Q 2391 3141 2538 2938 
L 2538 4581 
L 3097 4581 
L 3097 0 
L 2575 0 
z
M 797 1656 
Q 797 1019 1065 703 
Q 1334 388 1700 388 
Q 2069 388 2326 689 
Q 2584 991 2584 1609 
Q 2584 2291 2321 2609 
Q 2059 2928 1675 2928 
Q 1300 2928 1048 2622 
Q 797 2316 797 1656 
z
" transform="scale(0.015625)"/>
    </defs>
    <use xlink:href="#ArialMT-55"/>
    <use xlink:href="#ArialMT-6e" x="72.216797"/>
    <use xlink:href="#ArialMT-6d" x="127.832031"/>
    <use xlink:href="#ArialMT-61" x="211.132812"/>
    <use xlink:href="#ArialMT-74" x="266.748047"/>
    <use xlink:href="#ArialMT-63" x="294.53125"/>
    <use xlink:href="#ArialMT-68" x="344.53125"/>
    <use xlink:href="#ArialMT-65" x="400.146484"/>
    <use xlink:href="#ArialMT-64" x="455.761719"/>
   </g>
  </g>
  <g id="text_2">
   <!-- Matched -->
   <g transform="translate(802.8 26.791312)scale(0.324 -0.324)">
    <defs>
     <path id="ArialMT-4d" d="M 475 0 
L 475 4581 
L 1388 4581 
L 2472 1338 
Q 2622 884 2691 659 
Q 2769 909 2934 1394 
L 4031 4581 
L 4847 4581 
L 4847 0 
L 4263 0 
L 4263 3834 
L 2931 0 
L 2384 0 
L 1059 3900 
L 1059 0 
L 475 0 
z
" transform="scale(0.015625)"/>
    </defs>
    <use xlink:href="#ArialMT-4d"/>
    <use xlink:href="#ArialMT-61" x="83.300781"/>
    <use xlink:href="#ArialMT-74" x="138.916016"/>
    <use xlink:href="#ArialMT-63" x="166.699219"/>
    <use xlink:href="#ArialMT-68" x="216.699219"/>
    <use xlink:href="#ArialMT-65" x="272.314453"/>
    <use xlink:href="#ArialMT-64" x="327.929688"/>
   </g>
  </g>
 </g>
 <defs>
  <clipPath id="peb544621de">
   <rect x="3.6" y="25.615406" width="265.714286" height="277.2"/>
  </clipPath>
  <clipPath id="pb7370dd706">
   <rect x="269.314286" y="25.615406" width="265.714286" height="277.2"/>
  </clipPath>
  <clipPath id="pa46cb71063">
   <rect x="588.171429" y="25.615406" width="265.714286" height="277.2"/>
  </clipPath>
  <clipPath id="p0b86509f77">
   <rect x="853.885714" y="25.615406" width="265.714286" height="277.2"/>
  </clipPath>
 </defs>
</svg>
