<?xml version="1.0" encoding="utf-8" standalone="no"?>
<!DOCTYPE svg PUBLIC "-//W3C//DTD SVG 1.1//EN"
  "http://www.w3.org/Graphics/SVG/1.1/DTD/svg11.dtd">
<svg xmlns:xlink="http://www.w3.org/1999/xlink" width="569.839502pt" height="461.964388pt" viewBox="0 0 569.839502 461.964388" xmlns="http://www.w3.org/2000/svg" version="1.1">
 <metadata>
  <rdf:RDF xmlns:dc="http://purl.org/dc/elements/1.1/" xmlns:cc="http://creativecommons.org/ns#" xmlns:rdf="http://www.w3.org/1999/02/22-rdf-syntax-ns#">
   <cc:Work>
    <dc:type rdf:resource="http://purl.org/dc/dcmitype/StillImage"/>
    <dc:date>2023-03-08T14:18:47.930614</dc:date>
    <dc:format>image/svg+xml</dc:format>
    <dc:creator>
     <cc:Agent>
      <dc:title>Matplotlib v3.5.1, https://matplotlib.org/</dc:title>
     </cc:Agent>
    </dc:creator>
   </cc:Work>
  </rdf:RDF>
 </metadata>
 <defs>
  <style type="text/css">*{stroke-linejoin: round; stroke-linecap: butt}</style>
 </defs>
 <g id="figure_1">
  <g id="patch_1">
   <path d="M 0 461.964388 
L 569.839502 461.964388 
L 569.839502 0 
L 0 0 
z
" style="fill: #ffffff"/>
  </g>
  <g id="axes_1">
   <g id="patch_2">
    <path d="M 99.2 339.359338 
L 545.6 339.359338 
L 545.6 6.719338 
L 99.2 6.719338 
z
" style="fill: #ffffff"/>
   </g>
   <g id="line2d_1">
    <path d="M 99.2 75.291126 
L 545.6 75.291126 
" clip-path="url(#p9455c0c477)" style="fill: none; stroke-dasharray: 2.25,3.7125; stroke-dashoffset: 0; stroke: #000000; stroke-width: 2.25"/>
   </g>
   <g id="axes_2">
    <g id="patch_3">
     <path d="M 99.2 405.887338 
L 545.6 405.887338 
L 545.6 405.887338 
L 99.2 405.887338 
z
" style="fill: #ffffff"/>
    </g>
    <g id="matplotlib.axis_1">
     <g id="xtick_1">
      <g id="line2d_2">
       <defs>
        <path id="m87cac6d8dc" d="M 0 0 
L 0 5 
" style="stroke: #000000; stroke-width: 1.875"/>
       </defs>
       <g>
        <use xlink:href="#m87cac6d8dc" x="147.313744" y="405.887338" style="stroke: #000000; stroke-width: 1.875"/>
       </g>
      </g>
      <g id="text_1">
       <!-- 0.5% -->
       <g transform="translate(123.809301 429.150326)scale(0.20625 -0.20625)">
        <defs>
         <path id="ArialMT-30" d="M 266 2259 
Q 266 3072 433 3567 
Q 600 4063 929 4331 
Q 1259 4600 1759 4600 
Q 2128 4600 2406 4451 
Q 2684 4303 2865 4023 
Q 3047 3744 3150 3342 
Q 3253 2941 3253 2259 
Q 3253 1453 3087 958 
Q 2922 463 2592 192 
Q 2263 -78 1759 -78 
Q 1097 -78 719 397 
Q 266 969 266 2259 
z
M 844 2259 
Q 844 1131 1108 757 
Q 1372 384 1759 384 
Q 2147 384 2411 759 
Q 2675 1134 2675 2259 
Q 2675 3391 2411 3762 
Q 2147 4134 1753 4134 
Q 1366 4134 1134 3806 
Q 844 3388 844 2259 
z
" transform="scale(0.015625)"/>
         <path id="ArialMT-2e" d="M 581 0 
L 581 641 
L 1222 641 
L 1222 0 
L 581 0 
z
" transform="scale(0.015625)"/>
         <path id="ArialMT-35" d="M 266 1200 
L 856 1250 
Q 922 819 1161 601 
Q 1400 384 1738 384 
Q 2144 384 2425 690 
Q 2706 997 2706 1503 
Q 2706 1984 2436 2262 
Q 2166 2541 1728 2541 
Q 1456 2541 1237 2417 
Q 1019 2294 894 2097 
L 366 2166 
L 809 4519 
L 3088 4519 
L 3088 3981 
L 1259 3981 
L 1013 2750 
Q 1425 3038 1878 3038 
Q 2478 3038 2890 2622 
Q 3303 2206 3303 1553 
Q 3303 931 2941 478 
Q 2500 -78 1738 -78 
Q 1113 -78 717 272 
Q 322 622 266 1200 
z
" transform="scale(0.015625)"/>
         <path id="ArialMT-25" d="M 372 3481 
Q 372 3972 619 4315 
Q 866 4659 1334 4659 
Q 1766 4659 2048 4351 
Q 2331 4044 2331 3447 
Q 2331 2866 2045 2552 
Q 1759 2238 1341 2238 
Q 925 2238 648 2547 
Q 372 2856 372 3481 
z
M 1350 4272 
Q 1141 4272 1002 4090 
Q 863 3909 863 3425 
Q 863 2984 1003 2804 
Q 1144 2625 1350 2625 
Q 1563 2625 1702 2806 
Q 1841 2988 1841 3469 
Q 1841 3913 1700 4092 
Q 1559 4272 1350 4272 
z
M 1353 -169 
L 3859 4659 
L 4316 4659 
L 1819 -169 
L 1353 -169 
z
M 3334 1075 
Q 3334 1569 3581 1911 
Q 3828 2253 4300 2253 
Q 4731 2253 5014 1945 
Q 5297 1638 5297 1041 
Q 5297 459 5011 145 
Q 4725 -169 4303 -169 
Q 3888 -169 3611 142 
Q 3334 453 3334 1075 
z
M 4316 1866 
Q 4103 1866 3964 1684 
Q 3825 1503 3825 1019 
Q 3825 581 3965 400 
Q 4106 219 4313 219 
Q 4528 219 4667 400 
Q 4806 581 4806 1063 
Q 4806 1506 4665 1686 
Q 4525 1866 4316 1866 
z
" transform="scale(0.015625)"/>
        </defs>
        <use xlink:href="#ArialMT-30"/>
        <use xlink:href="#ArialMT-2e" x="55.615234"/>
        <use xlink:href="#ArialMT-35" x="83.398438"/>
        <use xlink:href="#ArialMT-25" x="139.013672"/>
       </g>
      </g>
     </g>
     <g id="xtick_2">
      <g id="line2d_3">
       <g>
        <use xlink:href="#m87cac6d8dc" x="307.965877" y="405.887338" style="stroke: #000000; stroke-width: 1.875"/>
       </g>
      </g>
      <g id="text_2">
       <!-- 1% -->
       <g transform="translate(293.061092 429.150326)scale(0.20625 -0.20625)">
        <defs>
         <path id="ArialMT-31" d="M 2384 0 
L 1822 0 
L 1822 3584 
Q 1619 3391 1289 3197 
Q 959 3003 697 2906 
L 697 3450 
Q 1169 3672 1522 3987 
Q 1875 4303 2022 4600 
L 2384 4600 
L 2384 0 
z
" transform="scale(0.015625)"/>
        </defs>
        <use xlink:href="#ArialMT-31"/>
        <use xlink:href="#ArialMT-25" x="55.615234"/>
       </g>
      </g>
     </g>
     <g id="xtick_3">
      <g id="line2d_4">
       <g>
        <use xlink:href="#m87cac6d8dc" x="400.508057" y="405.887338" style="stroke: #000000; stroke-width: 1.875"/>
       </g>
      </g>
      <g id="text_3">
       <!-- 1.5% -->
       <g transform="translate(377.003614 429.150326)scale(0.20625 -0.20625)">
        <use xlink:href="#ArialMT-31"/>
        <use xlink:href="#ArialMT-2e" x="55.615234"/>
        <use xlink:href="#ArialMT-35" x="83.398438"/>
        <use xlink:href="#ArialMT-25" x="139.013672"/>
       </g>
      </g>
     </g>
     <g id="xtick_4">
      <g id="line2d_5">
       <g>
        <use xlink:href="#m87cac6d8dc" x="456.538389" y="405.887338" style="stroke: #000000; stroke-width: 1.875"/>
       </g>
      </g>
      <g id="text_4">
       <!-- 2% -->
       <g transform="translate(441.633603 429.150326)scale(0.20625 -0.20625)">
        <defs>
         <path id="ArialMT-32" d="M 3222 541 
L 3222 0 
L 194 0 
Q 188 203 259 391 
Q 375 700 629 1000 
Q 884 1300 1366 1694 
Q 2113 2306 2375 2664 
Q 2638 3022 2638 3341 
Q 2638 3675 2398 3904 
Q 2159 4134 1775 4134 
Q 1369 4134 1125 3890 
Q 881 3647 878 3216 
L 300 3275 
Q 359 3922 746 4261 
Q 1134 4600 1788 4600 
Q 2447 4600 2831 4234 
Q 3216 3869 3216 3328 
Q 3216 3053 3103 2787 
Q 2991 2522 2730 2228 
Q 2469 1934 1863 1422 
Q 1356 997 1212 845 
Q 1069 694 975 541 
L 3222 541 
z
" transform="scale(0.015625)"/>
        </defs>
        <use xlink:href="#ArialMT-32"/>
        <use xlink:href="#ArialMT-25" x="55.615234"/>
       </g>
      </g>
     </g>
     <g id="text_5">
      <!-- Weight threshold (input percentage) -->
      <g transform="translate(143.758789 453.628841)scale(0.225 -0.225)">
       <defs>
        <path id="ArialMT-57" d="M 1294 0 
L 78 4581 
L 700 4581 
L 1397 1578 
Q 1509 1106 1591 641 
Q 1766 1375 1797 1488 
L 2669 4581 
L 3400 4581 
L 4056 2263 
Q 4303 1400 4413 641 
Q 4500 1075 4641 1638 
L 5359 4581 
L 5969 4581 
L 4713 0 
L 4128 0 
L 3163 3491 
Q 3041 3928 3019 4028 
Q 2947 3713 2884 3491 
L 1913 0 
L 1294 0 
z
" transform="scale(0.015625)"/>
        <path id="ArialMT-65" d="M 2694 1069 
L 3275 997 
Q 3138 488 2766 206 
Q 2394 -75 1816 -75 
Q 1088 -75 661 373 
Q 234 822 234 1631 
Q 234 2469 665 2931 
Q 1097 3394 1784 3394 
Q 2450 3394 2872 2941 
Q 3294 2488 3294 1666 
Q 3294 1616 3291 1516 
L 816 1516 
Q 847 969 1125 678 
Q 1403 388 1819 388 
Q 2128 388 2347 550 
Q 2566 713 2694 1069 
z
M 847 1978 
L 2700 1978 
Q 2663 2397 2488 2606 
Q 2219 2931 1791 2931 
Q 1403 2931 1139 2672 
Q 875 2413 847 1978 
z
" transform="scale(0.015625)"/>
        <path id="ArialMT-69" d="M 425 3934 
L 425 4581 
L 988 4581 
L 988 3934 
L 425 3934 
z
M 425 0 
L 425 3319 
L 988 3319 
L 988 0 
L 425 0 
z
" transform="scale(0.015625)"/>
        <path id="ArialMT-67" d="M 319 -275 
L 866 -356 
Q 900 -609 1056 -725 
Q 1266 -881 1628 -881 
Q 2019 -881 2231 -725 
Q 2444 -569 2519 -288 
Q 2563 -116 2559 434 
Q 2191 0 1641 0 
Q 956 0 581 494 
Q 206 988 206 1678 
Q 206 2153 378 2554 
Q 550 2956 876 3175 
Q 1203 3394 1644 3394 
Q 2231 3394 2613 2919 
L 2613 3319 
L 3131 3319 
L 3131 450 
Q 3131 -325 2973 -648 
Q 2816 -972 2473 -1159 
Q 2131 -1347 1631 -1347 
Q 1038 -1347 672 -1080 
Q 306 -813 319 -275 
z
M 784 1719 
Q 784 1066 1043 766 
Q 1303 466 1694 466 
Q 2081 466 2343 764 
Q 2606 1063 2606 1700 
Q 2606 2309 2336 2618 
Q 2066 2928 1684 2928 
Q 1309 2928 1046 2623 
Q 784 2319 784 1719 
z
" transform="scale(0.015625)"/>
        <path id="ArialMT-68" d="M 422 0 
L 422 4581 
L 984 4581 
L 984 2938 
Q 1378 3394 1978 3394 
Q 2347 3394 2619 3248 
Q 2891 3103 3008 2847 
Q 3125 2591 3125 2103 
L 3125 0 
L 2563 0 
L 2563 2103 
Q 2563 2525 2380 2717 
Q 2197 2909 1863 2909 
Q 1613 2909 1392 2779 
Q 1172 2650 1078 2428 
Q 984 2206 984 1816 
L 984 0 
L 422 0 
z
" transform="scale(0.015625)"/>
        <path id="ArialMT-74" d="M 1650 503 
L 1731 6 
Q 1494 -44 1306 -44 
Q 1000 -44 831 53 
Q 663 150 594 308 
Q 525 466 525 972 
L 525 2881 
L 113 2881 
L 113 3319 
L 525 3319 
L 525 4141 
L 1084 4478 
L 1084 3319 
L 1650 3319 
L 1650 2881 
L 1084 2881 
L 1084 941 
Q 1084 700 1114 631 
Q 1144 563 1211 522 
Q 1278 481 1403 481 
Q 1497 481 1650 503 
z
" transform="scale(0.015625)"/>
        <path id="ArialMT-20" transform="scale(0.015625)"/>
        <path id="ArialMT-72" d="M 416 0 
L 416 3319 
L 922 3319 
L 922 2816 
Q 1116 3169 1280 3281 
Q 1444 3394 1641 3394 
Q 1925 3394 2219 3213 
L 2025 2691 
Q 1819 2813 1613 2813 
Q 1428 2813 1281 2702 
Q 1134 2591 1072 2394 
Q 978 2094 978 1738 
L 978 0 
L 416 0 
z
" transform="scale(0.015625)"/>
        <path id="ArialMT-73" d="M 197 991 
L 753 1078 
Q 800 744 1014 566 
Q 1228 388 1613 388 
Q 2000 388 2187 545 
Q 2375 703 2375 916 
Q 2375 1106 2209 1216 
Q 2094 1291 1634 1406 
Q 1016 1563 777 1677 
Q 538 1791 414 1992 
Q 291 2194 291 2438 
Q 291 2659 392 2848 
Q 494 3038 669 3163 
Q 800 3259 1026 3326 
Q 1253 3394 1513 3394 
Q 1903 3394 2198 3281 
Q 2494 3169 2634 2976 
Q 2775 2784 2828 2463 
L 2278 2388 
Q 2241 2644 2061 2787 
Q 1881 2931 1553 2931 
Q 1166 2931 1000 2803 
Q 834 2675 834 2503 
Q 834 2394 903 2306 
Q 972 2216 1119 2156 
Q 1203 2125 1616 2013 
Q 2213 1853 2448 1751 
Q 2684 1650 2818 1456 
Q 2953 1263 2953 975 
Q 2953 694 2789 445 
Q 2625 197 2315 61 
Q 2006 -75 1616 -75 
Q 969 -75 630 194 
Q 291 463 197 991 
z
" transform="scale(0.015625)"/>
        <path id="ArialMT-6f" d="M 213 1659 
Q 213 2581 725 3025 
Q 1153 3394 1769 3394 
Q 2453 3394 2887 2945 
Q 3322 2497 3322 1706 
Q 3322 1066 3130 698 
Q 2938 331 2570 128 
Q 2203 -75 1769 -75 
Q 1072 -75 642 372 
Q 213 819 213 1659 
z
M 791 1659 
Q 791 1022 1069 705 
Q 1347 388 1769 388 
Q 2188 388 2466 706 
Q 2744 1025 2744 1678 
Q 2744 2294 2464 2611 
Q 2184 2928 1769 2928 
Q 1347 2928 1069 2612 
Q 791 2297 791 1659 
z
" transform="scale(0.015625)"/>
        <path id="ArialMT-6c" d="M 409 0 
L 409 4581 
L 972 4581 
L 972 0 
L 409 0 
z
" transform="scale(0.015625)"/>
        <path id="ArialMT-64" d="M 2575 0 
L 2575 419 
Q 2259 -75 1647 -75 
Q 1250 -75 917 144 
Q 584 363 401 755 
Q 219 1147 219 1656 
Q 219 2153 384 2558 
Q 550 2963 881 3178 
Q 1213 3394 1622 3394 
Q 1922 3394 2156 3267 
Q 2391 3141 2538 2938 
L 2538 4581 
L 3097 4581 
L 3097 0 
L 2575 0 
z
M 797 1656 
Q 797 1019 1065 703 
Q 1334 388 1700 388 
Q 2069 388 2326 689 
Q 2584 991 2584 1609 
Q 2584 2291 2321 2609 
Q 2059 2928 1675 2928 
Q 1300 2928 1048 2622 
Q 797 2316 797 1656 
z
" transform="scale(0.015625)"/>
        <path id="ArialMT-28" d="M 1497 -1347 
Q 1031 -759 709 28 
Q 388 816 388 1659 
Q 388 2403 628 3084 
Q 909 3875 1497 4659 
L 1900 4659 
Q 1522 4009 1400 3731 
Q 1209 3300 1100 2831 
Q 966 2247 966 1656 
Q 966 153 1900 -1347 
L 1497 -1347 
z
" transform="scale(0.015625)"/>
        <path id="ArialMT-6e" d="M 422 0 
L 422 3319 
L 928 3319 
L 928 2847 
Q 1294 3394 1984 3394 
Q 2284 3394 2536 3286 
Q 2788 3178 2913 3003 
Q 3038 2828 3088 2588 
Q 3119 2431 3119 2041 
L 3119 0 
L 2556 0 
L 2556 2019 
Q 2556 2363 2490 2533 
Q 2425 2703 2258 2804 
Q 2091 2906 1866 2906 
Q 1506 2906 1245 2678 
Q 984 2450 984 1813 
L 984 0 
L 422 0 
z
" transform="scale(0.015625)"/>
        <path id="ArialMT-70" d="M 422 -1272 
L 422 3319 
L 934 3319 
L 934 2888 
Q 1116 3141 1344 3267 
Q 1572 3394 1897 3394 
Q 2322 3394 2647 3175 
Q 2972 2956 3137 2557 
Q 3303 2159 3303 1684 
Q 3303 1175 3120 767 
Q 2938 359 2589 142 
Q 2241 -75 1856 -75 
Q 1575 -75 1351 44 
Q 1128 163 984 344 
L 984 -1272 
L 422 -1272 
z
M 931 1641 
Q 931 1000 1190 694 
Q 1450 388 1819 388 
Q 2194 388 2461 705 
Q 2728 1022 2728 1688 
Q 2728 2322 2467 2637 
Q 2206 2953 1844 2953 
Q 1484 2953 1207 2617 
Q 931 2281 931 1641 
z
" transform="scale(0.015625)"/>
        <path id="ArialMT-75" d="M 2597 0 
L 2597 488 
Q 2209 -75 1544 -75 
Q 1250 -75 995 37 
Q 741 150 617 320 
Q 494 491 444 738 
Q 409 903 409 1263 
L 409 3319 
L 972 3319 
L 972 1478 
Q 972 1038 1006 884 
Q 1059 663 1231 536 
Q 1403 409 1656 409 
Q 1909 409 2131 539 
Q 2353 669 2445 892 
Q 2538 1116 2538 1541 
L 2538 3319 
L 3100 3319 
L 3100 0 
L 2597 0 
z
" transform="scale(0.015625)"/>
        <path id="ArialMT-63" d="M 2588 1216 
L 3141 1144 
Q 3050 572 2676 248 
Q 2303 -75 1759 -75 
Q 1078 -75 664 370 
Q 250 816 250 1647 
Q 250 2184 428 2587 
Q 606 2991 970 3192 
Q 1334 3394 1763 3394 
Q 2303 3394 2647 3120 
Q 2991 2847 3088 2344 
L 2541 2259 
Q 2463 2594 2264 2762 
Q 2066 2931 1784 2931 
Q 1359 2931 1093 2626 
Q 828 2322 828 1663 
Q 828 994 1084 691 
Q 1341 388 1753 388 
Q 2084 388 2306 591 
Q 2528 794 2588 1216 
z
" transform="scale(0.015625)"/>
        <path id="ArialMT-61" d="M 2588 409 
Q 2275 144 1986 34 
Q 1697 -75 1366 -75 
Q 819 -75 525 192 
Q 231 459 231 875 
Q 231 1119 342 1320 
Q 453 1522 633 1644 
Q 813 1766 1038 1828 
Q 1203 1872 1538 1913 
Q 2219 1994 2541 2106 
Q 2544 2222 2544 2253 
Q 2544 2597 2384 2738 
Q 2169 2928 1744 2928 
Q 1347 2928 1158 2789 
Q 969 2650 878 2297 
L 328 2372 
Q 403 2725 575 2942 
Q 747 3159 1072 3276 
Q 1397 3394 1825 3394 
Q 2250 3394 2515 3294 
Q 2781 3194 2906 3042 
Q 3031 2891 3081 2659 
Q 3109 2516 3109 2141 
L 3109 1391 
Q 3109 606 3145 398 
Q 3181 191 3288 0 
L 2700 0 
Q 2613 175 2588 409 
z
M 2541 1666 
Q 2234 1541 1622 1453 
Q 1275 1403 1131 1340 
Q 988 1278 909 1158 
Q 831 1038 831 891 
Q 831 666 1001 516 
Q 1172 366 1500 366 
Q 1825 366 2078 508 
Q 2331 650 2450 897 
Q 2541 1088 2541 1459 
L 2541 1666 
z
" transform="scale(0.015625)"/>
        <path id="ArialMT-29" d="M 791 -1347 
L 388 -1347 
Q 1322 153 1322 1656 
Q 1322 2244 1188 2822 
Q 1081 3291 891 3722 
Q 769 4003 388 4659 
L 791 4659 
Q 1378 3875 1659 3084 
Q 1900 2403 1900 1659 
Q 1900 816 1576 28 
Q 1253 -759 791 -1347 
z
" transform="scale(0.015625)"/>
       </defs>
       <use xlink:href="#ArialMT-57"/>
       <use xlink:href="#ArialMT-65" x="92.634766"/>
       <use xlink:href="#ArialMT-69" x="148.25"/>
       <use xlink:href="#ArialMT-67" x="170.466797"/>
       <use xlink:href="#ArialMT-68" x="226.082031"/>
       <use xlink:href="#ArialMT-74" x="281.697266"/>
       <use xlink:href="#ArialMT-20" x="309.480469"/>
       <use xlink:href="#ArialMT-74" x="337.263672"/>
       <use xlink:href="#ArialMT-68" x="365.046875"/>
       <use xlink:href="#ArialMT-72" x="420.662109"/>
       <use xlink:href="#ArialMT-65" x="453.962891"/>
       <use xlink:href="#ArialMT-73" x="509.578125"/>
       <use xlink:href="#ArialMT-68" x="559.578125"/>
       <use xlink:href="#ArialMT-6f" x="615.193359"/>
       <use xlink:href="#ArialMT-6c" x="670.808594"/>
       <use xlink:href="#ArialMT-64" x="693.025391"/>
       <use xlink:href="#ArialMT-20" x="748.640625"/>
       <use xlink:href="#ArialMT-28" x="776.423828"/>
       <use xlink:href="#ArialMT-69" x="809.724609"/>
       <use xlink:href="#ArialMT-6e" x="831.941406"/>
       <use xlink:href="#ArialMT-70" x="887.556641"/>
       <use xlink:href="#ArialMT-75" x="943.171875"/>
       <use xlink:href="#ArialMT-74" x="998.787109"/>
       <use xlink:href="#ArialMT-20" x="1026.570312"/>
       <use xlink:href="#ArialMT-70" x="1054.353516"/>
       <use xlink:href="#ArialMT-65" x="1109.96875"/>
       <use xlink:href="#ArialMT-72" x="1165.583984"/>
       <use xlink:href="#ArialMT-63" x="1198.884766"/>
       <use xlink:href="#ArialMT-65" x="1248.884766"/>
       <use xlink:href="#ArialMT-6e" x="1304.5"/>
       <use xlink:href="#ArialMT-74" x="1360.115234"/>
       <use xlink:href="#ArialMT-61" x="1387.898438"/>
       <use xlink:href="#ArialMT-67" x="1443.513672"/>
       <use xlink:href="#ArialMT-65" x="1499.128906"/>
       <use xlink:href="#ArialMT-29" x="1554.744141"/>
      </g>
     </g>
    </g>
    <g id="matplotlib.axis_2"/>
    <g id="patch_4">
     <path d="M 99.2 405.887338 
L 545.6 405.887338 
" style="fill: none; stroke: #000000; stroke-width: 1.875; stroke-linejoin: miter; stroke-linecap: square"/>
    </g>
   </g>
   <g id="PathCollection_1"/>
   <g id="PolyCollection_1">
    <defs>
     <path id="m1973694b44" d="M 99.2 -286.125999 
L 99.2 -286.125999 
L 99.2 -286.125999 
L 99.2 -286.125999 
z
" style="stroke: #e377c2; stroke-opacity: 0.2; stroke-width: 1.5"/>
    </defs>
    <g clip-path="url(#p9455c0c477)">
     <use xlink:href="#m1973694b44" x="0" y="461.964388" style="fill: #e377c2; fill-opacity: 0.2; stroke: #e377c2; stroke-opacity: 0.2; stroke-width: 1.5"/>
    </g>
   </g>
   <g id="matplotlib.axis_3">
    <g id="xtick_5">
     <g id="line2d_6">
      <g>
       <use xlink:href="#m87cac6d8dc" x="99.2" y="339.359338" style="stroke: #000000; stroke-width: 1.875"/>
      </g>
     </g>
     <g id="text_6">
      <!-- 0% -->
      <g transform="translate(84.295215 362.622326)scale(0.20625 -0.20625)">
       <use xlink:href="#ArialMT-30"/>
       <use xlink:href="#ArialMT-25" x="55.615234"/>
      </g>
     </g>
    </g>
    <g id="xtick_6">
     <g id="line2d_7">
      <g>
       <use xlink:href="#m87cac6d8dc" x="216.673684" y="339.359338" style="stroke: #000000; stroke-width: 1.875"/>
      </g>
     </g>
     <g id="text_7">
      <!-- 25% -->
      <g transform="translate(196.034182 362.622326)scale(0.20625 -0.20625)">
       <use xlink:href="#ArialMT-32"/>
       <use xlink:href="#ArialMT-35" x="55.615234"/>
       <use xlink:href="#ArialMT-25" x="111.230469"/>
      </g>
     </g>
    </g>
    <g id="xtick_7">
     <g id="line2d_8">
      <g>
       <use xlink:href="#m87cac6d8dc" x="334.147368" y="339.359338" style="stroke: #000000; stroke-width: 1.875"/>
      </g>
     </g>
     <g id="text_8">
      <!-- 50% -->
      <g transform="translate(313.507866 362.622326)scale(0.20625 -0.20625)">
       <use xlink:href="#ArialMT-35"/>
       <use xlink:href="#ArialMT-30" x="55.615234"/>
       <use xlink:href="#ArialMT-25" x="111.230469"/>
      </g>
     </g>
    </g>
    <g id="xtick_8">
     <g id="line2d_9">
      <g>
       <use xlink:href="#m87cac6d8dc" x="451.621053" y="339.359338" style="stroke: #000000; stroke-width: 1.875"/>
      </g>
     </g>
     <g id="text_9">
      <!-- 75% -->
      <g transform="translate(430.981551 362.622326)scale(0.20625 -0.20625)">
       <defs>
        <path id="ArialMT-37" d="M 303 3981 
L 303 4522 
L 3269 4522 
L 3269 4084 
Q 2831 3619 2401 2847 
Q 1972 2075 1738 1259 
Q 1569 684 1522 0 
L 944 0 
Q 953 541 1156 1306 
Q 1359 2072 1739 2783 
Q 2119 3494 2547 3981 
L 303 3981 
z
" transform="scale(0.015625)"/>
       </defs>
       <use xlink:href="#ArialMT-37"/>
       <use xlink:href="#ArialMT-35" x="55.615234"/>
       <use xlink:href="#ArialMT-25" x="111.230469"/>
      </g>
     </g>
    </g>
    <g id="xtick_9">
     <g id="line2d_10">
      <g>
       <use xlink:href="#m87cac6d8dc" x="545.6" y="339.359338" style="stroke: #000000; stroke-width: 1.875"/>
      </g>
     </g>
     <g id="text_10">
      <!-- 95% -->
      <g transform="translate(524.960498 362.622326)scale(0.20625 -0.20625)">
       <defs>
        <path id="ArialMT-39" d="M 350 1059 
L 891 1109 
Q 959 728 1153 556 
Q 1347 384 1650 384 
Q 1909 384 2104 503 
Q 2300 622 2425 820 
Q 2550 1019 2634 1356 
Q 2719 1694 2719 2044 
Q 2719 2081 2716 2156 
Q 2547 1888 2255 1720 
Q 1963 1553 1622 1553 
Q 1053 1553 659 1965 
Q 266 2378 266 3053 
Q 266 3750 677 4175 
Q 1088 4600 1706 4600 
Q 2153 4600 2523 4359 
Q 2894 4119 3086 3673 
Q 3278 3228 3278 2384 
Q 3278 1506 3087 986 
Q 2897 466 2520 194 
Q 2144 -78 1638 -78 
Q 1100 -78 759 220 
Q 419 519 350 1059 
z
M 2653 3081 
Q 2653 3566 2395 3850 
Q 2138 4134 1775 4134 
Q 1400 4134 1122 3828 
Q 844 3522 844 3034 
Q 844 2597 1108 2323 
Q 1372 2050 1759 2050 
Q 2150 2050 2401 2323 
Q 2653 2597 2653 3081 
z
" transform="scale(0.015625)"/>
       </defs>
       <use xlink:href="#ArialMT-39"/>
       <use xlink:href="#ArialMT-35" x="55.615234"/>
       <use xlink:href="#ArialMT-25" x="111.230469"/>
      </g>
     </g>
    </g>
    <g id="text_11">
     <!-- Edges removed -->
     <g transform="translate(243.611328 386.826623)scale(0.225 -0.225)">
      <defs>
       <path id="ArialMT-45" d="M 506 0 
L 506 4581 
L 3819 4581 
L 3819 4041 
L 1113 4041 
L 1113 2638 
L 3647 2638 
L 3647 2100 
L 1113 2100 
L 1113 541 
L 3925 541 
L 3925 0 
L 506 0 
z
" transform="scale(0.015625)"/>
       <path id="ArialMT-6d" d="M 422 0 
L 422 3319 
L 925 3319 
L 925 2853 
Q 1081 3097 1340 3245 
Q 1600 3394 1931 3394 
Q 2300 3394 2536 3241 
Q 2772 3088 2869 2813 
Q 3263 3394 3894 3394 
Q 4388 3394 4653 3120 
Q 4919 2847 4919 2278 
L 4919 0 
L 4359 0 
L 4359 2091 
Q 4359 2428 4304 2576 
Q 4250 2725 4106 2815 
Q 3963 2906 3769 2906 
Q 3419 2906 3187 2673 
Q 2956 2441 2956 1928 
L 2956 0 
L 2394 0 
L 2394 2156 
Q 2394 2531 2256 2718 
Q 2119 2906 1806 2906 
Q 1569 2906 1367 2781 
Q 1166 2656 1075 2415 
Q 984 2175 984 1722 
L 984 0 
L 422 0 
z
" transform="scale(0.015625)"/>
       <path id="ArialMT-76" d="M 1344 0 
L 81 3319 
L 675 3319 
L 1388 1331 
Q 1503 1009 1600 663 
Q 1675 925 1809 1294 
L 2547 3319 
L 3125 3319 
L 1869 0 
L 1344 0 
z
" transform="scale(0.015625)"/>
      </defs>
      <use xlink:href="#ArialMT-45"/>
      <use xlink:href="#ArialMT-64" x="66.699219"/>
      <use xlink:href="#ArialMT-67" x="122.314453"/>
      <use xlink:href="#ArialMT-65" x="177.929688"/>
      <use xlink:href="#ArialMT-73" x="233.544922"/>
      <use xlink:href="#ArialMT-20" x="283.544922"/>
      <use xlink:href="#ArialMT-72" x="311.328125"/>
      <use xlink:href="#ArialMT-65" x="344.628906"/>
      <use xlink:href="#ArialMT-6d" x="400.244141"/>
      <use xlink:href="#ArialMT-6f" x="483.544922"/>
      <use xlink:href="#ArialMT-76" x="539.160156"/>
      <use xlink:href="#ArialMT-65" x="589.160156"/>
      <use xlink:href="#ArialMT-64" x="644.775391"/>
     </g>
    </g>
   </g>
   <g id="matplotlib.axis_4">
    <g id="ytick_1">
     <g id="line2d_11">
      <defs>
       <path id="mb91fd7f073" d="M 0 0 
L -5 0 
" style="stroke: #000000; stroke-width: 1.875"/>
      </defs>
      <g>
       <use xlink:href="#mb91fd7f073" x="99.2" y="14.234766" style="stroke: #000000; stroke-width: 1.875"/>
      </g>
     </g>
     <g id="text_12">
      <!-- $\mathdefault{10^{0}}$ -->
      <g transform="translate(58.31875 24.869531)scale(0.20625 -0.20625)">
       <use xlink:href="#ArialMT-31" transform="translate(0 0.99375)"/>
       <use xlink:href="#ArialMT-30" transform="translate(55.615234 0.99375)"/>
       <use xlink:href="#ArialMT-30" transform="translate(112.972813 70.6875)scale(0.7)"/>
      </g>
     </g>
    </g>
    <g id="ytick_2">
     <g id="line2d_12">
      <g>
       <use xlink:href="#mb91fd7f073" x="99.2" y="95.515909" style="stroke: #000000; stroke-width: 1.875"/>
      </g>
     </g>
     <g id="text_13">
      <!-- $\mathdefault{10^{-5}}$ -->
      <g transform="translate(49.8625 106.047549)scale(0.20625 -0.20625)">
       <defs>
        <path id="ArialMT-2212" d="M 3381 1997 
L 356 1997 
L 356 2522 
L 3381 2522 
L 3381 1997 
z
" transform="scale(0.015625)"/>
       </defs>
       <use xlink:href="#ArialMT-31" transform="translate(0 0.879688)"/>
       <use xlink:href="#ArialMT-30" transform="translate(55.615234 0.879688)"/>
       <use xlink:href="#ArialMT-2212" transform="translate(112.972813 70.573438)scale(0.7)"/>
       <use xlink:href="#ArialMT-35" transform="translate(153.851719 70.573438)scale(0.7)"/>
      </g>
     </g>
    </g>
    <g id="ytick_3">
     <g id="line2d_13">
      <g>
       <use xlink:href="#mb91fd7f073" x="99.2" y="176.797052" style="stroke: #000000; stroke-width: 1.875"/>
      </g>
     </g>
     <g id="text_14">
      <!-- $\mathdefault{10^{-10}}$ -->
      <g transform="translate(41.81875 187.431817)scale(0.20625 -0.20625)">
       <use xlink:href="#ArialMT-31" transform="translate(0 0.99375)"/>
       <use xlink:href="#ArialMT-30" transform="translate(55.615234 0.99375)"/>
       <use xlink:href="#ArialMT-2212" transform="translate(112.972813 70.6875)scale(0.7)"/>
       <use xlink:href="#ArialMT-31" transform="translate(153.851719 70.6875)scale(0.7)"/>
       <use xlink:href="#ArialMT-30" transform="translate(192.782383 70.6875)scale(0.7)"/>
      </g>
     </g>
    </g>
    <g id="ytick_4">
     <g id="line2d_14">
      <g>
       <use xlink:href="#mb91fd7f073" x="99.2" y="258.078195" style="stroke: #000000; stroke-width: 1.875"/>
      </g>
     </g>
     <g id="text_15">
      <!-- $\mathdefault{10^{-15}}$ -->
      <g transform="translate(41.81875 268.71296)scale(0.20625 -0.20625)">
       <use xlink:href="#ArialMT-31" transform="translate(0 0.99375)"/>
       <use xlink:href="#ArialMT-30" transform="translate(55.615234 0.99375)"/>
       <use xlink:href="#ArialMT-2212" transform="translate(112.972813 70.6875)scale(0.7)"/>
       <use xlink:href="#ArialMT-31" transform="translate(153.851719 70.6875)scale(0.7)"/>
       <use xlink:href="#ArialMT-35" transform="translate(192.782383 70.6875)scale(0.7)"/>
      </g>
     </g>
    </g>
    <g id="ytick_5">
     <g id="line2d_15">
      <g>
       <use xlink:href="#mb91fd7f073" x="99.2" y="339.359338" style="stroke: #000000; stroke-width: 1.875"/>
      </g>
     </g>
     <g id="text_16">
      <!-- $\mathdefault{10^{-20}}$ -->
      <g transform="translate(41.81875 349.994103)scale(0.20625 -0.20625)">
       <use xlink:href="#ArialMT-31" transform="translate(0 0.99375)"/>
       <use xlink:href="#ArialMT-30" transform="translate(55.615234 0.99375)"/>
       <use xlink:href="#ArialMT-2212" transform="translate(112.972813 70.6875)scale(0.7)"/>
       <use xlink:href="#ArialMT-32" transform="translate(153.851719 70.6875)scale(0.7)"/>
       <use xlink:href="#ArialMT-30" transform="translate(192.782383 70.6875)scale(0.7)"/>
      </g>
     </g>
    </g>
    <g id="text_17">
     <!-- p-value -->
     <g transform="translate(33.346875 209.934064)rotate(-90)scale(0.225 -0.225)">
      <defs>
       <path id="ArialMT-2d" d="M 203 1375 
L 203 1941 
L 1931 1941 
L 1931 1375 
L 203 1375 
z
" transform="scale(0.015625)"/>
      </defs>
      <use xlink:href="#ArialMT-70"/>
      <use xlink:href="#ArialMT-2d" x="55.615234"/>
      <use xlink:href="#ArialMT-76" x="88.916016"/>
      <use xlink:href="#ArialMT-61" x="138.916016"/>
      <use xlink:href="#ArialMT-6c" x="194.53125"/>
      <use xlink:href="#ArialMT-75" x="216.748047"/>
      <use xlink:href="#ArialMT-65" x="272.363281"/>
     </g>
    </g>
   </g>
   <g id="line2d_16">
    <path d="M 99.2 175.83839 
L 102.504565 172.899884 
L 114.14238 117.188269 
L 149.846046 52.854379 
L 194.242155 34.854566 
L 241.080768 98.268477 
L 270.247144 48.656137 
L 295.821601 100.316859 
L 318.953555 66.564943 
L 341.510801 78.055124 
L 358.033624 30.56893 
L 384.182789 56.643848 
L 402.070541 35.196113 
L 416.366376 25.732851 
L 428.363382 21.2965 
L 439.713844 18.044409 
L 454.36887 18.415404 
L 467.515291 21.710229 
L 475.345672 22.598138 
L 486.40878 22.513631 
L 495.963283 31.904097 
L 501.207483 19.524074 
L 506.308007 23.993731 
L 512.055076 22.610971 
L 519.813619 19.785663 
L 524.123921 16.600786 
L 528.290546 16.247385 
L 531.882464 14.772626 
L 535.618059 18.767219 
" clip-path="url(#p9455c0c477)" style="fill: none; stroke: #e377c2; stroke-width: 2.25; stroke-linecap: square"/>
   </g>
   <g id="patch_5">
    <path d="M 99.2 339.359338 
L 99.2 6.719338 
" style="fill: none; stroke: #000000; stroke-width: 1.875; stroke-linejoin: miter; stroke-linecap: square"/>
   </g>
   <g id="patch_6">
    <path d="M 99.2 339.359338 
L 545.6 339.359338 
" style="fill: none; stroke: #000000; stroke-width: 1.875; stroke-linejoin: miter; stroke-linecap: square"/>
   </g>
   <g id="patch_7">
    <path d="M 38.132702 59.327978 
Q 67.699129 67.056718 97.265556 74.785457 
" style="fill: none; stroke: #000000; stroke-width: 1.5; stroke-linecap: round"/>
   </g>
   <g id="text_18">
    <!-- $\alpha^*$ -->
    <g transform="translate(3.6 60.291126)scale(0.225 -0.225)">
     <defs>
      <path id="DejaVuSans-Oblique-3b1" d="M 2619 1628 
L 2622 2350 
Q 2625 3088 2069 3091 
Q 1653 3094 1394 2747 
Q 1069 2319 959 1747 
Q 825 1059 994 731 
Q 1169 397 1547 397 
Q 1966 397 2319 1063 
L 2619 1628 
z
M 2166 3578 
Q 3141 3594 3128 2584 
Q 3128 2584 3616 3500 
L 4128 3500 
L 3119 1603 
L 3109 919 
Q 3109 766 3194 638 
Q 3291 488 3391 488 
L 3669 488 
L 3575 0 
L 3228 0 
Q 2934 0 2722 263 
Q 2622 394 2619 669 
Q 2416 334 2066 50 
Q 1900 -81 1453 -78 
Q 722 -72 456 397 
Q 184 884 353 1747 
Q 534 2675 1009 3097 
Q 1544 3569 2166 3578 
z
" transform="scale(0.015625)"/>
      <path id="DejaVuSans-2a" d="M 3009 3897 
L 1888 3291 
L 3009 2681 
L 2828 2375 
L 1778 3009 
L 1778 1831 
L 1422 1831 
L 1422 3009 
L 372 2375 
L 191 2681 
L 1313 3291 
L 191 3897 
L 372 4206 
L 1422 3572 
L 1422 4750 
L 1778 4750 
L 1778 3572 
L 2828 4206 
L 3009 3897 
z
" transform="scale(0.015625)"/>
     </defs>
     <use xlink:href="#DejaVuSans-Oblique-3b1" transform="translate(0 0.765625)"/>
     <use xlink:href="#DejaVuSans-2a" transform="translate(84.227435 39.046875)scale(0.7)"/>
    </g>
   </g>
   <g id="legend_1">
    <g id="patch_8">
     <path d="M 112.31975 329.988088 
L 234.790273 329.988088 
Q 238.538773 329.988088 238.538773 326.239588 
L 238.538773 275.182644 
Q 238.538773 271.434144 234.790273 271.434144 
L 112.31975 271.434144 
Q 108.57125 271.434144 108.57125 275.182644 
L 108.57125 326.239588 
Q 108.57125 329.988088 112.31975 329.988088 
z
" style="fill: #ffffff; opacity: 0.8; stroke: #cccccc; stroke-width: 1.5; stroke-linejoin: miter"/>
    </g>
    <g id="text_19">
     <!-- Test -->
     <g transform="translate(152.92884 295.036222)scale(0.225 -0.225)">
      <defs>
       <path id="ArialMT-54" d="M 1659 0 
L 1659 4041 
L 150 4041 
L 150 4581 
L 3781 4581 
L 3781 4041 
L 2266 4041 
L 2266 0 
L 1659 0 
z
" transform="scale(0.015625)"/>
      </defs>
      <use xlink:href="#ArialMT-54"/>
      <use xlink:href="#ArialMT-65" x="49.958984"/>
      <use xlink:href="#ArialMT-73" x="105.574219"/>
      <use xlink:href="#ArialMT-74" x="155.574219"/>
     </g>
    </g>
    <g id="PathCollection_2">
     <defs>
      <path id="m4506737539" d="M 0 4.5 
C 1.193414 4.5 2.338109 4.025852 3.181981 3.181981 
C 4.025852 2.338109 4.5 1.193414 4.5 0 
C 4.5 -1.193414 4.025852 -2.338109 3.181981 -3.181981 
C 2.338109 -4.025852 1.193414 -4.5 0 -4.5 
C -1.193414 -4.5 -2.338109 -4.025852 -3.181981 -3.181981 
C -4.025852 -2.338109 -4.5 -1.193414 -4.5 0 
C -4.5 1.193414 -4.025852 2.338109 -3.181981 3.181981 
C -2.338109 4.025852 -1.193414 4.5 0 4.5 
z
" style="stroke: #e377c2; stroke-width: 1.5"/>
     </defs>
     <g>
      <use xlink:href="#m4506737539" x="134.81075" y="313.626471" style="fill: #e377c2; stroke: #e377c2; stroke-width: 1.5"/>
     </g>
    </g>
    <g id="text_20">
     <!-- Density -->
     <g transform="translate(168.54725 318.546377)scale(0.187425 -0.187425)">
      <defs>
       <path id="ArialMT-44" d="M 494 0 
L 494 4581 
L 2072 4581 
Q 2606 4581 2888 4516 
Q 3281 4425 3559 4188 
Q 3922 3881 4101 3404 
Q 4281 2928 4281 2316 
Q 4281 1794 4159 1391 
Q 4038 988 3847 723 
Q 3656 459 3429 307 
Q 3203 156 2883 78 
Q 2563 0 2147 0 
L 494 0 
z
M 1100 541 
L 2078 541 
Q 2531 541 2789 625 
Q 3047 709 3200 863 
Q 3416 1078 3536 1442 
Q 3656 1806 3656 2325 
Q 3656 3044 3420 3430 
Q 3184 3816 2847 3947 
Q 2603 4041 2063 4041 
L 1100 4041 
L 1100 541 
z
" transform="scale(0.015625)"/>
       <path id="ArialMT-79" d="M 397 -1278 
L 334 -750 
Q 519 -800 656 -800 
Q 844 -800 956 -737 
Q 1069 -675 1141 -563 
Q 1194 -478 1313 -144 
Q 1328 -97 1363 -6 
L 103 3319 
L 709 3319 
L 1400 1397 
Q 1534 1031 1641 628 
Q 1738 1016 1872 1384 
L 2581 3319 
L 3144 3319 
L 1881 -56 
Q 1678 -603 1566 -809 
Q 1416 -1088 1222 -1217 
Q 1028 -1347 759 -1347 
Q 597 -1347 397 -1278 
z
" transform="scale(0.015625)"/>
      </defs>
      <use xlink:href="#ArialMT-44"/>
      <use xlink:href="#ArialMT-65" x="72.216797"/>
      <use xlink:href="#ArialMT-6e" x="127.832031"/>
      <use xlink:href="#ArialMT-73" x="183.447266"/>
      <use xlink:href="#ArialMT-69" x="233.447266"/>
      <use xlink:href="#ArialMT-74" x="255.664062"/>
      <use xlink:href="#ArialMT-79" x="283.447266"/>
     </g>
    </g>
   </g>
   <g id="PathCollection_3">
    <defs>
     <path id="C0_0_45fe07ab77" d="M 0 4.5 
C 1.193414 4.5 2.338109 4.025852 3.181981 3.181981 
C 4.025852 2.338109 4.5 1.193414 4.5 -0 
C 4.5 -1.193414 4.025852 -2.338109 3.181981 -3.181981 
C 2.338109 -4.025852 1.193414 -4.5 0 -4.5 
C -1.193414 -4.5 -2.338109 -4.025852 -3.181981 -3.181981 
C -4.025852 -2.338109 -4.5 -1.193414 -4.5 0 
C -4.5 1.193414 -4.025852 2.338109 -3.181981 3.181981 
C -2.338109 4.025852 -1.193414 4.5 0 4.5 
z
"/>
    </defs>
    <use xlink:href="#C0_0_45fe07ab77" x="99.2" y="175.83839" style="fill: #e377c2; stroke: #ffffff; stroke-width: 0.72"/>
    <use xlink:href="#C0_0_45fe07ab77" x="99.2" y="175.83839" style="fill: #e377c2; stroke: #ffffff; stroke-width: 0.72"/>
    <use xlink:href="#C0_0_45fe07ab77" x="99.2" y="175.83839" style="fill: #e377c2; stroke: #ffffff; stroke-width: 0.72"/>
    <use xlink:href="#C0_0_45fe07ab77" x="102.504565" y="172.899884" style="fill: #e377c2; stroke: #ffffff; stroke-width: 0.72"/>
    <use xlink:href="#C0_0_45fe07ab77" x="114.14238" y="117.188269" style="fill: #e377c2; stroke: #ffffff; stroke-width: 0.72"/>
    <use xlink:href="#C0_0_45fe07ab77" x="149.846046" y="52.854379" style="fill: #e377c2; stroke: #ffffff; stroke-width: 0.72"/>
    <use xlink:href="#C0_0_45fe07ab77" x="194.242155" y="34.854566" style="fill: #e377c2; stroke: #ffffff; stroke-width: 0.72"/>
    <use xlink:href="#C0_0_45fe07ab77" x="241.080768" y="98.268477" style="fill: #e377c2; stroke: #ffffff; stroke-width: 0.72"/>
    <use xlink:href="#C0_0_45fe07ab77" x="270.247144" y="48.656137" style="fill: #e377c2; stroke: #ffffff; stroke-width: 0.72"/>
    <use xlink:href="#C0_0_45fe07ab77" x="295.821601" y="100.316859" style="fill: #e377c2; stroke: #ffffff; stroke-width: 0.72"/>
    <use xlink:href="#C0_0_45fe07ab77" x="318.953555" y="66.564943" style="fill: #e377c2; stroke: #ffffff; stroke-width: 0.72"/>
    <use xlink:href="#C0_0_45fe07ab77" x="341.510801" y="78.055124" style="fill: #e377c2; stroke: #ffffff; stroke-width: 0.72"/>
    <use xlink:href="#C0_0_45fe07ab77" x="358.033624" y="30.56893" style="fill: #e377c2; stroke: #ffffff; stroke-width: 0.72"/>
    <use xlink:href="#C0_0_45fe07ab77" x="384.182789" y="56.643848" style="fill: #e377c2; stroke: #ffffff; stroke-width: 0.72"/>
    <use xlink:href="#C0_0_45fe07ab77" x="402.070541" y="35.196113" style="fill: #e377c2; stroke: #ffffff; stroke-width: 0.72"/>
    <use xlink:href="#C0_0_45fe07ab77" x="416.366376" y="25.732851" style="fill: #e377c2; stroke: #ffffff; stroke-width: 0.72"/>
    <use xlink:href="#C0_0_45fe07ab77" x="428.363382" y="21.2965" style="fill: #e377c2; stroke: #ffffff; stroke-width: 0.72"/>
    <use xlink:href="#C0_0_45fe07ab77" x="439.713844" y="18.044409" style="fill: #e377c2; stroke: #ffffff; stroke-width: 0.72"/>
    <use xlink:href="#C0_0_45fe07ab77" x="454.36887" y="18.415404" style="fill: #e377c2; stroke: #ffffff; stroke-width: 0.72"/>
    <use xlink:href="#C0_0_45fe07ab77" x="467.515291" y="21.710229" style="fill: #e377c2; stroke: #ffffff; stroke-width: 0.72"/>
    <use xlink:href="#C0_0_45fe07ab77" x="475.345672" y="22.598138" style="fill: #e377c2; stroke: #ffffff; stroke-width: 0.72"/>
    <use xlink:href="#C0_0_45fe07ab77" x="486.40878" y="22.513631" style="fill: #e377c2; stroke: #ffffff; stroke-width: 0.72"/>
    <use xlink:href="#C0_0_45fe07ab77" x="495.963283" y="31.904097" style="fill: #e377c2; stroke: #ffffff; stroke-width: 0.72"/>
    <use xlink:href="#C0_0_45fe07ab77" x="501.207483" y="19.524074" style="fill: #e377c2; stroke: #ffffff; stroke-width: 0.72"/>
    <use xlink:href="#C0_0_45fe07ab77" x="506.308007" y="23.993731" style="fill: #e377c2; stroke: #ffffff; stroke-width: 0.72"/>
    <use xlink:href="#C0_0_45fe07ab77" x="512.055076" y="22.610971" style="fill: #e377c2; stroke: #ffffff; stroke-width: 0.72"/>
    <use xlink:href="#C0_0_45fe07ab77" x="519.813619" y="19.785663" style="fill: #e377c2; stroke: #ffffff; stroke-width: 0.72"/>
    <use xlink:href="#C0_0_45fe07ab77" x="524.123921" y="16.600786" style="fill: #e377c2; stroke: #ffffff; stroke-width: 0.72"/>
    <use xlink:href="#C0_0_45fe07ab77" x="528.290546" y="16.247385" style="fill: #e377c2; stroke: #ffffff; stroke-width: 0.72"/>
    <use xlink:href="#C0_0_45fe07ab77" x="531.882464" y="14.772626" style="fill: #e377c2; stroke: #ffffff; stroke-width: 0.72"/>
    <use xlink:href="#C0_0_45fe07ab77" x="535.618059" y="18.767219" style="fill: #e377c2; stroke: #ffffff; stroke-width: 0.72"/>
   </g>
  </g>
 </g>
 <defs>
  <clipPath id="p9455c0c477">
   <rect x="99.2" y="6.719338" width="446.4" height="332.64"/>
  </clipPath>
 </defs>
</svg>
