<?xml version="1.0" encoding="UTF-8" standalone="no"?>
<svg
   viewBox="0 0 401.19 201.35"
   version="1.1"
   id="svg2662"
   sodipodi:docname="graspologic_svg.svg"
   inkscape:version="1.1.2 (b8e25be8, 2022-02-05)"
   xmlns:inkscape="http://www.inkscape.org/namespaces/inkscape"
   xmlns:sodipodi="http://sodipodi.sourceforge.net/DTD/sodipodi-0.dtd"
   xmlns="http://www.w3.org/2000/svg"
   xmlns:svg="http://www.w3.org/2000/svg">
  <sodipodi:namedview
     id="namedview2664"
     pagecolor="#ffffff"
     bordercolor="#666666"
     borderopacity="1.0"
     inkscape:pageshadow="2"
     inkscape:pageopacity="0"
     inkscape:pagecheckerboard="true"
     showgrid="false"
     inkscape:zoom="2.8490242"
     inkscape:cx="95.646785"
     inkscape:cy="100.56075"
     inkscape:window-width="1312"
     inkscape:window-height="969"
     inkscape:window-x="433"
     inkscape:window-y="67"
     inkscape:window-maximized="0"
     inkscape:current-layer="svg2662" />
  <defs
     id="defs2374">
    <style
       id="style2372">.cls-1{fill:none;stroke:#939598;stroke-miterlimit:10;}.cls-2{fill:#b996c6;}.cls-3{fill:#231f20;}.cls-4{fill:#82459b;}</style>
  </defs>
  <g
     id="Layer_2"
     data-name="Layer 2">
    <g
       id="Layer_1-2"
       data-name="Layer 1">
      <polygon
         class="cls-1"
         points="388.33 130.21 368.36 117.37 340.28 125.77 388.33 130.21"
         id="polygon2376" />
      <polygon
         class="cls-1"
         points="343.93 106.19 340.28 125.77 368.36 117.37 343.93 106.19"
         id="polygon2378" />
      <polygon
         class="cls-1"
         points="322.23 107.9 300.68 125.77 340.28 125.77 322.23 107.9"
         id="polygon2380" />
      <polygon
         class="cls-1"
         points="343.93 106.19 322.23 107.9 340.28 125.77 343.93 106.19"
         id="polygon2382" />
      <polygon
         class="cls-1"
         points="291.08 107.9 272.76 113.91 300.68 125.77 291.08 107.9"
         id="polygon2384" />
      <polygon
         class="cls-1"
         points="322.23 107.9 291.08 107.9 300.68 125.77 322.23 107.9"
         id="polygon2386" />
      <polygon
         class="cls-1"
         points="242.41 116.78 272.76 113.91 273.27 127.31 242.41 116.78"
         id="polygon2388" />
      <polyline
         class="cls-1"
         points="161.17 122.7 242.41 116.78 216.28 128 249.51 139.7 216.28 128"
         id="polyline2390" />
      <polygon
         class="cls-1"
         points="52.71 76.56 28.08 74.89 62.64 94.64 52.71 76.56"
         id="polygon2392" />
      <polygon
         class="cls-1"
         points="123.15 115.99 135.82 127.28 161.17 122.7 123.15 115.99"
         id="polygon2394" />
      <polygon
         class="cls-1"
         points="387.64 175.36 381.01 148.15 364.3 169.15 387.64 175.36"
         id="polygon2396" />
      <polygon
         class="cls-1"
         points="350.61 189.12 334.35 168.01 348.79 151.28 350.61 189.12"
         id="polygon2398" />
      <polygon
         class="cls-1"
         points="364.3 169.15 387.64 175.36 350.61 189.12 364.3 169.15"
         id="polygon2400" />
      <polygon
         class="cls-1"
         points="381.01 148.15 348.79 151.28 340.28 125.77 381.01 148.15"
         id="polygon2402" />
      <polygon
         class="cls-1"
         points="313.49 146.91 334.35 168.01 309.96 168.01 313.49 146.91"
         id="polygon2404" />
      <polygon
         class="cls-1"
         points="348.79 151.28 365.92 169.59 334.35 168.01 348.79 151.28"
         id="polygon2406" />
      <polygon
         class="cls-1"
         points="284.9 143.28 282.53 163.34 309.96 168.01 284.9 143.28"
         id="polygon2408" />
      <polygon
         class="cls-1"
         points="322.75 193.77 334.35 168.01 350.61 189.12 322.75 193.77"
         id="polygon2410" />
      <polygon
         class="cls-1"
         points="292.46 189.47 282.53 163.34 262.71 179.13 292.46 189.47"
         id="polygon2412" />
      <polygon
         class="cls-1"
         points="313.49 146.91 284.9 143.28 300.68 125.77 313.49 146.91"
         id="polygon2414" />
      <polygon
         class="cls-1"
         points="309.96 168.01 322.75 193.77 292.46 189.47 309.96 168.01"
         id="polygon2416" />
      <polygon
         class="cls-1"
         points="348.79 151.28 313.49 146.91 340.28 125.77 348.79 151.28"
         id="polygon2418" />
      <polygon
         class="cls-1"
         points="253.6 157.82 282.53 163.34 262.71 179.13 253.6 157.82"
         id="polygon2420" />
      <polygon
         class="cls-1"
         points="249.51 139.7 284.9 143.28 273.27 127.31 249.51 139.7"
         id="polygon2422" />
      <line
         class="cls-1"
         x1="253.6"
         y1="157.82"
         x2="249.51"
         y2="139.7"
         id="line2424" />
      <polygon
         class="cls-1"
         points="225.85 146.91 207.99 159.35 232.97 170.48 225.85 146.91"
         id="polygon2426" />
      <polyline
         class="cls-1"
         points="282.53 163.34 284.9 143.28 253.6 157.82"
         id="polyline2428" />
      <polygon
         class="cls-1"
         points="216.28 128 225.85 146.91 249.51 139.7 216.28 128"
         id="polygon2430" />
      <polygon
         class="cls-1"
         points="232.97 170.48 253.6 157.82 262.71 179.13 232.97 170.48"
         id="polygon2432" />
      <polygon
         class="cls-1"
         points="198.75 139.7 207.99 159.35 181.4 149.23 198.75 139.7"
         id="polygon2434" />
      <polygon
         class="cls-1"
         points="216.28 128 198.75 139.7 225.85 146.91 216.28 128"
         id="polygon2436" />
      <polygon
         class="cls-1"
         points="193.13 119.22 171.3 136.66 198.75 139.7 193.13 119.22"
         id="polygon2438" />
      <polygon
         class="cls-1"
         points="151.85 148.15 135.82 127.28 124.34 150.05 151.85 148.15"
         id="polygon2440" />
      <polygon
         class="cls-1"
         points="181.4 149.23 171.3 136.66 151.85 148.15 181.4 149.23"
         id="polygon2442" />
      <polygon
         class="cls-1"
         points="104.14 150.58 99.16 130.7 124.34 150.05 104.14 150.58"
         id="polygon2444" />
      <polygon
         class="cls-1"
         points="99.16 130.7 81.63 147.61 104.14 150.58 99.16 130.7"
         id="polygon2446" />
      <polygon
         class="cls-1"
         points="71.63 121.09 61.43 137.7 81.63 147.61 71.63 121.09"
         id="polygon2448" />
      <polygon
         class="cls-1"
         points="5.91 61.25 13.61 91.78 28.35 75.04 5.91 61.25"
         id="polygon2450" />
      <polygon
         class="cls-1"
         points="74.92 52.13 80.16 39.25 87.2 49.95 74.92 52.13"
         id="polygon2452" />
      <polygon
         class="cls-1"
         points="104.14 35.38 86.47 30.84 97.47 44.4 104.14 35.38"
         id="polygon2454" />
      <polygon
         class="cls-1"
         points="87.06 20.16 94.24 11.15 95.05 24.55 87.06 20.16"
         id="polygon2456" />
      <polyline
         class="cls-1"
         points="161.17 122.7 171.3 136.66 135.82 127.28 99.16 130.7 123.15 115.99 87.2 110.49 99.16 130.7"
         id="polyline2458" />
      <polygon
         class="cls-1"
         points="87.2 110.49 71.63 121.09 99.16 130.7 87.2 110.49"
         id="polygon2460" />
      <polygon
         class="cls-1"
         points="62.64 94.64 52.71 112.71 71.63 121.09 62.64 94.64"
         id="polygon2462" />
      <polygon
         class="cls-1"
         points="87.2 110.49 62.64 94.64 71.63 121.09 87.2 110.49"
         id="polygon2464" />
      <polygon
         class="cls-1"
         points="37.63 115.8 61.43 137.7 52.71 112.71 37.63 115.8"
         id="polygon2466" />
      <polygon
         class="cls-1"
         points="28.35 75.04 13.61 91.78 37.63 115.8 28.35 75.04"
         id="polygon2468" />
      <polygon
         class="cls-1"
         points="52.71 112.71 28.35 75.04 62.64 94.64 52.71 112.71"
         id="polygon2470" />
      <polygon
         class="cls-1"
         points="52.71 76.56 33.86 43.29 28.35 75.04 52.71 76.56"
         id="polygon2472" />
      <polyline
         class="cls-1"
         points="45.74 25.33 62.64 24.82 54.19 5.74 42.28 23.59 54.19 5.74 32.63 12.29"
         id="polyline2474" />
      <polygon
         class="cls-1"
         points="54.19 5.74 74.82 7.69 62.64 24.82 54.19 5.74"
         id="polygon2476" />
      <polygon
         class="cls-1"
         points="12.49 25.33 5.91 61.25 14.04 48.15 12.49 25.33"
         id="polygon2478" />
      <polygon
         class="cls-1"
         points="12.49 25.33 32.63 12.29 42.28 23.59 12.49 25.33"
         id="polygon2480" />
      <polygon
         class="cls-1"
         points="74.92 7.55 94.24 11.15 62.64 24.82 74.92 7.55"
         id="polygon2482" />
      <polygon
         class="cls-1"
         points="62.64 24.82 87.06 20.16 74.82 7.69 62.64 24.82"
         id="polygon2484" />
      <polyline
         class="cls-1"
         points="33.67 44.4 42.28 23.59 14.04 48.15 28.35 75.04"
         id="polyline2486" />
      <circle
         class="cls-2"
         cx="32.63"
         cy="12.29"
         r="7.55"
         transform="translate(6.14 34.97) rotate(-61.21)"
         id="circle2488" />
      <circle
         class="cls-2"
         cx="54.19"
         cy="5.74"
         r="3.88"
         transform="translate(23.06 50.47) rotate(-61.21)"
         id="circle2490" />
      <circle
         class="cls-2"
         cx="94.24"
         cy="11.15"
         r="3.88"
         transform="translate(39.08 88.37) rotate(-61.21)"
         id="circle2492" />
      <circle
         class="cls-2"
         cx="74.92"
         cy="7.55"
         r="7.55"
         transform="translate(32.22 69.57) rotate(-61.21)"
         id="circle2494" />
      <path
         class="cls-3"
         d="M146.54,57.57a7.24,7.24,0,0,0-3.66-.87,5.34,5.34,0,0,0-4.46,2.15,9.48,9.48,0,0,0-1.65,5.91V78.35h-8.25V50.08h8.25V55.4h.1q2.06-5.8,7.44-5.8a5.92,5.92,0,0,1,2.23.33Z"
         id="path2496" />
      <path
         class="cls-3"
         d="M151.81,51.8a18,18,0,0,1,5.13-1.74,27.85,27.85,0,0,1,5.48-.67q11.85,0,11.86,11.89V78.35h-7.85V74.24h-.1a9.3,9.3,0,0,1-8.46,4.8,9,9,0,0,1-6.43-2.28A8.18,8.18,0,0,1,149,70.53q0-8.13,9.69-9.45l7.77-1q0-4.94-5.14-4.94a16.59,16.59,0,0,0-9.53,3.07Zm9.33,13.75q-4.47.58-4.47,4a3.27,3.27,0,0,0,1.08,2.55,4.23,4.23,0,0,0,2.93,1,5.38,5.38,0,0,0,4.17-1.79,6.32,6.32,0,0,0,1.63-4.44v-2Z"
         id="path2498" />
      <path
         class="cls-3"
         d="M181,70.76a16,16,0,0,0,8.31,2.58q5.11,0,5.11-2.73,0-2-4.21-3.25Q185,65.72,183,63.72a7.44,7.44,0,0,1-2-5.43,7.55,7.55,0,0,1,3.38-6.53,15.05,15.05,0,0,1,8.84-2.37,24.68,24.68,0,0,1,7.49,1.15V57a14,14,0,0,0-7.26-1.95,6.23,6.23,0,0,0-3.17.71,2.09,2.09,0,0,0-1.2,1.85c0,1.3,1.19,2.34,3.58,3.14a38.43,38.43,0,0,1,5.76,2.33,7.41,7.41,0,0,1,2.94,2.76,7.67,7.67,0,0,1,1,4,7.78,7.78,0,0,1-3.5,6.79Q195.4,79,189.55,79A24.27,24.27,0,0,1,181,77.59Z"
         id="path2500" />
      <path
         class="cls-3"
         d="M216.29,75V91.36H208V50.08h8.26V54.4h.1A11.09,11.09,0,0,1,234,53.16q3,3.78,3,10.27,0,7.08-3.52,11.34A11.43,11.43,0,0,1,224.26,79,8.81,8.81,0,0,1,216.39,75Zm-.13-9.1a7.34,7.34,0,0,0,1.64,4.94A5.3,5.3,0,0,0,222,72.7a5.6,5.6,0,0,0,4.82-2.4,11.52,11.52,0,0,0,1.72-6.8q0-7.77-6.05-7.77a5.68,5.68,0,0,0-4.59,2.15,8.34,8.34,0,0,0-1.78,5.52Z"
         id="path2502" />
      <path
         class="cls-3"
         d="M241.63,64.35q0-7,4.18-11t11.23-4q6.82,0,10.84,3.93t4,10.54c0,4.64-1.37,8.32-4.12,11.07S261.32,79,256.63,79s-8.25-1.31-10.95-4S241.63,68.88,241.63,64.35Zm8.36-.11q0,8.46,6.9,8.46,6.62,0,6.62-8.69,0-8.28-6.67-8.28a6.11,6.11,0,0,0-5,2.23A9.73,9.73,0,0,0,250,64.24Z"
         id="path2504" />
      <path
         class="cls-3"
         d="M278,78.35V36.51h8.23V78.35Z"
         id="path2506" />
      <path
         class="cls-3"
         d="M292.36,64.35q0-7,4.18-11t11.23-4q6.83,0,10.84,3.93t4,10.54c0,4.64-1.37,8.32-4.12,11.07S312.05,79,307.36,79s-8.25-1.31-10.95-4S292.36,68.88,292.36,64.35Zm8.35-.11q0,8.46,6.91,8.46,6.61,0,6.61-8.69,0-8.28-6.67-8.28a6.1,6.1,0,0,0-5,2.23A9.67,9.67,0,0,0,300.71,64.24Z"
         id="path2508" />
      <path
         class="cls-3"
         d="M356.19,75.23q0,7.88-4.49,12.13t-12.92,4.26a21.1,21.1,0,0,1-9.1-1.64v-7a17.52,17.52,0,0,0,8.87,2.55,9.61,9.61,0,0,0,6.91-2.36,8.58,8.58,0,0,0,2.5-6.56V74.21h-.13a9.79,9.79,0,0,1-8.9,4.83,10.62,10.62,0,0,1-8.55-3.81q-3.19-3.8-3.2-10.19,0-7.14,3.54-11.39A11.48,11.48,0,0,1,340,49.39a8.69,8.69,0,0,1,7.82,4.07H348V50.08h8.23ZM348,62.4a6.9,6.9,0,0,0-1.7-4.74,5.48,5.48,0,0,0-4.28-1.93,5.59,5.59,0,0,0-4.76,2.37,10.92,10.92,0,0,0-1.76,6.63,9.2,9.2,0,0,0,1.69,5.84,5.43,5.43,0,0,0,4.47,2.13,5.62,5.62,0,0,0,4.58-2.17A8.71,8.71,0,0,0,348,64.88Z"
         id="path2510" />
      <path
         class="cls-3"
         d="M363.33,41a3.9,3.9,0,0,1,1.34-3.08,5,5,0,0,1,3.44-1.19,4.93,4.93,0,0,1,3.47,1.22A3.94,3.94,0,0,1,372.91,41a4.06,4.06,0,0,1-1.35,3.11,5,5,0,0,1-3.45,1.24,4.84,4.84,0,0,1-3.43-1.26A4,4,0,0,1,363.33,41Zm.61,37.39V50.08h8.23V78.35Z"
         id="path2512" />
      <path
         class="cls-3"
         d="M401.16,77.3q-3,1.74-8.43,1.74a14.23,14.23,0,0,1-10.45-3.93,13.72,13.72,0,0,1-4-10.2q0-7.21,4.29-11.36T394,49.39c3.22,0,5.61.45,7.16,1.33V57.8A10.27,10.27,0,0,0,395,55.73a8.2,8.2,0,0,0-6.07,2.3,8.59,8.59,0,0,0-2.28,6.32,8.4,8.4,0,0,0,2.17,6.12,7.84,7.84,0,0,0,5.9,2.23,11.43,11.43,0,0,0,6.44-2.09Z"
         id="path2514" />
      <path
         class="cls-3"
         d="M115.38,64.57q-7.66,28.8-35.61,21.37a38.09,38.09,0,0,1-15.83-8.08L66.29,69q7.39,7.14,15.37,9.25,18.9,5,24.19-14.86l1.45-5.49-.18,0Q98.6,66.09,86.88,63q-9.76-2.59-13.77-11.14t-.94-20.09q3.54-13.26,12.07-19.31t19.32-3.18Q113.93,12,116.75,21.6l.19,0,1.87-7L128,17.05Zm-2.15-28.95a14.82,14.82,0,0,0-1.3-11.39,13.73,13.73,0,0,0-8.89-7q-7.5-2-13.14,2.41t-8.19,14q-2.2,8.27.48,14.44a13.37,13.37,0,0,0,9.33,8,14.41,14.41,0,0,0,12.27-2,18.59,18.59,0,0,0,7.52-11.26Z"
         id="path2516" />
      <polygon
         class="cls-1"
         points="97.47 44.4 80.16 39.25 87.2 49.95 97.47 44.4"
         id="polygon2518" />
      <polygon
         class="cls-1"
         points="80.16 39.25 86.47 30.84 97.47 44.4 80.16 39.25"
         id="polygon2520" />
      <polygon
         class="cls-1"
         points="95.05 24.55 88.81 21.12 88.81 21.12 86.47 30.84 95.05 24.55"
         id="polygon2522" />
      <polygon
         class="cls-1"
         points="104.14 35.38 95.05 24.55 86.47 30.84 104.14 35.38"
         id="polygon2524" />
      <polygon
         class="cls-1"
         points="95.26 18.81 95.05 24.55 104.14 35.38 95.26 18.81"
         id="polygon2526" />
      <circle
         class="cls-2"
         cx="95.05"
         cy="24.55"
         r="3.88"
         transform="translate(27.76 96.03) rotate(-61.21)"
         id="circle2528" />
      <circle
         class="cls-2"
         cx="104.14"
         cy="35.38"
         r="3.88"
         transform="translate(22.98 109.61) rotate(-61.21)"
         id="circle2530" />
      <circle
         class="cls-2"
         cx="86.47"
         cy="30.84"
         r="3.88"
         transform="translate(17.8 91.77) rotate(-61.21)"
         id="circle2532" />
      <circle
         class="cls-2"
         cx="97.47"
         cy="44.39"
         r="3.88"
         transform="translate(11.62 108.43) rotate(-61.21)"
         id="circle2534" />
      <circle
         class="cls-2"
         cx="80.16"
         cy="39.25"
         r="3.88"
         transform="translate(-8.38 50.57) rotate(-33.37)"
         id="circle2536" />
      <circle
         class="cls-2"
         cx="74.92"
         cy="52.13"
         r="7.55"
         transform="translate(-6.85 92.69) rotate(-61.21)"
         id="circle2538" />
      <circle
         class="cls-2"
         cx="87.2"
         cy="49.95"
         r="3.88"
         transform="matrix(0.84, -0.55, 0.55, 0.84, -13.1, 56.2)"
         id="circle2540" />
      <line
         class="cls-1"
         x1="255.24"
         y1="157.86"
         x2="227.49"
         y2="146.95"
         id="line2542" />
      <line
         class="cls-1"
         x1="193.46"
         y1="118.94"
         x2="217.92"
         y2="128.03"
         id="line2544" />
      <circle
         class="cls-2"
         cx="125.98"
         cy="150.09"
         r="7.55"
         transform="translate(-66.23 188.21) rotate(-61.21)"
         id="circle2546" />
      <circle
         class="cls-2"
         cx="105.78"
         cy="150.62"
         r="3.88"
         transform="translate(-77.16 170.79) rotate(-61.21)"
         id="circle2548" />
      <circle
         class="cls-2"
         cx="324.39"
         cy="193.8"
         r="7.55"
         transform="translate(-1.68 384.76) rotate(-61.21)"
         id="circle2550" />
      <circle
         class="cls-2"
         cx="389.28"
         cy="175.39"
         r="11.32"
         transform="translate(48.09 432.09) rotate(-61.21)"
         id="circle2552" />
      <circle
         class="cls-2"
         cx="350.43"
         cy="151.31"
         r="7.55"
         transform="translate(49.06 385.55) rotate(-61.21)"
         id="circle2554" />
      <circle
         class="cls-2"
         cx="382.65"
         cy="148.19"
         r="11.32"
         transform="translate(68.5 412.17) rotate(-61.21)"
         id="circle2556" />
      <circle
         class="cls-2"
         cx="365.94"
         cy="169.19"
         r="3.88"
         transform="translate(41.43 408.42) rotate(-61.21)"
         id="circle2558" />
      <circle
         class="cls-2"
         cx="352.25"
         cy="189.16"
         r="7.55"
         transform="translate(16.83 406.77) rotate(-61.21)"
         id="circle2560" />
      <circle
         class="cls-2"
         cx="335.99"
         cy="168.05"
         r="3.88"
         transform="translate(26.9 381.57) rotate(-61.21)"
         id="circle2562" />
      <circle
         class="cls-2"
         cx="251.15"
         cy="139.73"
         r="7.55"
         transform="translate(7.74 292.54) rotate(-61.21)"
         id="circle2564" />
      <circle
         class="cls-2"
         cx="284.17"
         cy="163.37"
         r="3.88"
         transform="translate(4.14 333.74) rotate(-61.21)"
         id="circle2566" />
      <circle
         class="cls-2"
         cx="311.6"
         cy="168.05"
         r="3.88"
         transform="translate(14.26 360.2) rotate(-61.21)"
         id="circle2568" />
      <circle
         class="cls-2"
         cx="294.1"
         cy="189.5"
         r="7.55"
         transform="translate(-13.62 355.98) rotate(-61.21)"
         id="circle2570" />
      <circle
         class="cls-2"
         cx="264.35"
         cy="179.16"
         r="7.55"
         transform="translate(-19.97 324.55) rotate(-61.21)"
         id="circle2572" />
      <circle
         class="cls-2"
         cx="234.61"
         cy="170.51"
         r="7.55"
         transform="translate(-27.81 294.01) rotate(-61.21)"
         id="circle2574" />
      <circle
         class="cls-2"
         cx="315.13"
         cy="146.95"
         r="7.55"
         transform="translate(34.58 352.36) rotate(-61.21)"
         id="circle2576" />
      <circle
         class="cls-2"
         cx="286.54"
         cy="143.31"
         r="7.55"
         transform="translate(22.95 325.41) rotate(-61.21)"
         id="circle2578" />
      <circle
         class="cls-2"
         cx="255.24"
         cy="157.86"
         r="3.88"
         transform="translate(-6.03 305.52) rotate(-61.21)"
         id="circle2580" />
      <circle
         class="cls-2"
         cx="227.49"
         cy="146.95"
         r="3.88"
         transform="translate(-10.85 275.55) rotate(-61.21)"
         id="circle2582" />
      <circle
         class="cls-2"
         cx="217.92"
         cy="128.03"
         r="7.55"
         transform="translate(0.77 257.36) rotate(-61.21)"
         id="circle2584" />
      <circle
         class="cls-2"
         cx="209.63"
         cy="159.38"
         r="7.55"
         transform="translate(-31.01 266.34) rotate(-61.21)"
         id="circle2586" />
      <circle
         class="cls-2"
         cx="183.04"
         cy="149.27"
         r="7.55"
         transform="translate(-35.93 237.8) rotate(-61.21)"
         id="circle2588" />
      <circle
         class="cls-2"
         cx="153.49"
         cy="148.19"
         r="7.55"
         transform="translate(-50.3 211.34) rotate(-61.21)"
         id="circle2590" />
      <circle
         class="cls-2"
         cx="200.39"
         cy="139.73"
         r="3.88"
         transform="translate(-18.58 248.06) rotate(-61.21)"
         id="circle2592" />
      <circle
         class="cls-2"
         cx="172.94"
         cy="136.7"
         r="3.88"
         transform="translate(-30.15 222.43) rotate(-61.21)"
         id="circle2594" />
      <circle
         class="cls-2"
         cx="83.27"
         cy="147.64"
         r="3.88"
         transform="translate(-86.22 149.51) rotate(-61.21)"
         id="circle2596" />
      <circle
         class="cls-2"
         cx="63.07"
         cy="137.73"
         r="7.55"
         transform="translate(-78.92 84.94) rotate(-45)"
         id="circle2598" />
      <circle
         class="cls-2"
         cx="39.27"
         cy="115.83"
         r="7.55"
         transform="translate(-70.4 61.69) rotate(-45)"
         id="circle2600" />
      <circle
         class="cls-2"
         cx="15.25"
         cy="91.81"
         r="7.55"
         transform="translate(-60.45 37.67) rotate(-45)"
         id="circle2602" />
      <circle
         class="cls-2"
         cx="7.55"
         cy="61.28"
         r="7.55"
         transform="translate(-41.12 23.28) rotate(-45)"
         id="circle2604" />
      <circle
         class="cls-2"
         cx="14.13"
         cy="25.37"
         r="7.55"
         transform="translate(-13.8 17.42) rotate(-45)"
         id="circle2606" />
      <circle
         class="cls-4"
         cx="340.6"
         cy="125.49"
         r="11.32"
         transform="translate(66.59 363.55) rotate(-61.21)"
         id="circle2608" />
      <circle
         class="cls-4"
         cx="388.65"
         cy="129.93"
         r="7.55"
         transform="translate(87.61 407.97) rotate(-61.21)"
         id="circle2610" />
      <circle
         class="cls-4"
         cx="368.68"
         cy="117.09"
         r="3.88"
         transform="translate(88.51 383.81) rotate(-61.21)"
         id="circle2612" />
      <circle
         class="cls-4"
         cx="301.01"
         cy="125.49"
         r="7.75"
         transform="translate(-21.46 174.14) rotate(-31.21)"
         id="circle2614" />
      <circle
         class="cls-4"
         cx="193.46"
         cy="118.94"
         r="3.88"
         transform="translate(-3.95 231.21) rotate(-61.21)"
         id="circle2616" />
      <circle
         class="cls-4"
         cx="87.53"
         cy="110.22"
         r="3.88"
         transform="translate(-51.22 133.84) rotate(-61.21)"
         id="circle2618" />
      <circle
         class="cls-4"
         cx="273.09"
         cy="113.64"
         r="7.55"
         transform="translate(41.98 298.24) rotate(-61.21)"
         id="circle2620" />
      <circle
         class="cls-4"
         cx="71.95"
         cy="120.82"
         r="7.55"
         transform="translate(-68.58 125.69) rotate(-61.21)"
         id="circle2622" />
      <circle
         class="cls-4"
         cx="62.97"
         cy="94.36"
         r="7.55"
         transform="translate(-50.06 104.1) rotate(-61.21)"
         id="circle2624" />
      <circle
         class="cls-4"
         cx="273.59"
         cy="127.04"
         r="3.88"
         transform="translate(30.5 305.63) rotate(-61.21)"
         id="circle2626" />
      <circle
         class="cls-4"
         cx="161.5"
         cy="122.42"
         r="7.55"
         transform="translate(-23.57 205) rotate(-61.21)"
         id="circle2628" />
      <circle
         class="cls-4"
         cx="136.15"
         cy="127"
         r="7.55"
         transform="translate(-40.73 185.16) rotate(-61.21)"
         id="circle2630" />
      <circle
         class="cls-4"
         cx="322.56"
         cy="107.62"
         r="7.55"
         transform="translate(72.9 338.48) rotate(-61.21)"
         id="circle2632" />
      <circle
         class="cls-4"
         cx="344.26"
         cy="105.91"
         r="3.88"
         transform="translate(85.65 356.61) rotate(-61.21)"
         id="circle2634" />
      <circle
         class="cls-4"
         cx="99.49"
         cy="130.42"
         r="11.32"
         transform="translate(-62.73 154.8) rotate(-61.21)"
         id="circle2636" />
      <circle
         class="cls-4"
         cx="291.41"
         cy="107.62"
         r="3.88"
         transform="translate(56.75 311.18) rotate(-61.21)"
         id="circle2638" />
      <circle
         class="cls-4"
         cx="242.74"
         cy="116.5"
         r="7.55"
         transform="translate(23.73 273.13) rotate(-61.21)"
         id="circle2640" />
      <circle
         class="cls-4"
         cx="123.48"
         cy="115.72"
         r="3.88"
         transform="translate(-37.41 168.2) rotate(-61.21)"
         id="circle2642" />
      <circle
         class="cls-4"
         cx="53.04"
         cy="112.44"
         r="3.88"
         transform="translate(-71.05 104.77) rotate(-61.21)"
         id="circle2644" />
      <circle
         class="cls-4"
         cx="62.97"
         cy="24.54"
         r="7.55"
         transform="translate(11.13 67.91) rotate(-61.21)"
         id="circle2646" />
      <circle
         class="cls-4"
         cx="53.04"
         cy="76.29"
         r="3.88"
         transform="translate(-39.36 86.03) rotate(-61.21)"
         id="circle2648" />
      <circle
         class="cls-4"
         cx="28.41"
         cy="74.61"
         r="11.32"
         transform="translate(-50.66 63.57) rotate(-61.21)"
         id="circle2650" />
      <circle
         class="cls-4"
         cx="34.19"
         cy="44"
         r="7.55"
         transform="translate(-20.84 52.77) rotate(-61.21)"
         id="circle2652" />
      <circle
         class="cls-4"
         cx="14.36"
         cy="47.87"
         r="3.88"
         transform="translate(-34.51 37.41) rotate(-61.21)"
         id="circle2654" />
      <circle
         class="cls-4"
         cx="42.6"
         cy="23.31"
         r="3.88"
         transform="translate(1.65 49.42) rotate(-61.21)"
         id="circle2656" />
      <circle
         class="cls-4"
         cx="87.38"
         cy="19.88"
         r="3.88"
         transform="translate(27.88 86.89) rotate(-61.21)"
         id="circle2658" />
    </g>
  </g>
</svg>
